<svg xmlns="http://www.w3.org/2000/svg" viewBox="0 0 20 20.1"><path d="M18.3 8.4V8c0-1.2-.9-2.1-2.1-2.1C16 2.4 13.1-.2 9.6 0 6.5.2 3.9 2.7 3.8 5.9c-1.2 0-2.1.9-2.1 2.1v.5C.5 8.7-.2 9.8 0 10.9c.2.8.8 1.5 1.6 1.6v.5c0 1.1.9 2.1 2 2.1h1.7c.2 0 .4-.2.4-.4V6.3c0-.2-.2-.4-.4-.4h-.7c.3-3 2.9-5.2 5.9-4.9 2.6.2 4.7 2.3 4.9 4.9h-.8c-.2 0-.4.2-.4.4v8.3c0 .2.2.4.4.4h1.7c0 1.4-1.1 2.5-2.5 2.5h-.9c-.2-1.1-1.3-1.9-2.5-1.6-1.1.2-1.9 1.3-1.6 2.5.2 1.1 1.3 1.9 2.5 1.6.8-.2 1.5-.8 1.6-1.6h.9c1.8 0 3.3-1.5 3.3-3.3v-.2c.8-.3 1.2-1.1 1.2-1.9v-.5c1.1-.2 1.9-1.3 1.6-2.4-.1-.9-.8-1.5-1.6-1.7z" fill="#e13f36"/></svg>