<svg xmlns="http://www.w3.org/2000/svg" viewBox="0 0 80 80"><circle cx="40" cy="40" r="40" fill="#e87200"/><path d="M53.4 20c-2.3 0-5 1.2-6.7 4.3-1.7-3.1-4.5-4.3-6.8-4.3-3.8 0-7.8 3.2-7.8 8.6 0 7.7 13.3 17.4 13.8 17.9.4.3 1 .3 1.4 0 .7-.5 13.9-10.2 13.9-17.9 0-5.4-4-8.6-7.8-8.6zM39.2 51.7h-3.3c-.5 0-.8.4-.8.8s.4.8.8.8H50c3.8 1 6.8 1.9 6.8 4.2 0 .5-.4.8-.8.8H31c-.5 0-.8-.4-.8-.8v-8.3c0-.5.4-.8.8-.8h2.8c2.5 0 5.2 1.9 5.5 2.2.2.1 1.4 1.1-.1 1.1zm-11.7-5h-6.7c-.5 0-.8.4-.8.8v11.7c0 .5.4.8.8.8h6.7c.5 0 .8-.4.8-.8V47.5c0-.5-.3-.8-.8-.8z" fill="#fff"/><path d="M44.1 35.6c0 1.2 1.1 2.3 2.5 2.3s2.5-1 2.5-2.3c0-1.2-.6-2.1-2.5-2.2-1.9-.1-2.5-1-2.5-2.3 0-1.2 1.1-2.3 2.5-2.3s2.5 1 2.5 2.3m-2.4 6.7v1.5m0-12v1.5" fill="none" stroke="#e87200" stroke-linecap="round" stroke-linejoin="round" stroke-miterlimit="10"/></svg>