<svg id="25ae25e5-b179-4c51-89b4-5165d6bf10fc" data-name="Layer 1" xmlns="http://www.w3.org/2000/svg" viewBox="0 0 56 48"><defs><style/></defs><path class="293e5899-35c5-40dd-87bc-0d9a984a6638" d="M0 0h56v48H0z"/><path d="M36.33 22.38v-.46a2.09 2.09 0 0 0-2.08-2.09 6.24 6.24 0 0 0-12.46 0 2.09 2.09 0 0 0-2.08 2.09v.46a2.08 2.08 0 0 0 0 4.08v.46A2.08 2.08 0 0 0 21.75 29h1.67a.41.41 0 0 0 .41-.42v-8.33a.41.41 0 0 0-.41-.42h-.82a5.42 5.42 0 0 1 10.8 0h-.82a.41.41 0 0 0-.41.42v8.33a.41.41 0 0 0 .41.42h1.67a2.5 2.5 0 0 1-2.5 2.5h-.88a2.09 2.09 0 1 0 0 .83h.88A3.33 3.33 0 0 0 35.08 29v-.18a2.07 2.07 0 0 0 1.25-1.9v-.46a2.08 2.08 0 0 0 0-4.08z" fill="#fff"/></svg>