<svg xmlns="http://www.w3.org/2000/svg" width="400" height="342.857" viewBox="0 28.571 400 342.857"><path fill="#829600" d="M0 28.571h400v342.857H0z"/><path fill="#FFF" d="M259.5 188.429v-3.286c0-8.217-6.641-14.889-14.857-14.928-1.393-24.577-22.445-43.371-47.022-41.978-22.631 1.283-40.695 19.347-41.978 41.978-8.217.039-14.857 6.711-14.857 14.928v3.286c-8.047 1.601-13.273 9.423-11.672 17.471a14.857 14.857 0 0 0 11.672 11.672v3.286c-.001 8.095 6.478 14.701 14.571 14.857h11.929a2.93 2.93 0 0 0 2.93-2.928l-.001-.072v-59.5a2.927 2.927 0 0 0-2.856-2.999l-.072-.001h-5.857c1.835-21.302 20.592-37.084 41.894-35.249 18.758 1.616 33.633 16.491 35.249 35.249h-5.856a2.929 2.929 0 0 0-2.93 2.928v59.572a2.929 2.929 0 0 0 2.929 3h11.928c0 9.861-7.994 17.856-17.857 17.856H220.5c-1.637-8.081-9.516-13.304-17.596-11.667-8.081 1.637-13.304 9.516-11.667 17.596s9.515 13.305 17.596 11.667A14.928 14.928 0 0 0 220.5 259.5h6.285c13.137 0 23.786-10.649 23.786-23.785v-1.286a14.786 14.786 0 0 0 8.929-13.571v-3.286c8.047-1.602 13.273-9.423 11.672-17.471a14.857 14.857 0 0 0-11.672-11.672z"/></svg>