<svg xmlns="http://www.w3.org/2000/svg" viewBox="0 0 40 40"><defs><style>.cls-2{fill:#dce169}</style></defs><g id="Layer_2" data-name="Layer 2"><g id="Footer"><path id="_Path_" data-name="&lt;Path&gt;" d="M40 20A20 20 0 1 1 20 0a20 20 0 0 1 20 20z" fill="#5f6e00"/><path class="cls-2" d="M13.32 14.24a5.29 5.29 0 0 0-5.27 4.54 5.52 5.52 0 0 0-.05.71 5.33 5.33 0 0 0 10.65 0 5.21 5.21 0 0 0-.49-2.2 5.33 5.33 0 0 0-4.84-3.05zm-4.6 4.37a39.31 39.31 0 0 1 4.19-.85 39.31 39.31 0 0 0-4.19.85z"/><path id="_Path_2" data-name="&lt;Path&gt;" class="cls-2" d="M32 19.07a5.28 5.28 0 0 0-5.3-4.83 5.35 5.35 0 0 0-4.86 3.09 5.2 5.2 0 0 0-.46 2.16 5.32 5.32 0 0 0 10.64 0c-.02-.14-.02-.28-.02-.42z"/></g></g></svg>