<svg xmlns="http://www.w3.org/2000/svg" viewBox="0 0 80 80"><defs><style/></defs><g id="d5d51413-ad49-4869-8cdf-a6924d3faeb0" data-name="Quick Links"><circle class="0e8d2fde-e199-4ca4-8ce0-3576b66cfd6b" cx="40" cy="40" r="40"/><path class="5e42ccd9-ba1c-488f-8ebc-2645312944c6" d="M47.83 25.86a.85.85 0 0 0-.72.16l-3.24 2.66a10.54 10.54 0 0 0-7 0L33.63 26a.79.79 0 0 0-.71-.16.8.8 0 0 0-.57.46c-1.55 3.33-1.35 5.46.65 7.51.37 2.92 3.51 8 7.36 8s6.93-5 7.35-7.91c2.08-2.07 2.27-4.22.71-7.57a.8.8 0 0 0-.59-.47zm-9.16 7.89H37v-1.66h1.67zm5 0H42v-1.66h1.67zM35.34 50h1.67v5h-1.67z"/><path class="5e42ccd9-ba1c-488f-8ebc-2645312944c6" d="M57.17 20H22.83a.83.83 0 0 0-.83.83v38.35a.81.81 0 0 0 .83.82h34.34a.81.81 0 0 0 .83-.82V20.83a.83.83 0 0 0-.83-.83zM32 56.67h-2.5a.84.84 0 0 1-.83-.84v-7.5h1.67V55H32zm6.67-.84a.84.84 0 0 1-.83.84H34.5a.84.84 0 0 1-.83-.84v-6.67a.83.83 0 0 1 .83-.83h3.34a.83.83 0 0 1 .83.83zM45.34 50H42v1.66h2.51a.84.84 0 0 1 .83.84v3.33a.84.84 0 0 1-.83.84h-4.17V55h3.33v-1.67h-2.5a.83.83 0 0 1-.83-.83v-3.34a.83.83 0 0 1 .83-.83h4.17zM52 50h-1.66v6.67h-1.67V50H47v-1.67h5zm2-4.16a.83.83 0 0 1-.83.83h-4.29v-.83a8.89 8.89 0 0 0-2.3-5.84c-1.59 2-3.74 3.52-6.24 3.52A8.25 8.25 0 0 1 34.12 40a8.94 8.94 0 0 0-2.22 5.84v.83h-5.07a.83.83 0 0 1-.83-.83v-21a.84.84 0 0 1 .83-.84h26.34a.84.84 0 0 1 .83.84z"/></g></svg>