<svg xmlns="http://www.w3.org/2000/svg" viewBox="0 0 80 80"><g data-name="Quick Links"><circle cx="40" cy="40" r="40" fill="#56a0d3"/><path d="M40 20a20 20 0 1 0 20 20 20 20 0 0 0-20-20zm-.48 34c-2.11 0-3.43-1.22-3.43-3.2a3.09 3.09 0 0 1 3.43-3.23 3.08 3.08 0 0 1 3.41 3.23c0 1.98-1.3 3.2-3.41 3.2zM45 39.72c-2.5 1.45-3.2 2.47-3.2 4.28h-5c-.25-3 .79-4.85 3.39-6.37 2.43-1.45 3.16-2.36 3.16-4.11s-1.43-3-3.58-3a3.46 3.46 0 0 0-3.71 3.41H31c0-4.69 3.32-7.93 9.1-7.93 5.39 0 8.95 3 8.95 7.35 0 2.83-1.37 4.8-4.05 6.37z" fill="#fff"/></g></svg>