<svg xmlns="http://www.w3.org/2000/svg" viewBox="0 0 80 80"><defs><style>.d56fb7b4-87d9-4584-9f65-a8035f3fe7aa{fill:#fff}</style></defs><g id="346cfa07-c200-4d74-b296-a15964532785" data-name="Quick Links"><circle class="921791a5-c618-425f-bff8-02bbf446de73" cx="40" cy="40" r="40"/><path class="d56fb7b4-87d9-4584-9f65-a8035f3fe7aa" d="M53.85 47.9L52 55.36l.27.4c1.68 2.52 5.16.76 4.14-1.59-.29-.58-2.56-6.27-2.56-6.27zm-23.11 2.85l2.31 5.1a2 2 0 0 0 3.76-1l-.48-5.17a13.9 13.9 0 0 0-5.59 1.07z"/><path class="d56fb7b4-87d9-4584-9f65-a8035f3fe7aa" d="M56 31.56l-1.7-1-1.73-4.26a.92.92 0 0 0-.85-.57.94.94 0 0 0-.85.57l-2.71 6.51a6.43 6.43 0 0 1-5.94 4H29a4.82 4.82 0 0 1-1.83-5.56c.49-1.75 1.53-2.82 1.94-2.82 0 0 .2.13.34.55.84 2.54 5 1.35 4.48-1.55S31.74 23 29.31 23c-3.84 0-7.94 4.06-7.94 10.1 0 3.75 1.27 6.36 3.89 7.95-1.59 4.37-3.84 10-5.09 13.1-1 2.47 2.7 4.19 4.3 1.52 2.9-4.85 3.61-7.85 13.45-7.85 3.63 0 5.46.35 6.32 1.22s1 2.51 1 5.66a2.31 2.31 0 0 0 2.29 2.3 2.75 2.75 0 0 0 2.67-2.09l2.39-9.55 2.46-4.92h1.62A3.34 3.34 0 0 0 60 37.12c0-3.12-1.17-3.86-4-5.56zm-2 5.21a.92.92 0 1 1 .92-.92.92.92 0 0 1-.87.92z"/></g></svg>