<svg xmlns="http://www.w3.org/2000/svg" viewBox="0 0 40 40"><g data-name="Layer 2"><path data-name="&lt;Path&gt;" d="M40 20A20 20 0 1 1 20 0a20 20 0 0 1 20 20z" fill="#5f6e00"/><path d="M27.36 8H12.64A4.64 4.64 0 0 0 8 12.64v14.72A4.64 4.64 0 0 0 12.64 32h14.72A4.64 4.64 0 0 0 32 27.36V12.64A4.64 4.64 0 0 0 27.36 8zm1.33 2.77h.53v4.07h-4v-4.06zm-12.11 6.77a4.21 4.21 0 0 1 6.85 0c.09.13.17.26.25.4a4.22 4.22 0 1 1-7.36 0 3.42 3.42 0 0 1 .26-.4zm13.08 9.82a2.3 2.3 0 0 1-2.3 2.3H12.64a2.3 2.3 0 0 1-2.3-2.3v-9.82h3.58a5.3 5.3 0 0 0-.23.67 6.56 6.56 0 1 0 12.62 0c-.07-.23-.14-.45-.23-.67h3.58v9.82z" fill="#dce169"/></g></svg>