<svg xmlns="http://www.w3.org/2000/svg" viewBox="0 0 40 40"><defs><style>.cls-2{fill:#dce169}</style></defs><g id="Layer_2" data-name="Layer 2"><g id="Footer"><path id="_Path_" data-name="&lt;Path&gt;" d="M40 20A20 20 0 1 1 20 0a20 20 0 0 1 20 20z" fill="#5f6e00"/><path id="_Path_2" data-name="&lt;Path&gt;" class="cls-2" d="M8.66 19.23v11.6h5.53V15.04H8.66v4.19z"/><path id="_Path_3" data-name="&lt;Path&gt;" class="cls-2" d="M11.43 7.14a2.77 2.77 0 1 0 2.76 2.76 2.76 2.76 0 0 0-2.76-2.76z"/><path id="_Path_4" data-name="&lt;Path&gt;" class="cls-2" d="M32.24 19.88c-.38-3-1.75-4.84-5.77-4.84-2.39 0-4 .88-4.65 2.13h-.06V15h-4.41v15.83H22V23c0-2.06.39-4.06 2.95-4.06s2.72 2.36 2.72 4.19v7.7h4.74v-8.68a20.09 20.09 0 0 0-.17-2.27z"/></g></g></svg>