<svg version="1.1" id="Layer_1" xmlns="http://www.w3.org/2000/svg" x="0" y="0" viewBox="0 0 20 20" xml:space="preserve"><style>.st0{fill:#afbe23}</style><path class="st0" d="M12.6 8.2l-.7-.7c-1.6-1.6-4.2-1.6-5.9 0l-4.8 4.8c-1.6 1.6-1.6 4.2 0 5.9l.7.7c.8.7 1.9 1.1 3 1.1s2.1-.4 2.9-1.2l2.2-2.2c.4-.4.4-1.1 0-1.5-.4-.4-1.1-.4-1.5 0l-2.2 2.2c-.8.8-2.1.8-2.9 0l-.7-.7c-.8-.8-.8-2.1 0-2.9l4.8-4.8c.8-.8 2.1-.8 2.9 0l.7.7c.4.4 1.1.4 1.5 0 .4-.4.4-1 0-1.4z"/><path class="st0" d="M18.8 1.9l-.7-.7c-.8-.8-1.9-1.2-3-1.2s-2.1.4-2.9 1.2l-2.1 2.1c-.4.4-.4 1.1 0 1.5.4.4 1.1.4 1.5 0l2.1-2.1c.8-.8 2.1-.8 2.9 0l.7.7c.8.8.8 2.1 0 2.9l-4.8 4.8c-.8.8-2.1.8-2.9 0-.4-.4-1.1-.4-1.5 0-.4.4-.4 1.1 0 1.5 1.6 1.6 4.2 1.6 5.9 0l4.8-4.8c1.6-1.6 1.6-4.2 0-5.9z"/></svg>