<svg version="1.1" id="Layer_1" xmlns="http://www.w3.org/2000/svg" x="0" y="0" viewBox="0 0 36 40" xml:space="preserve"><style>.st0{fill:#fff}</style><path class="st0" d="M25.8 5.9c-.2-.1-.5 0-.7.2l-3.2 2.7c-2.1-.8-4.9-.8-7 0L11.6 6c-.2-.2-.5-.2-.7-.2-.3.1-.5.2-.6.5-1.5 3.3-1.3 5.5.7 7.5.4 2.9 3.5 8 7.4 8 3.8 0 6.9-5 7.4-7.9 2.1-2.1 2.3-4.2.7-7.6-.2-.2-.4-.4-.7-.4zm-9.1 7.9H15v-1.7h1.7v1.7zm5 0H20v-1.7h1.7v1.7zM13.3 30H15v5h-1.7z"/><path class="st0" d="M35.2 0H.8C.4 0 0 .4 0 .8v38.3c0 .5.4.9.8.9h34.3c.5 0 .8-.4.8-.8V.8c.1-.4-.3-.8-.7-.8zM10 36.7H7.5c-.5 0-.8-.4-.8-.8v-7.5h1.7V35H10v1.7zm6.7-.9c0 .5-.4.8-.8.8h-3.3c-.5 0-.8-.4-.8-.8v-6.7c0-.5.4-.8.8-.8h3.3c.5 0 .8.4.8.8v6.7zm6.6-5.8H20v1.7h2.5c.5 0 .8.4.8.8v3.3c0 .5-.4.8-.8.8h-4.2V35h3.3v-1.7h-2.5c-.5 0-.8-.4-.8-.8v-3.3c0-.5.4-.8.8-.8h4.2V30zm6.7 0h-1.7v6.7h-1.7V30H25v-1.7h5V30zm2-4.2c0 .5-.4.8-.8.8h-4.3v-.8c0-2.6-1.2-4.6-2.3-5.9-1.6 2-3.7 3.5-6.2 3.5s-4.6-1.5-6.2-3.5c-1.1 1.3-2.2 3.2-2.2 5.8v.8H4.8c-.5 0-.8-.4-.8-.8v-21c0-.3.4-.7.8-.7h26.3c.5 0 .9.4.9.8v21z"/></svg>