<svg version="1.1" id="Layer_1" xmlns="http://www.w3.org/2000/svg" x="0" y="0" viewBox="0 0 80 80" xml:space="preserve"><style>.st0{fill:#fff}.st1{fill:#e43d30}</style><circle class="st0" cx="40" cy="40" r="40"/><path class="st1" d="M59.2 39H52v20h7.2c.5 0 .8-.4.8-.8V39.8c0-.4-.4-.8-.8-.8zm-1.7 15h-3.3c-.5 0-.8-.4-.8-.8s.4-.8.8-.8h3.3c.5 0 .8.4.8.8s-.3.8-.8.8zm0-3.3h-3.3c-.5 0-.8-.4-.8-.8s.4-.8.8-.8h3.3c.5 0 .8.4.8.8s-.3.8-.8.8zm0-3.4h-3.3c-.5 0-.8-.4-.8-.8s.4-.8.8-.8h3.3c.5 0 .8.4.8.8s-.3.8-.8.8zm0-3.3h-3.3c-.5 0-.8-.4-.8-.8s.4-.8.8-.8h3.3c.5 0 .8.4.8.8s-.3.8-.8.8zM40 42.3c-4.1 0-7.7-2-10-5V59h6v-3.2c0-.5.4-.8.8-.8h6.3c.5 0 .8.4.8.8V59h6V37.3c-2.2 3-5.8 5-9.9 5zM35.8 49h-1.7c-.5 0-.8-.4-.8-.8s.4-.8.8-.8h1.7c.5 0 .8.4.8.8s-.3.8-.8.8zm0-3.3h-1.7c-.5 0-.8-.4-.8-.8s.4-.8.8-.8h1.7c.5 0 .8.4.8.8s-.3.8-.8.8zm5 6.6h-1.7c-.5 0-.8-.4-.8-.8s.4-.8.8-.8h1.7c.5 0 .8.4.8.8s-.3.8-.8.8zm0-3.3h-1.7c-.5 0-.8-.4-.8-.8s.4-.8.8-.8h1.7c.5 0 .8.4.8.8s-.3.8-.8.8zm0-3.3h-1.7c-.5 0-.8-.4-.8-.8s.4-.8.8-.8h1.7c.5 0 .8.4.8.8s-.3.8-.8.8zm5 6.6h-1.7c-.5 0-.8-.4-.8-.8s.4-.8.8-.8h1.7c.5 0 .8.4.8.8s-.3.8-.8.8zm0-3.3h-1.7c-.5 0-.8-.4-.8-.8s.4-.8.8-.8h1.7c.5 0 .8.4.8.8s-.3.8-.8.8zm0-3.3h-1.7c-.5 0-.8-.4-.8-.8s.4-.8.8-.8h1.7c.5 0 .8.4.8.8s-.3.8-.8.8zM20 39.8v18.3c0 .5.4.8.8.8H28V39h-7.2c-.4 0-.8.4-.8.8zm2.5 2.5h3.3c.5 0 .8.4.8.8s-.3.9-.8.9h-3.3c-.5 0-.8-.4-.8-.8s.3-.9.8-.9zm0 3.4h3.3c.5 0 .8.4.8.8s-.4.8-.8.8h-3.3c-.5 0-.8-.4-.8-.8s.3-.8.8-.8zm0 3.3h3.3c.5 0 .8.4.8.8s-.4.8-.8.8h-3.3c-.5 0-.8-.4-.8-.8s.3-.8.8-.8zm0 3.3h3.3c.5 0 .8.4.8.8s-.3.9-.8.9h-3.3c-.5 0-.8-.4-.8-.8s.3-.9.8-.9z"/><path class="st1" d="M40 19c-6 0-10.8 4.9-10.8 10.8S34 40.7 40 40.7s10.8-4.9 10.8-10.8S46 19 40 19z"/><path class="st0" d="M35.8 52.3h-1.7c-.5 0-.8-.4-.8-.8s.4-.8.8-.8h1.7c.5 0 .8.4.8.8s-.3.8-.8.8zm.5-25.7c.9 0 1.5.6 1.5 1.6 0 1.5-.6 2.1-3.9 5.4V35h5.6v-1.4h-4.2c2.9-2.7 3.8-3.8 3.8-5.5 0-1.5-1.1-2.6-2.8-2.6-1.2 0-2.1.5-2.8 1.4l.9.7c.6-.7 1.1-1 1.9-1zm8.8 4.2v-1.6h-1.4v1.6h-1.9l2.4-4.9-1-.4-2.7 5.6v1.1h3.2V35h1.4v-2.8h1.4v-1.4z"/></svg>