<svg height="655.359" viewBox="0 0 6.827 6.827" width="655.359" xmlns="http://www.w3.org/2000/svg" shape-rendering="geometricPrecision" text-rendering="geometricPrecision" image-rendering="optimizeQuality" fill-rule="evenodd" clip-rule="evenodd"><defs><style>.fil0,.fil1{fill:#000}.fil0{fill-rule:nonzero}</style></defs><g id="Layer_x0020_1"><g id="_339081432"><path class="fil0" d="M1.607.913H4.16a.08.08 0 0 1 .057.024l1.225 1.225a.08.08 0 0 1 .024.057v3.448a.246.246 0 0 1-.247.246H1.607a.246.246 0 0 1-.247-.246V1.16a.246.246 0 0 1 .247-.247zm2.521.16H1.607a.086.086 0 0 0-.061.026.086.086 0 0 0-.026.061v4.507c0 .023.01.045.026.06a.086.086 0 0 0 .06.026H5.22a.086.086 0 0 0 .087-.087V2.253l-1.179-1.18z" id="_339081720"/><path class="fil0" d="M5.38 2.298l-1.216-.003v-.08.08a.08.08 0 0 1-.08-.087L4.083.994a.08.08 0 0 1 .136-.057l1.225 1.225a.08.08 0 0 1-.064.136z" id="_339081456"/></g><path class="fil1" d="M4.97 4.704a.246.246 0 0 0-.173-.073H2.03a.246.246 0 0 0-.247.247v.875h3.26v-.875a.246.246 0 0 0-.072-.174zm-.658.239v.111h-.318v.156h.275v.112h-.275v.28H3.86v-.66h.451zm-.65.073a.287.287 0 0 1 .063.107.49.49 0 0 1 .022.156.45.45 0 0 1-.02.14.288.288 0 0 1-.07.116.232.232 0 0 1-.094.053.4.4 0 0 1-.118.014h-.25v-.66h.243c.055 0 .096.005.125.014a.219.219 0 0 1 .1.06zm-.71-.063c.039.01.07.031.096.064a.205.205 0 0 1 .038.129c0 .04-.007.074-.022.102a.18.18 0 0 1-.056.065.193.193 0 0 1-.069.03.759.759 0 0 1-.138.01h-.087v.249h-.133v-.66h.214c.08 0 .133.004.158.01z"/><path class="fil1" d="M3.61 5.273a.387.387 0 0 0-.014-.117.151.151 0 0 0-.038-.064.127.127 0 0 0-.061-.031.593.593 0 0 0-.11-.007h-.06v.437h.1a.358.358 0 0 0 .08-.007.123.123 0 0 0 .054-.027.14.14 0 0 0 .035-.064.433.433 0 0 0 .014-.12zm-.661-.126a.085.085 0 0 0-.021-.059.092.092 0 0 0-.054-.03.633.633 0 0 0-.095-.004h-.065v.187h.073a.344.344 0 0 0 .105-.01.088.088 0 0 0 .042-.032.09.09 0 0 0 .015-.052z"/></g><path fill="none" d="M0 0h6.827v6.827H0z"/></svg>