<svg version="1.1" id="Layer_1" xmlns="http://www.w3.org/2000/svg" x="0" y="0" viewBox="0 0 20 20" xml:space="preserve"><style>.st0{fill:#afbe23}</style><path class="st0" d="M12.7 4.3c-.2-.2-.6-.4-.9-.4-.3 0-.7.1-.9.4l-6.6 6.6c-.5.5-.5 1.3 0 1.8l3 3c.5.5 1.3.5 1.8 0l6.6-6.6c.5-.5.5-1.3 0-1.8l-3-3zm-6 7.8c-.1.1-.2.1-.3.1-.1 0-.2 0-.3-.1-.2-.2-.2-.4 0-.6l5.4-5.4c.2-.2.4-.2.6 0s.2.4 0 .6l-5.4 5.4zm5.7-2.1L10 12.4c-.1.1-.2.1-.3.1-.1 0-.2 0-.3-.1-.2-.2-.2-.4 0-.6l2.4-2.4c.2-.2.4-.2.6 0 .2.2.2.4 0 .6z"/><path class="st0" d="M19.9 6.1c.2-.2.2-.4 0-.6L14.5.1c-.2-.2-.4-.2-.6 0-.4.4-.9.6-1.5.6S11.3.5 10.9.1c-.2-.2-.4-.2-.6 0L.1 10.3c-.1.1-.1.2-.1.3s0 .2.1.3c.4.4.6.9.6 1.5s-.2 1.1-.6 1.5c-.1.1-.1.2-.1.3s0 .2.1.3l5.4 5.4c.2.2.4.2.6 0 .4-.4.9-.6 1.5-.6s1.1.2 1.5.6c.1.1.2.1.3.1.1 0 .2 0 .3-.1L19.9 9.7c.2-.2.2-.4 0-.6-.8-.8-.8-2.2 0-3zm-3.6 3.6l-6.6 6.6c-.4.4-.9.6-1.5.6s-1.1-.2-1.5-.6l-3-3c-.8-.8-.8-2.2 0-3l6.6-6.6c.4-.4.9-.6 1.5-.6s1.1.2 1.5.6l3 3c.8.8.8 2.2 0 3z"/></svg>