<svg xmlns="http://www.w3.org/2000/svg" viewBox="0 0 40 40"><g data-name="Layer 2"><path data-name="&lt;Path&gt;" d="M40 20A20 20 0 1 1 20 0a20 20 0 0 1 20 20z" fill="#5f6e00"/><path data-name="&lt;Path&gt;" d="M31.85 13.9a9.65 9.65 0 0 1-2.8.75A4.77 4.77 0 0 0 31.19 12a9.93 9.93 0 0 1-3.09 1.17 4.87 4.87 0 0 0-8.4 3.27 4.92 4.92 0 0 0 .12 1.09 13.86 13.86 0 0 1-10-5 4.71 4.71 0 0 0-.66 2.41 4.78 4.78 0 0 0 2.16 4 4.91 4.91 0 0 1-2.2-.6v.06a4.71 4.71 0 0 0 .33 1.73 4.84 4.84 0 0 0 3.57 3 5 5 0 0 1-1.29.17 4.6 4.6 0 0 1-.91-.09 4.87 4.87 0 0 0 4.54 3.33 9.86 9.86 0 0 1-6 2 11.27 11.27 0 0 1-1.16-.06 13.94 13.94 0 0 0 7.46 2.15A13.53 13.53 0 0 0 29.1 19.88a13 13 0 0 0 .34-2.88v-.61a9.87 9.87 0 0 0 2.41-2.49z" fill="#dce169"/></g></svg>