<svg version="1.1" id="Layer_1" xmlns="http://www.w3.org/2000/svg" x="0" y="0" viewBox="0 0 80 80" xml:space="preserve"><style>.st1{fill:#fff}</style><circle cx="40" cy="40" r="40" fill="#afbe23"/><path class="st1" d="M49.9 53.3H35.8c-.5 0-.8-.4-.8-.8s.4-.8.8-.8h3.3c1.6.1.3-.9 0-1.2-.3-.2-3-2.2-5.5-2.2h-2.8c-.5 0-.8.4-.8.8v8.3c0 .5.4.8.8.8h25c.5 0 .8-.4.8-.8.1-2.1-2.9-3.1-6.7-4.1zm-22.4-6.6h-6.7c-.5 0-.8.4-.8.8v11.7c0 .5.4.8.8.8h6.7c.5 0 .8-.4.8-.8V47.5c0-.5-.3-.8-.8-.8z"/><path class="st1" d="M30.8 46.7h2.8c2.6 0 8.3 2.5 7.9 5h8.3c.2 0 .3 0 .5.1 5.7-2.7 9.6-8.4 9.6-15.1C60 27.5 52.5 20 43.3 20s-16.7 7.5-16.7 16.7c0 3.8 1.3 7.3 3.4 10.1.3-.1.6-.1.8-.1zm10.9-18.4c0-.5.4-.8.8-.8s.8.4.8.8v8.3h7.5c.5 0 .8.4.8.8s-.4.8-.8.8h-8.3c-.5 0-.8-.4-.8-.8v-9.1z"/></svg>