<svg xmlns="http://www.w3.org/2000/svg" viewBox="0 0 40 40"><g data-name="Layer 2"><path data-name="&lt;Path&gt;" d="M40 20A20 20 0 1 1 20 0a20 20 0 0 1 20 20z" fill="#5f6e00"/><path d="M31.76 15.05a5.52 5.52 0 0 0-1-2.48 3.37 3.37 0 0 0-2.41-1.06C25 11.26 20 11.26 20 11.26s-5 0-8.4.25a3.37 3.37 0 0 0-2.41 1.06 5.65 5.65 0 0 0-.95 2.48A39.57 39.57 0 0 0 8 19.1V21a39.31 39.31 0 0 0 .24 4.05 5.67 5.67 0 0 0 .95 2.49 4 4 0 0 0 2.65 1.06c1.92.2 8.16.26 8.16.26s5 0 8.4-.26a3.41 3.41 0 0 0 2.41-1.06 5.54 5.54 0 0 0 1-2.49A39.31 39.31 0 0 0 32 21v-1.9a39.57 39.57 0 0 0-.24-4.05zM24 19.8l-6.49 3.5v-7l2.92 1.59z" fill="#dce169"/></g></svg>