<svg data-name="Layer 1" xmlns="http://www.w3.org/2000/svg" viewBox="0 0 440 267.81"><defs><clipPath id="a"><path fill="none" d="M0-1h441v269H0z"/></clipPath></defs><g clip-path="url(#a)"><path d="M409.77 103.8a3.14 3.14 0 0 0-.94.1 4.1 4.1 0 0 0-1.85.95 7.11 7.11 0 0 1-.62.51l-.23.15h-.08a.21.21 0 0 0-.11 0h-.12a3.45 3.45 0 0 0-.32.21c-.24.18-.54.42-.85.68-.62.51-2 1.59-3.09 2.37a16.6 16.6 0 0 0-1.45 1.18 4.31 4.31 0 0 0-.48.5 1 1 0 0 0-.24.38.66.66 0 0 1-.18.33.3.3 0 0 1-.19.13.59.59 0 0 0-.25.07 2.38 2.38 0 0 0-.31.17 5.59 5.59 0 0 0-.71.56 8.38 8.38 0 0 1-.65.54l-.25.16h-.1a.83.83 0 0 0-.46.2l-.56.42a5.6 5.6 0 0 0-.49.47 1.42 1.42 0 0 0-.17.21.37.37 0 0 0-.09.21.35.35 0 0 1-.08.19 2.78 2.78 0 0 1-.34.32 7.29 7.29 0 0 1-1.21.78 2.44 2.44 0 0 0-.65.48 1.16 1.16 0 0 0-.2.25.41.41 0 0 0 0 .27.58.58 0 0 1 0 .16 1.56 1.56 0 0 0-.93.12 4 4 0 0 0-.95.74 6.15 6.15 0 0 0-.57.65l-.18.25a.45.45 0 0 0-.07.23.79.79 0 0 1 0 .09.93.93 0 0 1-.13.23c-.11.15-.26.36-.41.55a3.31 3.31 0 0 0-.46.64 1.3 1.3 0 0 0-.2.58.31.31 0 0 1-.34.28.92.92 0 0 0-.8.62 2.6 2.6 0 0 1-.2.41 1.65 1.65 0 0 1-.18.23.28.28 0 0 0-.12.14l-.15.22c-.1.17-.23.41-.38.69-.31.56-.68 1.3-1 2s-.72 1.48-1 2.07c-.13.3-.24.54-.32.74a1.86 1.86 0 0 0-.08.26.53.53 0 0 0 0 .18 1.07 1.07 0 0 1-.12.35 2.65 2.65 0 0 1-.32.45.73.73 0 0 1-.62.32 8.44 8.44 0 0 1-1.8-.28 29.15 29.15 0 0 0-7.95-.86c-2.21 0-6 .08-9.4.2-1.7.06-3.32.14-4.58.2s-2.19.13-2.56.19c-.58.1-2 .24-3.23.3a19.49 19.49 0 0 0-6.35 1.41 1.51 1.51 0 0 1-.42.17h-.08s0-.07-.05-.08a.35.35 0 0 0-.17 0 .8.8 0 0 0-.32.12 1.6 1.6 0 0 1-.63.25l-.32.07-.58.16-1.7.5c-.61.19-1.23.35-1.71.45a4.18 4.18 0 0 1-.6.09 1.5 1.5 0 0 1-.28 0 1.63 1.63 0 0 1-.39-.37 5.9 5.9 0 0 1-.48-.74 7.79 7.79 0 0 0-1.51-1.92c-.53-.48-1.71-1.55-2.61-2.4-.47-.44-.89-.81-1.23-1.07a3.51 3.51 0 0 0-.43-.27.35.35 0 0 0-.16-.08h-.14l-.09-.06a1.4 1.4 0 0 1-.35-.37 6.06 6.06 0 0 0-1-.91c-.5-.38-1.13-.81-1.74-1.23s-1.25-.81-1.75-1.1a5.57 5.57 0 0 0-.68-.35 1 1 0 0 0-.43-.14.86.86 0 0 1-.53-.33 2 2 0 0 0-.57-.51c-.28-.18-.62-.39-1-.58a10.84 10.84 0 0 0-1-.51 2 2 0 0 0-.75-.24h-.17a1.5 1.5 0 0 1-.37-.13 10.57 10.57 0 0 1-1-.43 24.91 24.91 0 0 0-10.05-1.9c-.93 0-1.89 0-2.67.12a6.74 6.74 0 0 0-1.62.23 9.09 9.09 0 0 1-1.27.26c-.57.09-1.26.17-1.91.23a16 16 0 0 0-1.81.24 6.55 6.55 0 0 0-.65.17.88.88 0 0 0-.39.19 1.42 1.42 0 0 0-.29 1 22.83 22.83 0 0 0 .17 2.6c.27 2.67.42 4.13.54 5a4.61 4.61 0 0 0 .39 1.51 4.38 4.38 0 0 1 .3 1.58 3.72 3.72 0 0 0 .09.86 2.42 2.42 0 0 0 .1.32.46.46 0 0 0 .18.21.53.53 0 0 1 .16.25.83.83 0 0 1 .08.39 3 3 0 0 0 .16.79 8.44 8.44 0 0 0 .38 1c.14.33.28.64.37.89a3 3 0 0 1 .13.29 1 1 0 0 0 .05.14c0 .08.14.65.26 1.25a18.37 18.37 0 0 0 .88 2.63 42.86 42.86 0 0 1 1.61 4.15c.6 1.78 1.34 3.75 2.05 5.44a28 28 0 0 0 1.81 3.73c.26.39.5.77.68 1.06s.18.27.23.37l.11.17.06.1.12.11a3 3 0 0 0 .35.32c.28.26.66.57 1.06.9a7.14 7.14 0 0 1 1.1 1 1.31 1.31 0 0 1 .32.78 1.63 1.63 0 0 1-.06.49l-.05.13a.42.42 0 0 0-.29.12 1.76 1.76 0 0 0-.28.38c-.22.39-.56 1.06-1.13 2.25a42.21 42.21 0 0 0-2.2 6.24c-.3 1.09-.54 2.11-.68 2.91-.07.4-.12.74-.14 1a1 1 0 0 0 .09.62.34.34 0 0 1 0 .21.43.43 0 0 1-.13.27 1.3 1.3 0 0 0-.19.51 7.65 7.65 0 0 0-.18.89c-.12.71-.23 1.63-.33 2.68-.2 2.12-.36 4.71-.38 6.92a43.28 43.28 0 0 0 .74 6.54c.21 1.18.45 2.28.66 3.11a8.09 8.09 0 0 0 .32 1 1.48 1.48 0 0 0 .14.33.55.55 0 0 0 .17.2.66.66 0 0 1 .12.26 1.53 1.53 0 0 1 .07.51 2 2 0 0 0 .5 1.3 1.92 1.92 0 0 1 .43 1.14 2.13 2.13 0 0 0 .09.63.75.75 0 0 0 .28.45s.11.12.16.27a2.27 2.27 0 0 1 .08.54 2 2 0 0 0 .1.61.71.71 0 0 0 .27.43.8.8 0 0 1 .14.14c.06.08.15.2.23.33a9.2 9.2 0 0 1 .53 1c.59 1.19 1 1.93 1.26 2.39a3.08 3.08 0 0 0 .37.5.47.47 0 0 0 .35.17c.07 0 .15.08.15.21a.54.54 0 0 0 .09.26l.23.3c.18.22.43.47.68.72a8.24 8.24 0 0 0 .75.65 2.45 2.45 0 0 0 .31.23.82.82 0 0 0 .26.1.28.28 0 0 1 .1.06l.34.27c.26.22.62.53 1 .87s.71.64 1 .87l.36.27.13.08a.23.23 0 0 0 .14 0l.1.06.36.26c.28.21.64.52 1 .86a16.67 16.67 0 0 0 2.75 1.9 12.63 12.63 0 0 0 1.34.66 3.07 3.07 0 0 0 1 .26.84.84 0 0 1 .32.07.3.3 0 0 1 .08.07.35.35 0 0 0 .12.24 1.83 1.83 0 0 0 .24.19 6.15 6.15 0 0 0 .73.37 7.2 7.2 0 0 0 .81.29 1.39 1.39 0 0 0 .65.06.37.37 0 0 1 .19 0 .08.08 0 0 1 0 .08.27.27 0 0 0 .07.18l.15.11a3.61 3.61 0 0 0 .46.31c.38.23.91.53 1.52.84 1.2.61 2.68 1.3 3.81 1.74a3.4 3.4 0 0 1 1.9 2.76c1 6.17-3 27.91-3.58 32.58-.19 1.52-.5 4.22-.69 6-.44 4-.5 4.54-.71 5.7-.09.52-.24 1.77-.34 2.79s-.39 3.13-.65 4.71c-.14.79-.23 1.57-.3 2.16v.77a1.2 1.2 0 0 0 0 .45.43.43 0 0 1-.07.46c-.11.05-.14.15-.18.25s-.06.24-.09.4a6.06 6.06 0 0 0-.06 1.09 18.72 18.72 0 0 1-.11 2.65c-.09.68-.33 2.35-.52 3.7s-.36 4.25-.4 6.42a32.35 32.35 0 0 0 0 3.39 1.46 1.46 0 0 0 .56 1.09 1.56 1.56 0 0 0 .53.25.54.54 0 0 0 .22 0 .28.28 0 0 0 .18-.16.14.14 0 0 1 .06-.08.23.23 0 0 1 .11 0 .26.26 0 0 0 .28 0 .63.63 0 0 0 .18-.24 3 3 0 0 0 .24-.88 25 25 0 0 0 .29-3.3 81.52 81.52 0 0 1 .89-10.16c.11-.78.21-1.58.28-2.26a10.05 10.05 0 0 0 .08-1.47 4.28 4.28 0 0 1 0-.72 1.36 1.36 0 0 1 .11-.44.3.3 0 0 0 .06-.15c0-.06 0-.15.06-.23s.07-.42.11-.7c.07-.56.16-1.3.21-2.06a44.59 44.59 0 0 1 .65-4.93 21.42 21.42 0 0 0 .45-3.47 7.64 7.64 0 0 1 .26-2 7.52 7.52 0 0 0 .28-1.39c.08-.66.17-1.47.22-2.27s.12-1.55.18-2.1c0-.29.05-.51.07-.68a1 1 0 0 0 0-.2.59.59 0 0 0 .06-.16v-.24a5.68 5.68 0 0 0 .09-.76c.06-.61.13-1.42.18-2.32.11-1.79.19-3.91.19-5.4 0-2.63 4.14-18 3.25-24.93 0-.3-.05-.58-.06-.81s0-.21 0-.29a.31.31 0 0 1 0-.07h.11a4.25 4.25 0 0 1 .54.09c.45.09 1.06.24 1.72.44 5.7 1.69 11.22 1.34 16.44 2.55l4.6 1.72 1.78.64c.22.08.42.15.57.19l.3.1a2.82 2.82 0 0 1 .58.25 1.31 1.31 0 0 0 .35.11 3.85 3.85 0 0 0 .55.06h1.62a33.09 33.09 0 0 0 4-.27 7.44 7.44 0 0 0 2.86-.84 31 31 0 0 0 3.91-2.84c1.27-1 3-2.26 3.92-2.79a10.06 10.06 0 0 0 1.16-.78 3 3 0 0 0 .35-.31.47.47 0 0 0 .12-.13.23.23 0 0 0 .05-.15c0-.07.09-.15.23-.15a1 1 0 0 0 .25-.06l.39-.16 1.21-.54c1-.45 2.21-1.07 3.47-1.69s2.53-1.3 3.53-1.85a18.88 18.88 0 0 0 2-1.19 13 13 0 0 1 1.61-1 7.92 7.92 0 0 1 .87-.44 1.54 1.54 0 0 1 .3-.14h.12l.06.08c.05.1.12.26.19.44.13.37.29.88.44 1.45a87.05 87.05 0 0 0 5.17 14.46c1.42 2.6 2 3.37 5.17 6.57.43.43.82.88 1.11 1.22a5 5 0 0 1 .33.44c0 .06.06.1.07.13s0 .07 0 0a.52.52 0 0 0 .09.31.32.32 0 0 0 .27.15.24.24 0 0 1 .09.07l.28.29c.23.26.56.63.94 1.09.77.92 1.79 2.18 2.88 3.56 2.18 2.79 4.64 6.05 6 8 .93 1.36 2.56 3.55 3.62 4.88.53.66 1 1.29 1.36 1.77.18.24.32.44.41.58a1.07 1.07 0 0 1 .11.2s0 .08 0 0a.33.33 0 0 0 0 .15l.1.15c.08.11.17.25.3.42.26.32.61.72 1 1.15.76.82 1.82 2.08 2.35 2.79.27.36.55.69.77.94a2.61 2.61 0 0 0 .31.29l.12.09a.34.34 0 0 0 .14 0v.08a.5.5 0 0 0 .17.68s.08.06.16.17.2.28.33.47c.24.38.56.88.86 1.4a15 15 0 0 0 1.66 2.62.92.92 0 0 0 .6.29 1.55 1.55 0 0 0 .6-.13 1.41 1.41 0 0 0 .38-2.4 1.83 1.83 0 0 1-.31-.36.72.72 0 0 1-.1-.32.53.53 0 0 0-.11-.3 2.09 2.09 0 0 0-.23-.35 5.34 5.34 0 0 0-.77-.84 30.33 30.33 0 0 1-2.83-3.62c-.49-.74-1-1.43-1.37-1.95-.19-.26-.36-.49-.5-.65s-.13-.15-.17-.21a.45.45 0 0 0-.14-.1l-.08-.09-.17-.19c-.14-.16-.32-.37-.53-.64-.42-.52-.95-1.21-1.49-1.93-1.09-1.47-2.87-3.8-3.95-5.18-.53-.7-1-1.38-1.42-1.92-.21-.27-.35-.5-.48-.68a2.87 2.87 0 0 1-.21-.35 3.59 3.59 0 0 0-.33-.6l-.73-1c-.58-.82-1.36-1.85-2.17-2.92-1.64-2.16-3.48-4.47-4.43-5.53-.62-.68-1.43-1.61-1.79-2.05l-1.29-1.54a18.85 18.85 0 0 1-1.2-1.64c-.34-.53-1.34-1.86-2.24-3a19.36 19.36 0 0 1-1.16-1.55c-.15-.23-.26-.42-.35-.56a1.08 1.08 0 0 1-.12-.28 1.53 1.53 0 0 0-.16-.52 2.29 2.29 0 0 0-.33-.56 7.87 7.87 0 0 1-.43-.85c-.17-.4-.34-.84-.48-1.28a26 26 0 0 0-1-2.82 8.15 8.15 0 0 0-.42-.81 1.68 1.68 0 0 0-.19-.24.32.32 0 0 0-.23-.11.18.18 0 0 1 0-.08.23.23 0 0 0 0-.15.6.6 0 0 0 0-.19c0-.14 0-.32-.07-.53-.08-.41-.2-.93-.36-1.47a23 23 0 0 1-1.3-6.88c0 .05 0 0 .05 0a1.59 1.59 0 0 1 .16-.19c.15-.15.38-.35.64-.58.56-.48 1.31-1.08 2.13-1.71a84.25 84.25 0 0 0 8.19-7.57c1.35-1.4 2.58-2.75 3.46-3.83.44-.53.8-1 1.05-1.35a4 4 0 0 0 .28-.49.83.83 0 0 0 .12-.38.66.66 0 0 1 .12-.22 1.41 1.41 0 0 1 .32-.33 1.13 1.13 0 0 0 .32-.46.72.72 0 0 0 0-.5.5.5 0 0 1 0-.22.46.46 0 0 0 .2-.09l.2-.2a4.56 4.56 0 0 0 .39-.63c.12-.24.25-.46.35-.64a1.54 1.54 0 0 0 .14-.22.39.39 0 0 1 .09-.11.7.7 0 0 0 .12-.2 3.2 3.2 0 0 0 .19-.34l.47-1c.16-.35.32-.72.44-1a3.38 3.38 0 0 0 .13-.37.59.59 0 0 0 .07-.23.93.93 0 0 1 .05-.1c0-.09.09-.2.14-.33l.49-1a9.53 9.53 0 0 0 .49-1.1 3.08 3.08 0 0 0 .2-.86.84.84 0 0 1 .09-.4c0-.11.1-.17.12-.17a.39.39 0 0 0 .19-.17 1.68 1.68 0 0 0 .14-.3 8 8 0 0 0 .28-1c.19-.82.39-2 .58-3.35a30.08 30.08 0 0 0-2.69-17.27c-.82-1.6-1.74-3.4-2-4a25.7 25.7 0 0 0-1.41-2.37c-.23-.35-.44-.71-.6-1a3.52 3.52 0 0 1-.17-.35 1.44 1.44 0 0 0-.06-.16.52.52 0 0 0-.07-.22 1 1 0 0 0-.14-.23 3.32 3.32 0 0 0-.45-.5 2.63 2.63 0 0 1-.42-.47 1.11 1.11 0 0 1-.16-.35.67.67 0 0 0-.08-.29 3.42 3.42 0 0 0-.2-.36 7 7 0 0 0-.67-.86c-.26-.29-.48-.57-.65-.8a1.29 1.29 0 0 1-.19-.29v-.08a.17.17 0 0 0 0-.12.69.69 0 0 0-.06-.13l-.21-.3c-.18-.25-.43-.54-.69-.85a4.24 4.24 0 0 1-.62-.82h.12a.76.76 0 0 0 .52-.25 1.35 1.35 0 0 0 .36-.54 23.62 23.62 0 0 0 .69-4.46 34.08 34.08 0 0 0 .13-5.09c-.1-1.25-.24-5.65-.28-9.72 0-2-.06-3.94-.12-5.35 0-.7 0-1.27-.06-1.68v-.64a.19.19 0 0 0 0-.12.25.25 0 0 1 0-.07v-.18c0-.07-.07-.38-.11-.62-.07-.5-.14-1.14-.2-1.82a27.39 27.39 0 0 0-.9-4.49c-.21-.76-.45-1.48-.66-2a4.12 4.12 0 0 0-.62-1.21 22.77 22.77 0 0 1-1.52-1.91 9 9 0 0 1-.91-1.53 2.41 2.41 0 0 0-.68-1.07 1.25 1.25 0 0 0-.72-.26zm.23 4.2a.36.36 0 0 1 .14.12 2.92 2.92 0 0 1 .4.49 14.55 14.55 0 0 1 1 1.69c1.11 2.05 1.33 2.83 1.78 6A102.54 102.54 0 0 1 414 127c.06 3.81.17 8.25.26 9.87a25.33 25.33 0 0 1-.27 5.33 14.29 14.29 0 0 1-.61 2.85.34.34 0 0 1-.1.15.14.14 0 0 1-.09 0 1.55 1.55 0 0 1-.45-.19 6.17 6.17 0 0 1-.53-.32 1.6 1.6 0 0 1-.28-.22.83.83 0 0 0-.19-.18c-.09-.09-.21-.18-.35-.3-.29-.21-.65-.49-1-.76a39.08 39.08 0 0 1-3.23-2.74 22.86 22.86 0 0 0-3.94-2.93 13.44 13.44 0 0 1-1.47-1 5.49 5.49 0 0 1-.46-.4 1.13 1.13 0 0 1-.17-.23v-1.41c0-.78.06-1.79.13-2.82.22-3.94.87-7.74 1.6-9.41.24-.56.82-2 1.27-3.33s1.31-3.3 1.89-4.52c.28-.62.55-1.2.75-1.66.09-.22.18-.41.23-.55a.76.76 0 0 0 .07-.19.3.3 0 0 0 0-.12.94.94 0 0 0 .06-.12 1.64 1.64 0 0 1 .16-.24c.14-.19.32-.44.51-.67a5.52 5.52 0 0 0 .54-.74 1.32 1.32 0 0 0 .24-.58 1.16 1.16 0 0 1 .17-.43 3.35 3.35 0 0 1 .42-.55 3 3 0 0 1 .5-.46.76.76 0 0 1 .34-.13zm-4.27.87v.06a2.24 2.24 0 0 1-.1.42l-.3.74c-.24.58-.58 1.28-.95 2s-.69 1.4-.9 1.92c-.1.27-.19.49-.24.66s0 .15-.06.21a.22.22 0 0 0 0 .2h-.06a.32.32 0 0 0-.3.24.63.63 0 0 0 0 .4.52.52 0 0 1 0 .26.41.41 0 0 0-.33.19 3.45 3.45 0 0 0-.35.57c-.26.54-.64 1.46-1.22 2.94a42.18 42.18 0 0 0-2.36 13.47 11.06 11.06 0 0 1-.06 1.26c0 .18-.05.31-.07.41a.81.81 0 0 1 0 .11h-.07l-.28-.07c-.24-.07-.58-.2-1-.38-.86-.36-2.08-1-3.65-1.74a27.64 27.64 0 0 0-3.85-1.56 12.19 12.19 0 0 0-3.11-.7 1.38 1.38 0 0 1-.4 0 .23.23 0 0 1 0-.14 13.08 13.08 0 0 1 .78-2.33 26.66 26.66 0 0 1 7.54-10.1c2.61-2.18 3.64-3.07 5.21-4.5.25-.22.52-.43.72-.58l.26-.18h.11a.7.7 0 0 0 .36-.15 2 2 0 0 0 .4-.32 9.76 9.76 0 0 1 .81-.62c.4-.27.87-.6 1.34-.9a12.76 12.76 0 0 0 1.33-1 3.33 3.33 0 0 0 .76-.73.33.33 0 0 1 0-.06zM311 119.9a17.3 17.3 0 0 1 2 0c1.8.09 2.81.14 3.34.2a2 2 0 0 1 .44.07v.07a.43.43 0 0 0 0 .07l.12.07a2.18 2.18 0 0 0 .36.15c.31.1.74.21 1.22.32a25.48 25.48 0 0 1 3.39 1 11.24 11.24 0 0 1 2.42 1.19 5.27 5.27 0 0 0 1.65.76 2.87 2.87 0 0 1 .71.25 2.14 2.14 0 0 1 .48.34 1.26 1.26 0 0 0 .39.34 1 1 0 0 0 .43.15 1.82 1.82 0 0 1 .59.26c.28.19.66.46 1.08.78.85.66 1.89 1.54 2.94 2.48s2.09 1.94 2.92 2.8a12.37 12.37 0 0 1 1.67 2 2.64 2.64 0 0 1 .39 1.06c0 .21-.07.3-.3.45a30.27 30.27 0 0 1-2.72 1.61 37.62 37.62 0 0 0-3.47 2.26 13.51 13.51 0 0 1-1.76 1.13.9.9 0 0 1-.4.12.33.33 0 0 1-.23-.09 1.3 1.3 0 0 1-.28-.34.89.89 0 0 1-.12-.33 1 1 0 0 0-.44-.77.73.73 0 0 1-.2-.22 4.48 4.48 0 0 1-.34-.51c-.26-.4-.57-.92-.86-1.47-.47-.92-1-1.83-1.44-2.57a8.91 8.91 0 0 0-1.06-1.48s-.17-.19-.33-.41-.34-.46-.52-.73l-.48-.7c-.06-.1-.12-.18-.15-.24a.67.67 0 0 0 0-.07.18.18 0 0 0-.05-.07l-.19-.21c-.14-.16-.37-.39-.63-.67-.53-.55-1.27-1.28-2-2-1.5-1.49-3.1-3.06-3.57-3.46a27.54 27.54 0 0 0-4.95-3 2.42 2.42 0 0 1-.57-.29.31.31 0 0 1-.06-.06h.12c.12 0 .29 0 .52-.08zm6 .36zm-10.3 1.32a10.82 10.82 0 0 1 1.6.19 2.32 2.32 0 0 1 .47.18l.11.07a.18.18 0 0 0 .06.14.52.52 0 0 0 .11.1 2.75 2.75 0 0 0 .33.21 8.36 8.36 0 0 0 1.05.46c.39.16.81.33 1.14.5a3.06 3.06 0 0 1 .66.4 12.18 12.18 0 0 0 1.44 1 14.18 14.18 0 0 1 1.53 1.38c.74.73 1.66 1.66 2.59 2.65 1.88 2 3.86 4.17 4.69 5.27a18 18 0 0 1 1.06 1.71c.45.81 1 1.79 1.47 2.76l1.26 2.49c.15.33.29.6.38.79a1.47 1.47 0 0 0 .11.22l-.14.12c-.13.1-.31.23-.5.35a11 11 0 0 0-1.56 1.37c-1.39 1.48-2.2 2.38-2.69 2.95s-.65.79-.65 1a.38.38 0 0 1 0 .12 1.76 1.76 0 0 1-.15.23 5.73 5.73 0 0 1-.49.55 15.22 15.22 0 0 0-1.57 2c-.7 1-1.58 2.27-2.54 3.7a2.59 2.59 0 0 1-.32-.15c-.25-.15-.6-.37-1-.63s-.72-.53-1-.78a4.67 4.67 0 0 1-.64-.64 24.24 24.24 0 0 1-2.78-5.91c-.15-.53-.31-1.06-.46-1.48a5.46 5.46 0 0 0-.35-.86 1.86 1.86 0 0 1-.15-.33c-.07-.16-.17-.38-.27-.64-.19-.51-.43-1.16-.67-1.83s-.47-1.3-.69-1.81a9.6 9.6 0 0 0-.28-.65 1.77 1.77 0 0 0-.2-.36 2.72 2.72 0 0 1-.28-.59 7.09 7.09 0 0 1-.3-1c-.17-.67-.59-2.19-.93-3.38-1.39-4.85-1.57-5.66-1.88-8.59-.13-1.25-.2-2.36-.2-2.87a1 1 0 0 1 0-.19.86.86 0 0 1 .32-.15 6 6 0 0 1 .64-.13 13.49 13.49 0 0 1 1.7 0zm64.05 9.86c1.33 0 2.57 0 3.66.06s2 .11 2.78.2a5.86 5.86 0 0 1 1.51.34 6.8 6.8 0 0 0 1.44.42c.5.08 1.89.35 3.08.58.59.12 1.23.21 1.76.28a9.33 9.33 0 0 0 1.2.08 2.56 2.56 0 0 1 .62 0 1.37 1.37 0 0 1 .38.11 1.14 1.14 0 0 0 .33.15l.56.15c.45.12 1 .23 1.62.34a12.72 12.72 0 0 1 1.72.41 4.45 4.45 0 0 1 1.15.48 11.35 11.35 0 0 0 1.91 1 6.89 6.89 0 0 1 1.49.76 4.32 4.32 0 0 0 1.29.64 24.3 24.3 0 0 1 4.27 2.22 34.05 34.05 0 0 1 4.43 3.2 5.94 5.94 0 0 0 .74.57 2.5 2.5 0 0 0 .3.14.29.29 0 0 0 .27 0h.06a.75.75 0 0 1 .15.3 1.94 1.94 0 0 0 .22.36 5.11 5.11 0 0 0 .42.48c.33.35.75.76 1.19 1.14 3.24 2.76 4.58 4.12 5.22 5.26a7.91 7.91 0 0 0 .55.85c.08.11.16.19.22.26a.44.44 0 0 0 .11.09.23.23 0 0 0 .14 0l.09.11a1 1 0 0 1 .17.35 3.08 3.08 0 0 0 .4.68c.21.27.44.57.68.83a9.26 9.26 0 0 1 1 1.41c.39.64.81 1.39 1.16 2.1.71 1.45 1.86 3.66 2.55 4.94a20.38 20.38 0 0 1 1.84 5c1.36 6.12.89 12.72-1.23 17.23-.47 1-1.19 2.61-1.59 3.55a12 12 0 0 1-.62 1.29 4 4 0 0 1-.45.69 1.62 1.62 0 0 0-.32.38.94.94 0 0 0-.14.43.35.35 0 0 1 0 .17h-.05a.33.33 0 0 0-.23.12l-.19.23a4.77 4.77 0 0 0-.38.72c-.8 1.81-3.11 4.57-6.15 7.47a81.4 81.4 0 0 1-10.48 8.44c-2.08 1.39-3.27 2.19-4 2.69s-.9.67-1 .85a.43.43 0 0 1-.3.15 1 1 0 0 0-.29.08l-.4.2c-.3.17-.69.41-1.06.66a9.26 9.26 0 0 1-2.17 1.11 10.54 10.54 0 0 0-1.38.51c-.62.25-1.38.58-2.1.92-1.44.67-2.95 1.35-3.31 1.49a1.75 1.75 0 0 0-.52.31.53.53 0 0 0-.26.4.16.16 0 0 1-.07.11.33.33 0 0 1-.23.07.72.72 0 0 0-.35.13l-.46.3a14.5 14.5 0 0 0-1.19 1c-.42.37-.87.76-1.29 1.07a6.15 6.15 0 0 1-1 .68 13.54 13.54 0 0 0-2.1 1.58 10.44 10.44 0 0 1-1 .8 4.53 4.53 0 0 1-.42.25.81.81 0 0 1-.23.07.65.65 0 0 0-.4.12.41.41 0 0 0-.2.33.17.17 0 0 1 0 .1h-.89c-.43 0-1 .07-1.62.13a14.76 14.76 0 0 1-7.19-1.19 5.58 5.58 0 0 0-.72-.31 1.86 1.86 0 0 0-.61-.14 4.14 4.14 0 0 1-.68-.17c-.31-.11-.71-.26-1.07-.42-6.61-2.33-15-.48-21.24-4.33a23.55 23.55 0 0 0-2.71-1.34c-.53-.23-1-.43-1.45-.59a4.76 4.76 0 0 0-.53-.18 1.52 1.52 0 0 0-.35-.07.92.92 0 0 1-.68-.34 1.94 1.94 0 0 0-.59-.49 5.73 5.73 0 0 0-1-.51l-4-1.89c-1.53-.71-3.2-1.46-3.74-1.67a6.82 6.82 0 0 1-1.95-1.4 7.07 7.07 0 0 0-.85-.76 2 2 0 0 0-.35-.24.6.6 0 0 0-.3-.1h-.05l-.16-.11a3.88 3.88 0 0 1-.5-.39c-.39-.33-.89-.78-1.4-1.3s-1-1-1.38-1.3a6.16 6.16 0 0 0-.5-.41 1.2 1.2 0 0 0-.17-.11.28.28 0 0 0-.16 0 .85.85 0 0 1-.28-.15 4.85 4.85 0 0 1-.43-.45 7.76 7.76 0 0 1-1-1.45 4.1 4.1 0 0 0-.48-.72 1.38 1.38 0 0 0-.55-.43.51.51 0 0 1-.22-.17v-.14a.45.45 0 0 0 0-.28 1.42 1.42 0 0 0-.08-.31 3.7 3.7 0 0 0-.42-.77 4 4 0 0 1-.43-.73 1.5 1.5 0 0 1-.18-.5 2.42 2.42 0 0 0-.11-.59c-.07-.27-.16-.57-.26-.88a8.9 8.9 0 0 0-.61-1.48 3.36 3.36 0 0 1-.19-.5 8.58 8.58 0 0 1-.21-.84 7.37 7.37 0 0 0-.58-1.74 3.64 3.64 0 0 1-.36-1c0-.28-.23-1.3-.44-2.32a34.54 34.54 0 0 1-.48-5.93 54.14 54.14 0 0 1 .31-6.91c.31-2.61.71-5.19 1.09-7.14.19-1 .37-1.81.54-2.39a6.66 6.66 0 0 1 .24-.72c.06-.15.14-.26.12-.25a.67.67 0 0 0 .25-.39 2.35 2.35 0 0 0 .08-.6 3.89 3.89 0 0 1 .26-1c.17-.44.39-1 .63-1.43s.48-.92.64-1.25c.08-.16.14-.3.18-.39v-.19a.64.64 0 0 1 .06-.1c.05-.11.14-.25.24-.42l.86-1.33c.7-1 1.59-2.47 2-3.24a13.79 13.79 0 0 1 1.54-2.24 21.68 21.68 0 0 0 1.85-2.65 19.34 19.34 0 0 1 1.62-2c.78-.88 1.72-1.92 2.66-2.9s1.86-1.91 2.58-2.59c.36-.34.68-.61.91-.81l.3-.22c.07 0 .14-.05.11-.05a.3.3 0 0 0 .15 0l.15-.08c.12-.07.27-.18.44-.3a15.36 15.36 0 0 0 1.23-1 18.27 18.27 0 0 1 3.17-2.1 11.48 11.48 0 0 0 1.26-.69 3.51 3.51 0 0 0 .79-.6 1.41 1.41 0 0 1 .4-.32.84.84 0 0 1 .39-.13 1.85 1.85 0 0 0 1.05-.43 5.12 5.12 0 0 1 .81-.43c.38-.17.87-.35 1.33-.5.93-.31 2-.67 2.32-.82l2.14-.74 1.28-.42a4.43 4.43 0 0 1 .72-.2l2.48-.55a106.21 106.21 0 0 1 15.51-1.38c1.45 0 2.87-.07 4.21-.07zm18.36 27.95a.68.68 0 0 0-.29.05l-.19.05a4.08 4.08 0 0 1-.49.07c-.39 0-.9.07-1.43.08a6.92 6.92 0 0 0-4 1.22 9.31 9.31 0 0 0-2.74 3.7l-.9 1.85a15 15 0 0 0-.88 3 24.28 24.28 0 0 0-.56 3.57 7.19 7.19 0 0 1-.12 1 2.67 2.67 0 0 1-.09.29v.05a.24.24 0 0 0-.1 0 .36.36 0 0 0-.07.1 1 1 0 0 0-.09.26 3.31 3.31 0 0 0-.08.77 2.25 2.25 0 0 0 .22 1 3.77 3.77 0 0 0 .91 1 4.16 4.16 0 0 0 1.36.8 10.24 10.24 0 0 0 2.06.33 15.76 15.76 0 0 0 12-3.92 11.54 11.54 0 0 1 1-.81c.14-.1.26-.19.35-.24l.18-.08a.92.92 0 0 0 .44-.15 3.55 3.55 0 0 0 .52-.42 12.66 12.66 0 0 0 1.27-1.37 20.52 20.52 0 0 0 2.48-3.71c.95-1.92 1.24-2.81 1.1-3.57a4.37 4.37 0 0 0-1.55-2.38 6.26 6.26 0 0 0-2.8-1.49l-2.05-.46c-1.08-.23-2.43-.44-3.54-.59-.55-.06-1-.12-1.41-.14a4.07 4.07 0 0 0-.48 0zm2.54 3a4.4 4.4 0 0 1 1.28.22c.61.17 1.43.42 2.47.77.64.2 1.25.44 1.74.64.24.1.46.19.62.27s.27.15.3.16a1.32 1.32 0 0 1 .24.29.71.71 0 0 1 .07.27 5.23 5.23 0 0 1-.61 1.62 16.38 16.38 0 0 1-1.33 2.1 25.34 25.34 0 0 1-2.7 2.66c-.54.48-1.07.91-1.5 1.22a5.38 5.38 0 0 1-.53.37 1.37 1.37 0 0 1-.24.12.38.38 0 0 0-.19 0 1.2 1.2 0 0 0-.21.13 4 4 0 0 0-.5.39 9.74 9.74 0 0 1-2 1.12 22.86 22.86 0 0 1-2.87 1.1 8 8 0 0 1-3 .16c-1-.11-2.12-.21-2.44-.21a.62.62 0 0 1-.22 0 .18.18 0 0 1-.11-.1 1.76 1.76 0 0 1-.11-.81v-1.16a18.73 18.73 0 0 1 .63-3.17c.16-.58.33-1.14.48-1.56a5.18 5.18 0 0 1 .22-.5c.05-.11.09-.16.09-.17h.09a3.08 3.08 0 0 1 .33.22 10.52 10.52 0 0 1 1 .9 8.08 8.08 0 0 0 3 2 4.88 4.88 0 0 0 1.66.47 4.43 4.43 0 0 0 1.6-.42 5.3 5.3 0 0 0 3.63-3.63 5.66 5.66 0 0 0-.65-4.44 2.84 2.84 0 0 1-.38-.84v-.13a.36.36 0 0 1 .2-.07zm-3.18.76a1.7 1.7 0 0 1 1.27.49 2.1 2.1 0 0 1-.3 3.29c-.8.86-2-.08-2.31-1-.29-1 .07-2.68 1.34-2.83zm-50.36 3.08a14.64 14.64 0 0 0-1.67.07 6 6 0 0 0-2.23.76c-.48.23-1 .47-1.49.64a6.69 6.69 0 0 1-1.1.34 7.6 7.6 0 0 0-1.92.47 1.52 1.52 0 0 0-.76.89 2.21 2.21 0 0 0-.11.81v.08a15.85 15.85 0 0 0 1.52 4.7 13.5 13.5 0 0 0 6.07 6c1.82.85 2.9 1.34 3.59 1.61a3.41 3.41 0 0 0 1.36.34 1.19 1.19 0 0 1 .44.1.65.65 0 0 1 .29.19.52.52 0 0 0 .37.2 3.06 3.06 0 0 0 .7.08c.6 0 1.46 0 2.63-.08 3.13-.19 3.61-.31 5.8-1.43a17.89 17.89 0 0 0 6.21-4.76.67.67 0 0 0 .08-.54 2 2 0 0 0-.21-.62 2.23 2.23 0 0 0-.38-.55.75.75 0 0 0-.5-.25 1.3 1.3 0 0 1-.17-.15 2.43 2.43 0 0 1-.26-.46c-.63-1.65-2.29-3.36-5-5.17-.77-.53-1.52-1-2.09-1.35a9.85 9.85 0 0 0-.7-.42l-.23-.12a.53.53 0 0 0-.18 0 .18.18 0 0 1-.18-.15.49.49 0 0 0-.14-.32 1.14 1.14 0 0 0-.36-.21 5.28 5.28 0 0 0-1.32-.32 42.63 42.63 0 0 0-5.26-.31h-2.86zm-1.9 2.86a2.46 2.46 0 0 1 .06.4v1.38a7 7 0 0 0 1.06 4.22 7.79 7.79 0 0 0 3.72 2.54c1.54.61 2.67.49 4.63-.43a3.93 3.93 0 0 0 2.42-2.32 8 8 0 0 0 .65-2.8v-.71a1.44 1.44 0 0 1 0-.24 2.44 2.44 0 0 1 .34.21 3.51 3.51 0 0 0 .6.33 1.44 1.44 0 0 0 .53.14 1.48 1.48 0 0 1 .6.23 5.8 5.8 0 0 1 .86.63 9.21 9.21 0 0 1 1.65 1.79 4.83 4.83 0 0 1 .91 1.94 1 1 0 0 1-.14.59 2.5 2.5 0 0 1-.56.59 6.94 6.94 0 0 1-.72.55l-.27.15-.11.06a.73.73 0 0 0-.38.12 3.15 3.15 0 0 0-.39.3 5.53 5.53 0 0 1-1.64.94 15.57 15.57 0 0 1-2.62.8 8.54 8.54 0 0 1-3.81 0 25.25 25.25 0 0 1-7.1-2.5 11.49 11.49 0 0 1-4.4-6.3 1.48 1.48 0 0 1-.05-.43.4.4 0 0 1 .16-.34 3.24 3.24 0 0 1 .67-.32 21.12 21.12 0 0 0 2.17-1l.84-.42.28-.12zm8.61.57a1.7 1.7 0 0 1 1.27.49 2.11 2.11 0 0 1-.29 3.3c-.8.86-2-.09-2.32-1-.29-1 .07-2.68 1.34-2.83zm26.4 16.18a5 5 0 0 0-2.16.51c-2.75 1.33-4 1.61-8.58 1.85-1.87.1-3 .18-3.8.3a2.5 2.5 0 0 0-1.45.53 2.27 2.27 0 0 0-.64 1.57 2.57 2.57 0 0 0 .45 1.71 2.51 2.51 0 0 1 .45 1.18 1.75 1.75 0 0 0 .2.74 3.74 3.74 0 0 0 .47.8 14.81 14.81 0 0 0 1.28 1.28c.61.56 1.34 1.2 2.07 1.83s1.44 1.21 2 1.65l.7.53.25.14a.27.27 0 0 0 .19.07h.07a.63.63 0 0 1 .18.12 2.56 2.56 0 0 1 .42.4 2.82 2.82 0 0 0 .79.56 5 5 0 0 0 1.12.46c.36.11.73.24 1 .35a4.26 4.26 0 0 1 .63.3 1.19 1.19 0 0 1 .24.59 7.57 7.57 0 0 1 .09 1.15 5.67 5.67 0 0 1-.42 2.25 10.73 10.73 0 0 1-2.61 2.72 14.62 14.62 0 0 1-1.66 1.14 2.89 2.89 0 0 1-1.16.45 3 3 0 0 0-1.2.34 9.17 9.17 0 0 1-2.7.54c-1.33.12-3 .19-4.77.18-2.5 0-3.32-.15-4.42-.69a6.21 6.21 0 0 1-3.09-2.5 7.06 7.06 0 0 1-1.36-2.51 7.42 7.42 0 0 1 .07-2.91 14.35 14.35 0 0 1 .8-2.94 5.12 5.12 0 0 1 .49-.95.94.94 0 0 1 .21-.25.21.21 0 0 1 .12-.06.37.37 0 0 0 .29-.19.74.74 0 0 0 .08-.34.36.36 0 0 1 .15-.24 2.42 2.42 0 0 1 .55-.34 14.11 14.11 0 0 1 2.2-.74 7.33 7.33 0 0 0 1-.32 1.21 1.21 0 0 0 .53-.36.61.61 0 0 0 0-.53 2 2 0 0 0-.44-.55 2.08 2.08 0 0 0-1.52-.65 5.34 5.34 0 0 0-2.13.57 8.51 8.51 0 0 0-4.4 5.1 8.33 8.33 0 0 0-.8 3.44v1.46a14.14 14.14 0 0 0 .21 2 1.57 1.57 0 0 0 .41 1 3.93 3.93 0 0 1 .82 1.11c.75 1.45 1.8 2.32 4.23 3.57l2.37 1.19h.05l4.24.07c1.16 0 2.27 0 3.11.07s1.42 0 1.51 0 .1.06.17.2a1.59 1.59 0 0 1 .1.55 1.64 1.64 0 0 0 .58 1.16 18.87 18.87 0 0 0 2.27 1.78c3.45 2.49 5.75 3.23 9.5 3.05 2.43-.1 2.64-.18 4.7-1.65.59-.42 1.13-.82 1.54-1.14.21-.16.37-.3.5-.42l.16-.14a.36.36 0 0 0 .08-.12s0-.09.14-.2a3.6 3.6 0 0 1 .32-.43c.25-.35.6-.78 1-1.24a18 18 0 0 0 2.83-4.31 1.08 1.08 0 0 1 .19-.34.31.31 0 0 1 .16-.11.42.42 0 0 0 .16 0 .85.85 0 0 0 .22-.08l.7-.28c.58-.25 1.32-.59 2.11-1a10.29 10.29 0 0 0 3.65-2.38c.42-.55 1.08-1.39 1.45-1.85a16 16 0 0 0 1.47-2.39 6.9 6.9 0 0 0 .81-3.45c0-3.37-1.09-5.83-3.23-7.12-.28-.16-.54-.33-.74-.47s-.19-.15-.26-.19a.72.72 0 0 1-.12-.11 2.53 2.53 0 0 0-1.32-.62 13.23 13.23 0 0 0-2.2-.34 10 10 0 0 0-4.14.3 2.67 2.67 0 0 0-1 1.05 2.79 2.79 0 0 0-.49 1.39.59.59 0 0 0 .18.47.71.71 0 0 0 .47.17 2.89 2.89 0 0 0 1.46-.39 6.69 6.69 0 0 1 3.53-.29 7 7 0 0 1 3.35 1.29 5 5 0 0 1 1.8 6 11 11 0 0 1-1.72 3 11.35 11.35 0 0 1-2.45 2.52 14.2 14.2 0 0 1-7.12 2.06 18.06 18.06 0 0 1-2.84-.15 4.88 4.88 0 0 1-.92-.19 1 1 0 0 1-.45-.22.9.9 0 0 0-.17-.14l-.28-.18c-.24-.14-.53-.31-.82-.45a6.26 6.26 0 0 1-2.27-1.61 5 5 0 0 1-.78-2.47 7.5 7.5 0 0 1-.15-2.06 3 3 0 0 1 .76-1.26c.26-.33.51-.64.68-.91s.14-.25.2-.33l.06-.13a.35.35 0 0 0 0-.11.25.25 0 0 1 0-.11 1.48 1.48 0 0 1 .11-.22 6.9 6.9 0 0 1 .39-.64 16.92 16.92 0 0 0 1.69-3.85 15.71 15.71 0 0 0 .85-4 4.62 4.62 0 0 0-.34-2 2.51 2.51 0 0 0-1.25-1.14 4.46 4.46 0 0 0-2.08-.57zm.16 2.77a1.81 1.81 0 0 1 .41.14 1 1 0 0 1 .53.43 1.48 1.48 0 0 1 .13.79 16.57 16.57 0 0 1-2.06 6.35 15.57 15.57 0 0 1-1.48 2.26 3.12 3.12 0 0 1-1.3.84 2.17 2.17 0 0 1-1.88.05 14.87 14.87 0 0 1-3.07-2.12c-1.19-.95-2.55-2-3-2.26a4.75 4.75 0 0 1-1.36-1.44 4.92 4.92 0 0 1-.76-1.75.92.92 0 0 1 0-.3.45.45 0 0 1 .15-.27.92.92 0 0 1 .46-.18 25.49 25.49 0 0 1 3.15-.24c1 0 2-.12 2.69-.2l.87-.12.27-.06h.09a.13.13 0 0 0 .09-.06l.1-.07a1 1 0 0 1 .23-.08 3.29 3.29 0 0 1 .69-.12 6.71 6.71 0 0 0 1.25-.29c.52-.16 1.12-.38 1.66-.61a8.36 8.36 0 0 1 1.69-.59 1.69 1.69 0 0 1 .49 0zm8.42 7.39c-.37 0-.67.34-.87.87a1.9 1.9 0 0 0-.1.46c0 .05.06.07.07.11a1.26 1.26 0 0 0 .61 1.13 1.28 1.28 0 0 0 1.46-.33 2.32 2.32 0 0 0 .27-.33.52.52 0 0 0 .1-.36 2 2 0 0 0-.47-.89c-.34-.48-.7-.75-1.06-.72zm-27.2 2.44s-.05 0-.07.05l-.41.77a1.66 1.66 0 0 0-.26.77 1 1 0 0 0 .26.61 1.19 1.19 0 0 0 .82.5 1.14 1.14 0 0 0 .87-.39 1.36 1.36 0 0 0 .3-.36.55.55 0 0 0 .06-.38c-.06-.27-.29-.49-.71-.88l-.72-.67a.09.09 0 0 0-.1 0zm32.89 0a1.19 1.19 0 0 0-.6.09 1.12 1.12 0 0 0-.62 1 .2.2 0 0 0 0 .07 1.81 1.81 0 0 0 .21.86 1.18 1.18 0 0 0 2.23-.76 1.43 1.43 0 0 0-.56-1 1.67 1.67 0 0 0-.68-.25zm-3.13 4a1.27 1.27 0 0 0-1.38.89.13.13 0 0 0-.1.09 1 1 0 0 0 .24.85 1.63 1.63 0 0 0 1.18.51 1.51 1.51 0 0 0 .61-.08.67.67 0 0 0 .41-.38 1.63 1.63 0 0 0 .16-.9 1.15 1.15 0 0 0-.44-.69 1.41 1.41 0 0 0-.66-.3zm-33.69.57a1.56 1.56 0 0 0-1.2.53.91.91 0 0 0-.22.48.14.14 0 0 0-.05.08 1 1 0 0 0 .18.6 1.34 1.34 0 0 0 1 .66 1.14 1.14 0 0 0 1-.47c.23-.33.36-.47.39-.66a.62.62 0 0 0 0-.3c0-.09-.08-.2-.14-.36a1 1 0 0 0-1-.56zm5.75 2.62a1.43 1.43 0 0 0-1.19.6.84.84 0 0 0-.13.54.14.14 0 0 0 0 .11 1.58 1.58 0 0 0 .49.69 1.31 1.31 0 0 0 1.31.49.73.73 0 0 0 .46-.46 2 2 0 0 0 0-.87 1.73 1.73 0 0 0-.24-.89.87.87 0 0 0-.72-.23zm15 2.51l1.35.68a7.79 7.79 0 0 1 1 .56 1.8 1.8 0 0 1 .3.22.23.23 0 0 1 .07.07.3.3 0 0 0 .1.21.7.7 0 0 0 .18.12 3.88 3.88 0 0 0 .5.25 3.17 3.17 0 0 0 .5.16.74.74 0 0 0 .21 0h.11l.14.06a6.39 6.39 0 0 1 .57.34 6.88 6.88 0 0 0 3.61.84.89.89 0 0 1 .45.1.12.12 0 0 1 0 .1.43.43 0 0 1 0 .19 9.81 9.81 0 0 1-1.34 2.21 11.8 11.8 0 0 1-3.46 3.34 3.28 3.28 0 0 1-1.35.63 15.59 15.59 0 0 1-2.59.22 12 12 0 0 1-3.8-.26 6.68 6.68 0 0 0-.74-.26l-.29-.07a.72.72 0 0 0-.21 0 .16.16 0 0 1 0-.11.43.43 0 0 0-.2-.34.92.92 0 0 0-.41-.1 1.3 1.3 0 0 1-.33-.11 6.23 6.23 0 0 1-.58-.29c-.45-.24-1-.57-1.49-.91a16.46 16.46 0 0 1-1.33-1c-.18-.14-.31-.27-.41-.36a.4.4 0 0 1-.07-.12h.05a1.83 1.83 0 0 1 .22-.13 4.12 4.12 0 0 1 .76-.21 12.68 12.68 0 0 0 2-.56 24.6 24.6 0 0 0 3-1.76c.57-.38 1.1-.76 1.51-1.06a5.83 5.83 0 0 0 .46-.38.7.7 0 0 0 .15-.15s.08-.06.08-.16v-.08a2.72 2.72 0 0 1 .15-.25c.13-.19.3-.43.5-.67zm4.37 2.11zM243.43 10.67a6.75 6.75 0 0 0-3.11 1.07 40.06 40.06 0 0 0-6 5 63.28 63.28 0 0 0-6.16 6.59c-.68.9-1.85 2.31-2.59 3.14-.92 1-1.52 1.72-1.89 2.2s-.54.74-.54 1a.36.36 0 0 1-.2.28.21.21 0 0 0-.1.06l-.12.11-.32.35c-.24.27-.53.63-.82 1s-.56.73-.76 1c-.11.15-.2.28-.26.38l-.07.13a.24.24 0 0 0 0 .12v.09l-.15.29c-.14.24-.32.54-.52.86-.41.64-1.21 2.09-1.8 3.21s-1.21 2.26-1.35 2.49a37.25 37.25 0 0 0-2.08 4.45c-.83 2-1.68 4.25-2.28 6.09-.39 1.17-.76 2.28-1 3.14s-.48 1.46-.52 1.57a3.25 3.25 0 0 0-.21.76c-.17 1.19-.58 3.83-1.06 6.89a53 53 0 0 0-.59 13.33c.09 1 .16 1.91.2 2.58v1.03h-.05l-.21.07c-.17.06-.39.12-.62.18l-.42.09h-.19a.44.44 0 0 1 .05-.18 1.65 1.65 0 0 0 0-.66 4.37 4.37 0 0 0-.13-.86c-.14-.56-.46-1.82-.7-2.8-.12-.5-.24-1-.32-1.29 0-.17-.08-.31-.11-.41a1 1 0 0 1 0-.12.42.42 0 0 0 0-.06v-.27c0-.17-.08-.4-.13-.65a2.44 2.44 0 0 0-.21-.66.91.91 0 0 0-.13-.22.27.27 0 0 0-.19-.11.45.45 0 0 1 0-.26.54.54 0 0 0-.3-.73.73.73 0 0 1-.24-.3A1.49 1.49 0 0 1 205 70a2.25 2.25 0 0 0-.14-.63.6.6 0 0 0-.3-.38s-.12-.08-.18-.19a1 1 0 0 1-.08-.39 1.4 1.4 0 0 0-.07-.44.83.83 0 0 0-.09-.16.25.25 0 0 0-.16-.08.49.49 0 0 1-.08-.1 3.55 3.55 0 0 1-.25-.41c-.2-.34-.44-.83-.68-1.36s-.48-1-.67-1.37c-.1-.18-.18-.32-.25-.43l-.1-.12h-.06a1.83 1.83 0 0 1-.16-.22 5.41 5.41 0 0 1-.44-.72 6.94 6.94 0 0 0-.49-.77 1.2 1.2 0 0 0-.21-.23.31.31 0 0 0-.21-.11h-.07a.15.15 0 0 1 0-.1.23.23 0 0 0 0-.18 1.86 1.86 0 0 0-.09-.24c-.1-.17-.25-.4-.46-.69-.41-.56-1.06-1.38-2-2.47a6.66 6.66 0 0 1-.58-.75c-.07-.1-.13-.21-.17-.28a.44.44 0 0 1-.05-.14.42.42 0 0 0-.08-.22 2.63 2.63 0 0 0-.18-.3 8 8 0 0 0-.59-.76c-.44-.51-1.48-1.89-2.31-3.06a43.53 43.53 0 0 0-2.91-3.65c-.4-.41-.74-.81-1-1.12l-.3-.39a.88.88 0 0 1-.07-.12s0-.05 0 0a.28.28 0 0 0-.06-.16 1.32 1.32 0 0 0-.13-.2 5.94 5.94 0 0 0-.43-.53c-.36-.41-.84-.93-1.33-1.43s-1-1-1.4-1.34a5.1 5.1 0 0 0-.52-.44.92.92 0 0 0-.19-.13.28.28 0 0 0-.16-.06.48.48 0 0 1-.2 0s-.06-.06-.06-.08a.15.15 0 0 0 0-.08v-.06a1.33 1.33 0 0 0-.12-.16c-.1-.13-.24-.3-.42-.5-.34-.39-.82-.9-1.35-1.44-1.18-1.19-2-2-2.62-2.54a5.12 5.12 0 0 0-.65-.52.44.44 0 0 0-.19-.1.19.19 0 0 0-.12 0l-.16-.14c-.17-.17-.41-.42-.67-.73a46.91 46.91 0 0 0-6.74-5.5L170.35 30a3.89 3.89 0 0 0-.5-.33 1 1 0 0 0-.4-.14h-.2l-.45-.17c-.35-.14-.8-.34-1.27-.56s-.92-.43-1.29-.58l-.46-.18a1.38 1.38 0 0 0-.27-.09l-.21-.06-.41-.16-1.13-.48c-2.7-1.22-3.27-1.47-5.32-2.25-.55-.22-1.1-.41-1.54-.55l-.57-.17a1.56 1.56 0 0 0-.34-.07.91.91 0 0 1-.37-.14 2.73 2.73 0 0 1-.46-.38 2.61 2.61 0 0 0-1.46-.76 2.38 2.38 0 0 0-1.58.13 1.11 1.11 0 0 0-.36.26.89.89 0 0 0-.18.43 9 9 0 0 0 .08 1.88c.12 1.17.26 3.27.31 4.66s.17 3 .27 3.6.25 1.84.34 2.82a21.44 21.44 0 0 0 .52 3.9c0 .15.11.51.18.94s.13.94.18 1.44c.1 1 .31 2.59.45 3.58s.35 2.53.45 3.43.32 2.21.47 2.91c.24 1.09.6 3.38 1 6.47a49.52 49.52 0 0 0 1.36 5.1c.32 1 .64 2 .91 2.77.14.38.27.7.37 1a1.82 1.82 0 0 0 .26.5 1.19 1.19 0 0 1 .22.59 1.59 1.59 0 0 0 .12.45c.07.2.18.46.3.76a61.872 61.872 0 0 0 1.94 4.06c.15.27.28.51.39.69l.14.21a.38.38 0 0 0 .12.13.74.74 0 0 1 .26.55 5.61 5.61 0 0 0 .74 2 30.33 30.33 0 0 0 1.87 3.09c4.06 5.94 4.72 6.83 5.53 7.57.48.43 1.57 1.44 2.43 2.24s2.5 2.28 3.65 3.27c.57.5 1.15 1 1.63 1.48a14.07 14.07 0 0 1 1 1 2 2 0 0 0 .58.51 1.23 1.23 0 0 0 .62.22 1 1 0 0 1 .38 0v.11a10.38 10.38 0 0 1-1.09 1.78 21.53 21.53 0 0 0-1.45 2.45c-.19.37-.35.73-.46 1a1.73 1.73 0 0 0-.17.65.26.26 0 0 1 0 .14.5.5 0 0 1-.14.15.71.71 0 0 0-.17.2c-.07.1-.15.21-.23.35s-.35.64-.53 1c-.36.74-1.4 2.91-2.32 4.84a36.67 36.67 0 0 0-1.9 4.82 18 18 0 0 0-.49 1.91 4.65 4.65 0 0 0-.07.66.68.68 0 0 0 .07.42v.17c0 .14 0 .33-.06.56a25.6 25.6 0 0 1-.29 1.71 62.53 62.53 0 0 0-.16 14.18c.19 1.56.4 3.38.47 4 .11.93.22 1.82.35 2.53a8.52 8.52 0 0 0 .34 1.52 4 4 0 0 1 .2.92 1.32 1.32 0 0 0 .08.44 1 1 0 0 0 .2.35.86.86 0 0 1 .13.31 2 2 0 0 1 .06.5.72.72 0 0 1-.16.5 1.16 1.16 0 0 1-.58.28h-.93c-.49 0-1.16 0-2 .05h-5.83c-10.51-.09-12.21-.07-15.37.15-1.48.11-3.56.22-4.62.25a7.41 7.41 0 0 0-2.2.28.87.87 0 0 0-.45.36.94.94 0 0 0-.15.56.7.7 0 0 0 .37.57 2.38 2.38 0 0 0 .92.28 8.72 8.72 0 0 0 2.88-.24c1.39-.32 4.54-.4 15-.33l9.47.06h4.11a1 1 0 0 1 .11.17c.08.15.18.37.29.64.21.53.44 1.26.65 2s.38 1.46.49 2a6.83 6.83 0 0 1 .1.7v.55a.86.86 0 0 1-.28.12c-.16.07-.37.12-.62.2-.5.11-1.16.25-1.85.38a80.24 80.24 0 0 0-10.78 2.5 12.12 12.12 0 0 1-1.91.47 28 28 0 0 0-2.81.64c-.9.25-2.37.63-3.27.83-.46.11-.94.24-1.34.36a6.26 6.26 0 0 0-.93.34 4.9 4.9 0 0 1-.83.26 11.46 11.46 0 0 1-1.22.23 34.55 34.55 0 0 0-3.77.72c-.59.15-1.16.3-1.59.45a3.77 3.77 0 0 0-.92.38.9.9 0 0 0-.36.9 1.11 1.11 0 0 0 .72.76.93.93 0 0 0 .35 0 4.86 4.86 0 0 0 .57-.07 12.07 12.07 0 0 0 1.44-.36 72.16 72.16 0 0 1 7.14-1.7 6 6 0 0 0 1.38-.41 3.73 3.73 0 0 1 .7-.23 10.79 10.79 0 0 1 1.08-.23 9.13 9.13 0 0 0 1-.23l.39-.12a1.14 1.14 0 0 0 .25-.13 1.38 1.38 0 0 1 .24-.1 4.48 4.48 0 0 1 .5-.15c.4-.1.92-.22 1.45-.31 1.08-.2 2.95-.63 4.18-1a82.32 82.32 0 0 1 8.8-1.8c1.82-.27 2.67-.42 3.14-.24a1 1 0 0 1 .54.53 12.86 12.86 0 0 1 .55 1.26 5.32 5.32 0 0 1 .56 2 .42.42 0 0 1-.18.37.92.92 0 0 1-.51.11.61.61 0 0 0-.33.1.34.34 0 0 0-.16.27l-.05.07a2 2 0 0 1-.23.17 5 5 0 0 1-.77.38c-.63.26-2.67 1.19-4.56 2.09l-5.67 2.68-5.46 2.58c-.88.42-1.7.8-2.31 1.07l-.73.33-.21.09h-.11l-.17.06-.54.23-1.68.76-3.81 1.74a35.84 35.84 0 0 0-4.63 2.34c-3.17 1.87-4.43 2.78-5.06 3.67a2.61 2.61 0 0 0-.44.8.62.62 0 0 0 .15.59 1.06 1.06 0 0 0 1 .4 1.82 1.82 0 0 0 1.09-.64 22.28 22.28 0 0 1 5.17-3.47c.53-.28 1-.55 1.42-.77l.47-.28.15-.1.09-.09.15-.08.5-.25c.42-.19 1-.42 1.56-.66a12.17 12.17 0 0 0 1.5-.7 2.78 2.78 0 0 0 .41-.29 1.34 1.34 0 0 0 .11-.14.19.19 0 0 0 0-.13.73.73 0 0 0 .45.08 1.63 1.63 0 0 0 .52-.15c.47-.25 1.77-.86 3-1.41l1.6-.71.53-.22.15-.07h.1l.18-.08.64-.28 2.33-1.06 8.1-3.78c1.14-.54 2.69-1.25 3.42-1.58l2.44-1.07c.3-.14.59-.25.82-.34l.29-.11h.11l.06.06c0 .07.11.17.18.29s.31.61.48 1a32 32 0 0 0 3.78 5.94 7.56 7.56 0 0 1 .93 1.38 9.3 9.3 0 0 0 .93 1.22c.45.53 1 1.16 1.6 1.76l2 2.1-.33 1.16a20.79 20.79 0 0 0-.51 2.14c-.75 5-.76 5.77-.28 14.19.09 1.56.23 5.6.31 9s.19 6.86.27 7.77.22 2.79.32 4.18.37 4.08.59 6 .5 5.38.6 7.75c.05 1.19.11 2.28.16 3.1 0 .4.05.74.07 1s0 .21 0 .29a.41.41 0 0 1 0 .08.86.86 0 0 1 0 .13 3 3 0 0 1 .07.43c.05.35.11.82.16 1.31.21 2 .73 6.4.93 7.76.27 1.84.72 6.05.87 8.21.09 1.23.26 3.18.36 4.33s.22 3 .25 4c.06 1.27.17 3 .29 4.47s.24 2.8.34 3.3a1.72 1.72 0 0 0 1 1.18 1.62 1.62 0 0 0 .74.16.87.87 0 0 0 .63-.29 1.08 1.08 0 0 0 .22-.67 4.18 4.18 0 0 0-.18-1.11 50.65 50.65 0 0 1-.79-8.11c-.19-3.26-.42-6.34-.63-8.67-.07-.82-.19-2.43-.28-3.58s-.33-3.17-.56-4.49-.52-3.19-.64-4.17-.27-2.13-.31-2.54c-.2-1.61-.7-7.76-.84-10.29-.08-1.48-.22-3.08-.3-3.59s-.23-2.17-.33-3.73-.29-3.57-.44-4.48-.34-4-.43-6.85-.27-7.25-.39-9.72c-.25-5-.29-9.39-.11-12.63a30.31 30.31 0 0 1 .41-4 4.3 4.3 0 0 1 .66-1.9 1.85 1.85 0 0 1 1-.37c.23 0 .9 0 1.81.08s2 .14 3.21.24c2.37.19 4.94.43 6.25.6 1.64.21 4.07.38 6.31.47a38.35 38.35 0 0 0 5.11 0 6.48 6.48 0 0 0 1.15-.25 1.9 1.9 0 0 0 .73-.35.91.91 0 0 1 .32-.2.5.5 0 0 1 .29 0 .73.73 0 0 0 .57-.09 2 2 0 0 0 .52-.46 1.55 1.55 0 0 0 .42-1.26 1.53 1.53 0 0 0-.17-.46.43.43 0 0 0-.36-.2 5.26 5.26 0 0 0-1.57.57 13.82 13.82 0 0 1-4 .67 28.51 28.51 0 0 1-5.18-.14c-1-.14-2.63-.32-3.53-.4s-2.65-.28-3.88-.43-3.19-.28-4.35-.29a13.8 13.8 0 0 1-4-.45 6.9 6.9 0 0 1-2.67-1.79c-.45-.45-.85-.86-1.12-1.15-.13-.14-.23-.26-.29-.34a.15.15 0 0 0 0-.1 1.11 1.11 0 0 0-.15-.23 5 5 0 0 0-.59-.69 10.38 10.38 0 0 1-.7-.84 3.87 3.87 0 0 1-.39-.64.69.69 0 0 0-.27-.38.38.38 0 0 0-.41 0 .41.41 0 0 0 0-.22 2.17 2.17 0 0 0-.14-.36 6.19 6.19 0 0 0-.58-.94 14.51 14.51 0 0 1-1.22-2 3.31 3.31 0 0 0-.32-.6 1.16 1.16 0 0 0-.16-.2.23.23 0 0 0-.18-.09l-.05-.07c0-.07-.08-.17-.13-.31a9.48 9.48 0 0 1-.31-1 4.75 4.75 0 0 1-.2-1.27.78.78 0 0 1 .27-.58 2.28 2.28 0 0 1 .36-.3l.14-.09h.06a.81.81 0 0 0 .19 0l.31-.11.84-.35a9.78 9.78 0 0 1 1.68-.6 2 2 0 0 0 .93-.44.92.92 0 0 1 .36-.17 2.08 2.08 0 0 1 .77-.13 1.39 1.39 0 0 0 .53-.1.57.57 0 0 0 .18-.12.28.28 0 0 0 .09-.19.13.13 0 0 1 .07-.12.47.47 0 0 1 .26-.07.77.77 0 0 0 .66-.33.92.92 0 0 0 0-.8.45.45 0 0 0-.2-.25.63.63 0 0 0-.38-.09 10.14 10.14 0 0 0-1.7.27 37.76 37.76 0 0 0-4 1.13 10.72 10.72 0 0 1-1.6.48 1.31 1.31 0 0 1-.39 0 .28.28 0 0 1-.18-.09 3.57 3.57 0 0 1-.37-.65c-.14-.29-.29-.64-.42-1a8.64 8.64 0 0 1-.3-.91 1.63 1.63 0 0 1-.07-.31.22.22 0 0 1 0-.08l.18-.06.6-.18 1.92-.5a14 14 0 0 0 3.89-1.44 2.77 2.77 0 0 0 .89-.82.79.79 0 0 0 0-.85.66.66 0 0 0-.39-.27 1.59 1.59 0 0 0-.59 0 7.11 7.11 0 0 0-1.74.56 15.93 15.93 0 0 1-3.39.92 11.5 11.5 0 0 1-1.61.21 3 3 0 0 1-.54 0 .39.39 0 0 1-.23-.06 1.32 1.32 0 0 1-.14-.25 5.32 5.32 0 0 1-.21-.53c-.16-.41-.34-.95-.5-1.5s-.33-1.1-.44-1.56a5.49 5.49 0 0 1-.19-1c0-.12 0-.19.06-.23s.15-.1.38-.13a27.13 27.13 0 0 1 3 0c1.93.08 4.51.26 5.74.41a14.09 14.09 0 0 0 2.83.22.61.61 0 0 0 .48-.25.94.94 0 0 0 .09-.52 1 1 0 0 0-.5-.81 4.26 4.26 0 0 0-1.46-.52 37.19 37.19 0 0 0-6.29-.45c-1.41 0-2.67-.07-3.61-.13-.47 0-.86-.07-1.13-.11l-.33-.06h-.11a1.46 1.46 0 0 1-.2-.47c-.09-.29-.2-.7-.33-1.28-.26-1.14-.62-2.91-1.12-5.51a88.26 88.26 0 0 1-.67-14.89.67.67 0 0 1 .68-.67 5.14 5.14 0 0 1 2.11.48 16.23 16.23 0 0 0 2.86.74 18.48 18.48 0 0 1 4.09 1.51c.74.36 1.47.69 2.06.93.3.12.56.21.77.28a1.65 1.65 0 0 0 .48.11 2 2 0 0 0 1.55-1 1.59 1.59 0 0 0 .27-.8.74.74 0 0 0-.35-.65v-.07a.38.38 0 0 1 0-.18 1.85 1.85 0 0 1 .22-.6 5.61 5.61 0 0 0 .25-3.13 13.74 13.74 0 0 0-1.19-4 16.19 16.19 0 0 0-.86-1.62 5.21 5.21 0 0 0-.69-1 34 34 0 0 1-2.39-2.49c-.43-.48-.82-1-1.11-1.3-.14-.18-.26-.33-.34-.45l-.09-.13s0-.06 0 0a.31.31 0 0 0-.14-.26.44.44 0 0 0-.3-.1.37.37 0 0 1-.17-.06 1.23 1.23 0 0 1-.31-.15 5.28 5.28 0 0 1-.78-.52 8.4 8.4 0 0 0-.79-.53c-.12-.08-.23-.13-.32-.18a.74.74 0 0 0-.23 0 .27.27 0 0 1-.21-.08.35.35 0 0 1-.11-.22 2.44 2.44 0 0 1 .11-1 13.72 13.72 0 0 1 1.64-3.38 7.61 7.61 0 0 0 .46-.82 2.2 2.2 0 0 0 .11-.27.31.31 0 0 0 0-.1 1.45 1.45 0 0 1 .17-.32 13.82 13.82 0 0 1 .83-1.18c.72-.94 1.73-2.13 2.68-3.14.55-.59 1.08-1.17 1.49-1.63l.52-.6c.12-.16.21-.27.25-.34a.86.86 0 0 1 .24-.26.53.53 0 0 1 .27-.11.77.77 0 0 0 .48-.27 3.91 3.91 0 0 0 .51-.6 7.34 7.34 0 0 1 1.47-1.48l2.85-2.08c1.05-.78 2.14-1.55 2.39-1.7s.91-.61 1.43-1a5 5 0 0 1 .79-.46 1.72 1.72 0 0 1 .54-.19 1.12 1.12 0 0 0 .38-.07.44.44 0 0 0 .26-.22l.16-.11c.14-.09.33-.21.57-.34.48-.27 1.13-.62 1.82-1a13.12 13.12 0 0 1 4.74-1.55 37.12 37.12 0 0 1 7.58-.14 19.64 19.64 0 0 1 4.61 1.17l1.62.55.54.18h.25a5.23 5.23 0 0 1 1.05.4c.5.22 1.09.52 1.68.85s1.19.65 1.67 1a7.06 7.06 0 0 1 1 .72 7.71 7.71 0 0 0 .7.64 2.12 2.12 0 0 0 .28.2.45.45 0 0 0 .22.08l.17.11.55.41c.44.34 1 .81 1.62 1.3 1.19 1 2.46 2.11 2.88 2.57a12.84 12.84 0 0 0 1.35 1.18 22.17 22.17 0 0 1 6 6.74c.45.95 1 2.36 1.55 3.66s1 2.52 1.09 3c.06.27.33 1.06.59 1.8.15.37.28.76.39 1.08s.17.59.19.7a6.12 6.12 0 0 0 .24.91c.29.8.78 2.5 1.15 3.87s.41 1.63.72 3a3.45 3.45 0 0 0 .33.93 2.33 2.33 0 0 1 .16.42 6.37 6.37 0 0 1 .16.66 11.66 11.66 0 0 0 .71 2.08 23.37 23.37 0 0 1 .7 2.26c.29 1.08.62 2.4.92 3.7s.59 2.54.84 3.51c.12.48.23.89.31 1.21a5.27 5.27 0 0 0 .19.61c.36.87.6 1.45.72 1.82a3 3 0 0 1 .12.41.39.39 0 0 1 0 .09h-.13l-.44.14c-.36.11-.84.24-1.38.37-1.09.26-2.41.53-3.44.7-2.32.38-2.73.43-6.77.87-.82.09-1.59.19-2.17.28l-.75.14-.24.06-.15.05a2.8 2.8 0 0 1-.89.26c-.35 0-1 .13-1.37.21l-1.94.36c-.66.12-2.4.52-3.88.89s-3.36.79-4.17.9a4.79 4.79 0 0 0-1.79.49.76.76 0 0 0-.33.41.87.87 0 0 0 0 .55 1 1 0 0 0 .59.64 2.52 2.52 0 0 0 1.13.19 9.37 9.37 0 0 0 3.32-.85 15.33 15.33 0 0 1 2-.57c.95-.23 2.18-.5 3.56-.78 2.76-.56 6.15-1.18 9.34-1.68 2.54-.39 5.88-.94 7.42-1.21a20.39 20.39 0 0 1 2.34-.33c.45 0 .61.06.76.21a1.73 1.73 0 0 1 .21.33c.08.17.18.38.28.63.21.49.43 1.11.63 1.73s.39 1.21.51 1.69c.06.23.1.44.13.59a1.28 1.28 0 0 1 0 .18v.06a.71.71 0 0 1-.25.1 7 7 0 0 1-.88.15c-.83.11-2.18.25-4.31.44-.57 0-2.45.18-4.19.29s-3.94.32-4.92.47-3.67.34-6 .45a44.69 44.69 0 0 0-5 .39 3.51 3.51 0 0 0-1 .29.58.58 0 0 0-.35.47 1.23 1.23 0 0 0 .17.71 1.06 1.06 0 0 0 .66.4 13.35 13.35 0 0 0 3.4 0c.92-.06 1.77-.12 2.4-.18l.77-.07h.3a.11.11 0 0 0 .07 0h.15l.54-.07c.42 0 1-.11 1.61-.16l5.09-.49c4.83-.49 5.41-.54 9-.74l3.41-.19.45 1.58c.27.92.81 2.5 1.21 3.51.2.51.36 1 .47 1.35l.12.45a.76.76 0 0 1 0 .14h-1.04c-.67 0-1.59-.08-2.59-.17-2-.14-4.32-.36-5.67-.55-.59-.1-2.73-.25-4.8-.36s-4.72-.27-6-.38a13.55 13.55 0 0 0-3.36 0 1.75 1.75 0 0 0-1.42.91 1.56 1.56 0 0 0-.23.7.36.36 0 0 0 .09.23.67.67 0 0 0 .22.18h.27a4.66 4.66 0 0 0 .53.06l1.79.1c1.47.05 3.45.12 5.58.15a96.41 96.41 0 0 1 16.24 1.3c.43.07.83.13 1.13.21a3.11 3.11 0 0 1 .36.09h.1a1.12 1.12 0 0 1 .14.26l.25.55c.19.44.43 1 .66 1.58s.46 1.13.63 1.58c.08.23.16.42.21.57s.08.27.09.3a3.87 3.87 0 0 0 .16.57c.09.28.21.63.34 1 .26.72.54 1.46.68 1.76s.77 1.8 1.36 3.28c.3.74.6 1.44.84 2 .12.27.22.51.3.68s.14.28.18.34a2.22 2.22 0 0 1 .14.24l.21.48c.17.38.36.86.55 1.35.72 1.86 3.9 8.71 5.28 11.35 2.16 4.15 4.31 8.57 4.87 10a26.83 26.83 0 0 0 1.34 2.83c.62 1.07 2 4.33 6.57 15.7a104.59 104.59 0 0 0 5.7 11.95c1.95 3.73 3.83 7.39 5.26 10.28.71 1.44 1.31 2.69 1.77 3.65a20.12 20.12 0 0 1 .84 2 4.82 4.82 0 0 0 .34.81 2 2 0 0 0 .18.26.3.3 0 0 0 .22.12.15.15 0 0 1 .11.06.32.32 0 0 1 0 .18.7.7 0 0 0 0 .14l.07.2q.09.24.24.6c.2.46 13.79 32.42 14.09 33a11.33 11.33 0 0 1 .78 1.79.71.71 0 0 1 .06.37.21.21 0 0 1-.08.16.69.69 0 0 0-.32.72 1.83 1.83 0 0 0 .42.9 3 3 0 0 0 1.95 1.15 1.34 1.34 0 0 0 1.42-1.19.2.2 0 0 0 0-.08.83.83 0 0 0-.31-.61 1.22 1.22 0 0 1-.38-.83.94.94 0 0 0-.11-.45.35.35 0 0 0-.31-.21h-.07v-.11a.36.36 0 0 0 .06-.31.28.28 0 0 0-.26-.16s-.05 0-.07-.05a.52.52 0 0 1 0-.26.44.44 0 0 0 0-.39.34.34 0 0 0-.31-.19h-.12a.3.3 0 0 0 0-.11v-.1a1.43 1.43 0 0 0-.08-.29c-.07-.22-13.5-31.89-13.65-32.22a21.07 21.07 0 0 0-1.16-2.17 20.63 20.63 0 0 1-1.49-3.64 4.57 4.57 0 0 0-.42-.93 2.24 2.24 0 0 0-.54-.64 1.68 1.68 0 0 1-.33-.31.45.45 0 0 1-.05-.1.26.26 0 0 0 .07-.19 1 1 0 0 0 0-.23 2.85 2.85 0 0 0-.22-.55 2.49 2.49 0 0 0-.73-1 .76.76 0 0 1-.2-.2.3.3 0 0 1-.08-.17 1 1 0 0 0-.08-.33c-.05-.14-.12-.31-.2-.49-.17-.37-.39-.82-.62-1.24s-.46-.85-.66-1.16l-.26-.37-.11-.11s-.07-.07-.14-.07-.06 0-.11-.09a1 1 0 0 1-.06-.32 2.4 2.4 0 0 0-.18-.7 5.66 5.66 0 0 0-.43-.85 5.76 5.76 0 0 1-.38-.67 1.47 1.47 0 0 0-.06-.19.49.49 0 0 0 0-.12.74.74 0 0 0 0-.22 6.29 6.29 0 0 0-.32-.64 9.67 9.67 0 0 0-1-1.44 1.28 1.28 0 0 1-.32-.44.15.15 0 0 1 0-.06.29.29 0 0 0 .18-.07.21.21 0 0 0 0-.2 1.09 1.09 0 0 0-.3-.45 3.14 3.14 0 0 1-.33-.48 1.06 1.06 0 0 1-.13-.42.83.83 0 0 0-.06-.28c0-.11-.09-.25-.14-.4-.11-.31-.28-.68-.44-1l-.51-1c-.09-.14-.17-.27-.22-.37a1.66 1.66 0 0 0-.19-.23 1.19 1.19 0 0 1-.14-.22 2.61 2.61 0 0 1-.21-.41 3.45 3.45 0 0 1-.31-.8 6.37 6.37 0 0 0-.53-1.32 5.38 5.38 0 0 0-.37-.58 1.45 1.45 0 0 0-.16-.18.22.22 0 0 0-.17-.09.18.18 0 0 1 0-.11.46.46 0 0 0-.17-.61.24.24 0 0 1-.12-.3.18.18 0 0 0 0-.09.22.22 0 0 0 0-.08 1.15 1.15 0 0 0-.06-.21c-.06-.17-.14-.39-.25-.65-.22-.51-.53-1.18-.86-1.85s-.69-1.37-1-1.92l-.42-.72a2.57 2.57 0 0 0-.3-.41 1.1 1.1 0 0 1-.17-.4 2.59 2.59 0 0 1-.08-.63 4.49 4.49 0 0 0-.22-1c-.13-.46-.31-1-.51-1.5s-.41-1-.61-1.47a4.11 4.11 0 0 0-.53-.93 1.12 1.12 0 0 1-.22-.56 2.16 2.16 0 0 0-.15-.62c-.09-.29-.22-.62-.35-.94s-.28-.64-.38-.94-.18-.52-.2-.61a1.09 1.09 0 0 0-.47-.69.66.66 0 0 1-.19-.17.55.55 0 0 0 0-.42 2.16 2.16 0 0 0-.18-.5 2.23 2.23 0 0 0-.27-.46c-.1-.12-.19-.22-.34-.22H277a.36.36 0 0 0 .06-.38 1.17 1.17 0 0 0-.24-.43 4.38 4.38 0 0 1-.42-.71c-.17-.33-.35-.72-.5-1.08a19.9 19.9 0 0 0-2-4.23 2.66 2.66 0 0 1-.32-.58.82.82 0 0 1-.06-.2c0-.05 0-.06 0 0a.17.17 0 0 0 .05-.12.25.25 0 0 0 0-.12 1.68 1.68 0 0 0-.1-.29 5.52 5.52 0 0 0-.45-.76 7.2 7.2 0 0 1-.5-.78 3.12 3.12 0 0 1-.16-.31.62.62 0 0 1-.07-.18 1.33 1.33 0 0 0-.08-.24l-.18-.37c-.14-.27-.33-.61-.53-.93a24.54 24.54 0 0 1-1.44-2.94c-.2-.5-.41-1-.6-1.34-.09-.18-.18-.34-.25-.46a1.24 1.24 0 0 0-.2-.26.17.17 0 0 1-.06 0 .18.18 0 0 0 .13-.09.22.22 0 0 0 0-.18 1.31 1.31 0 0 0-.26-.41 10.18 10.18 0 0 1-1-1.75 4.54 4.54 0 0 0-.52-.91 1.94 1.94 0 0 0-.26-.29.52.52 0 0 0-.27-.13h-.14c-.01 0 0 0 0-.1a.7.7 0 0 0 .05-.34 3.25 3.25 0 0 0-.05-.49 10.63 10.63 0 0 0-.34-1.31 13 13 0 0 0-.49-1.31 2.36 2.36 0 0 0-.5-.81.37.37 0 0 1-.09-.09.27.27 0 0 0 0-.15 2.11 2.11 0 0 0-.12-.41 13.44 13.44 0 0 0-.62-1.42c-.28-.56-.53-1.11-.71-1.53-.1-.21-.17-.39-.22-.52s0-.12-.06-.16a.69.69 0 0 1 0-.07.8.8 0 0 0-.05-.23c0-.09-.08-.21-.14-.34s-.26-.58-.42-.91-.31-.66-.42-.95a2.5 2.5 0 0 1-.17-.64 1.29 1.29 0 0 0-.29-.83v-.08l-.08-.19c-.07-.16-.15-.38-.24-.63-.19-.51-.42-1.18-.64-1.86s-.45-1.37-.61-1.95a9.38 9.38 0 0 1-.3-1.17h.08a2.36 2.36 0 0 1 .45-.07 13.74 13.74 0 0 1 1.72.05 50.6 50.6 0 0 1 5.43.75c1.43.26 3.68.68 5 .91s3 .54 3.72.69 2.08.37 3 .48a10.48 10.48 0 0 1 1.48-.2 4.38 4.38 0 0 1 .89.32 4.83 4.83 0 0 0 1.55.56 4.38 4.38 0 0 0 .76.07.92.92 0 0 0 .54-.12 1.17 1.17 0 0 0 .57-.9.93.93 0 0 0-.49-.84 5 5 0 0 0-.9-.29c-.43-.11-.92-.22-1.43-.32a17.16 17.16 0 0 0-2.54-.35.8.8 0 0 1-.33 0l-.07-.05a.16.16 0 0 0-.07-.13l-.11-.08-.35-.13a6.56 6.56 0 0 0-1.13-.21 23.64 23.64 0 0 1-2.45-.45 16.22 16.22 0 0 0-2.55-.42 23.7 23.7 0 0 1-2.73-.44 5.41 5.41 0 0 0-.83-.16h-.4a.11.11 0 0 0-.1.05h-.35a7.68 7.68 0 0 1-.83-.17c-.64-.17-1.57-.38-2.06-.46-2.21-.36-4.57-.77-5.57-1a1.94 1.94 0 0 1-.87-.29 1 1 0 0 1-.34-.6 16.63 16.63 0 0 0-.82-2.14 29 29 0 0 1-1.14-3.06l-.49-1.62 1-.26a37.8 37.8 0 0 1 6.1-.88 28.62 28.62 0 0 1 5.65 0 4.82 4.82 0 0 0 2.76-.19 1 1 0 0 0 .49-1.51.76.76 0 0 0-.32-.32 1.71 1.71 0 0 0-.68-.15 33.41 33.41 0 0 0-3.63 0c-2.33.09-4.71.2-5.29.25l-3.89.32-2.78.22-.48-1.09a16.65 16.65 0 0 1-.92-2.85 9.41 9.41 0 0 1-.22-1.19 3 3 0 0 1 0-.39.49.49 0 0 1 0-.15.23.23 0 0 1 .07 0 .66.66 0 0 1 .2-.07l.7-.15c.57-.1 1.36-.22 2.27-.34 1.82-.23 4.1-.46 6.09-.59 1.48-.1 3.56-.31 4.64-.47a31.19 31.19 0 0 1 3.86-.29 14.5 14.5 0 0 0 3-.31 22.89 22.89 0 0 1 3.37-.45c1.49-.13 3.09-.21 4.06-.19a4.92 4.92 0 0 0 1.88-.35 1.25 1.25 0 0 0 .64-.47.81.81 0 0 0-.05-.69 1.29 1.29 0 0 0-.29-.47.83.83 0 0 0-.48-.22 7 7 0 0 0-2 .27 42.13 42.13 0 0 1-5.58.68l-3.06.3c-.9.1-2.77.26-4.16.35-.69 0-1.34.11-1.84.16-.25 0-.46 0-.61.08h-.19a.25.25 0 0 0-.13 0h-.1l-.34.06-1.18.14c-1 .11-2.26.24-3.58.36-2.66.25-5.51.48-6.38.48a4.81 4.81 0 0 1-1.57-.15.51.51 0 0 1-.37-.55 1.23 1.23 0 0 0-.06-.32c0-.13-.09-.29-.16-.48-.13-.36-.31-.8-.51-1.24a13.41 13.41 0 0 1-.88-2.59 72.99 72.99 0 0 0-.95-4.49c-.1-.4-.29-1.35-.42-2.08a16 16 0 0 0-1-3.06 23.53 23.53 0 0 1-1.19-3.42c-.43-1.75-.78-3.08-1.06-4-.14-.47-.26-.83-.36-1.1a1.7 1.7 0 0 0-.29-.54 1 1 0 0 1-.17-.39 2 2 0 0 1-.08-.61 10 10 0 0 0-.94-3.46c-.13-.31-.54-1.54-.89-2.67-.18-.59-.38-1.16-.56-1.63a6 6 0 0 0-.26-.59 2.1 2.1 0 0 0-.22-.37 2.84 2.84 0 0 1-.35-.66 9.63 9.63 0 0 1-.36-1 6.13 6.13 0 0 0-.32-1 2.68 2.68 0 0 0-.17-.34.58.58 0 0 0-.17-.2.54.54 0 0 1-.17-.28 1.79 1.79 0 0 1-.06-.54 2.9 2.9 0 0 1 .23-1.21c.42-.78 1-2.11 1.57-3.3.25-.59.5-1.15.66-1.57q.13-.33.21-.54c0-.07 0-.13.06-.18a.3.3 0 0 0 0-.12.45.45 0 0 1 0-.22.17.17 0 0 1 .05 0 .22.22 0 0 0 .15-.08 1.81 1.81 0 0 0 .15-.19c.1-.17.23-.43.42-.83.36-.79.93-2.14 1.84-4.34a19.64 19.64 0 0 0 1.54-4.49 24.28 24.28 0 0 1 1-3.27 3.5 3.5 0 0 0 .19-.78 2.34 2.34 0 0 1 .11-.44c.06-.21.15-.47.24-.71s.29-1 .53-1.87.51-2.07.77-3.22c.53-2.3 1.23-5.19 1.55-6.42a39.34 39.34 0 0 0 1.3-6.43c.08-.82.36-2.47.61-3.66.56-2.64.61-8.5.14-14-.1-1.06-.2-2.05-.29-2.79 0-.37-.08-.68-.11-.91s0-.2-.05-.27 0-.06 0-.09v-.13a.61.61 0 0 1 0-.17c0-.13-.07-.31-.11-.53-.08-.44-.17-1-.25-1.61-.16-1.2-.35-2.51-.43-2.93-.15-.74-.78-3-1.41-5.09-.31-1.06-.62-2.09-.88-2.88-.12-.39-.23-.73-.32-1s-.08-.22-.11-.3a1.12 1.12 0 0 0-.08-.18 1.06 1.06 0 0 1-.1-.38 2.54 2.54 0 0 1 0-.55 1.85 1.85 0 0 0 0-.62 1.14 1.14 0 0 0-.2-.5 2.85 2.85 0 0 1-.24-.61 9.38 9.38 0 0 1-.24-1 11.46 11.46 0 0 0-.61-2.26 14.74 14.74 0 0 1-.59-1.59 3.75 3.75 0 0 0-.53-.91 12.43 12.43 0 0 0-1-1.18 4 4 0 0 0-2.71-1.61 8.18 8.18 0 0 0-.94-.07zm0 2.46a3.27 3.27 0 0 1 1.9.29 1.34 1.34 0 0 1 .83 1.08 1.07 1.07 0 0 0 .08.41.32.32 0 0 0 .27.21c-.05 0 0 0 0 0a.48.48 0 0 1 .06.11 2.75 2.75 0 0 1 .18.45 14.9 14.9 0 0 1 .44 1.52c.29 1.19.71 2.9.94 3.8s.48 2 .55 2.39.42 1.79.77 3.1c.18.65.35 1.29.5 1.8s.27.91.33 1.08a4.78 4.78 0 0 1 .24.74c0 .17.21.83.39 1.49a24.61 24.61 0 0 1 .5 2.82c.11.91.31 2.18.45 2.85a53.68 53.68 0 0 1 .62 5.92c.17 2.53.27 5.25.27 7.12v2.03a.93.93 0 0 1-.06.22v.06a.24.24 0 0 0 0 .07v.24c0 .1-.09.44-.14.75-.11.64-.25 1.48-.38 2.37-.26 1.8-.82 4.62-1.24 6.25-.2.83-.4 1.64-.56 2.29s-.25 1.13-.28 1.31a5.62 5.62 0 0 1-.26 1 3.33 3.33 0 0 0-.12.41c-.06.2-.12.45-.19.75-.14.6-.32 1.36-.49 2.14-1.19 5.54-1.42 6.43-2.1 8.19-.13.34-.37 1.15-.53 1.81a67.19 67.19 0 0 1-2.39 6.84c-.51 1.22-1.6 3.45-2.62 5.38-.5 1-1 1.86-1.35 2.52-.17.32-.34.59-.46.78s-.11.17-.14.22h-.05l-.21-.13a7.34 7.34 0 0 1-.64-.51c-.54-.44-1.24-1.06-2-1.76s-1.44-1.33-2-1.79a8.95 8.95 0 0 0-.7-.55 1.79 1.79 0 0 0-.24-.15.34.34 0 0 0-.18-.07.82.82 0 0 1-.36-.19 2.22 2.22 0 0 1-.44-.51 2.55 2.55 0 0 0-.43-.51.8.8 0 0 0-.21-.13.2.2 0 0 0-.21 0h-.05a.56.56 0 0 1-.17-.07 2.46 2.46 0 0 1-.44-.39 11.37 11.37 0 0 0-1.06-.94c-.49-.4-1.08-.85-1.68-1.3s-1.2-.88-1.71-1.23a9.66 9.66 0 0 0-1.16-.7c-.35-.16-1.28-.69-2.06-1.17a25.26 25.26 0 0 0-4.74-2 62.21 62.21 0 0 0-6.7-1.66 1.2 1.2 0 0 1-.39-.12.43.43 0 0 1-.18-.23 7.36 7.36 0 0 1-.11-1.73c0-1.12-.1-3.71-.2-5.76a39.53 39.53 0 0 1 .09-5.66c.07-.53.12-1.06.15-1.49v-.55a1 1 0 0 0 0-.33v-.1a.18.18 0 0 0 .13 0 .17.17 0 0 0 .11-.06.59.59 0 0 0 .13-.25 3.33 3.33 0 0 0 .12-.91 10.06 10.06 0 0 1 .33-3.18 9 9 0 0 0 .24-.92c.09-.43.2-1 .29-1.5a45.68 45.68 0 0 1 2.05-7c.14-.33.62-1.54 1.06-2.69a70.53 70.53 0 0 1 3.63-8.05c.54-1.06 1.09-2.1 1.54-2.91.23-.41.43-.76.6-1a4.31 4.31 0 0 1 .36-.53 4.36 4.36 0 0 0 .41-.51 1.79 1.79 0 0 0 .13-.22.43.43 0 0 0 .06-.18.17.17 0 0 1 0-.07 1.22 1.22 0 0 1 .08-.17c.07-.14.17-.32.3-.53.25-.42.6-1 1-1.52a31.1 31.1 0 0 1 2.16-2.9c.53-.58 1.72-2 2.65-3.14a64.32 64.32 0 0 1 5.69-6.22c.69-.71 1.28-1.35 1.67-1.82a6 6 0 0 0 .43-.57 1 1 0 0 0 .09-.18.11.11 0 0 0 0-.11.19.19 0 0 0-.12-.07h-.12c-.01 0 0-.06 0-.13s.06-.09.08-.1h.05a.53.53 0 0 1 .17.18.53.53 0 0 0 .19.2.3.3 0 0 0 .26 0 1.54 1.54 0 0 0 .57-.51 2.43 2.43 0 0 1 .41-.4.13.13 0 0 0 .09.06.15.15 0 0 0 .15 0 1.11 1.11 0 0 0 .25-.32 3 3 0 0 1 .77-.76 12.39 12.39 0 0 1 1.31-.88 8.87 8.87 0 0 1 2.73-1.12zM237.27 20a2.3 2.3 0 0 0-1.17.68 12.74 12.74 0 0 0-1.57 1.75c-.57.73-1.19 1.49-1.35 1.66s-.36.45-.74.94-.86 1.11-1.35 1.76-1 1.24-1.33 1.69c-.18.22-.33.4-.45.53l-.14.16a.45.45 0 0 0-.21.24.82.82 0 0 0-.08.35.63.63 0 0 1-.06.27.36.36 0 0 1-.13.14.41.41 0 0 0-.14.1 1.2 1.2 0 0 0-.18.2c-.13.16-.29.37-.47.63-.36.51-.81 1.2-1.26 1.93a38.36 38.36 0 0 0-2.21 4c-.18.45-.38.89-.56 1.25a4.66 4.66 0 0 1-.38.7A2.68 2.68 0 0 0 223 40c-.06.28-.4 1.35-.75 2.34a20.73 20.73 0 0 0-.86 3.15 40 40 0 0 0-.14 4.67c0 2 .1 4 .24 5.11.19 1.49.74 4.74 1.52 8.92.28 1.51.74 3.44 1.21 5.17a31.2 31.2 0 0 0 1.25 4c.11.25.31.86.55 1.64s.53 1.77.81 2.77c.56 2 1.11 4.12 1.28 5a3.29 3.29 0 0 0 .2.7 1.33 1.33 0 0 0 .12.24.25.25 0 0 0 .19.12l.1.16a3.23 3.23 0 0 1 .2.56 4 4 0 0 0 .76 1.64 1.53 1.53 0 0 0 1.19.6 2 2 0 0 0 1.06-.51 13.65 13.65 0 0 0 1.54-1.28 27 27 0 0 0 3.19-3.86 71.34 71.34 0 0 1 4.52-6 5.46 5.46 0 0 0 .49-.64 1.1 1.1 0 0 0 .22-.52.5.5 0 0 1 .1-.27.78.78 0 0 1 .26-.25 2.1 2.1 0 0 0 .49-.5c.18-.24.37-.53.55-.82.32-.57 1.06-1.85 1.64-2.84a22.48 22.48 0 0 0 1.61-3.45c.15-.45.32-.87.45-1.19.07-.17.14-.3.19-.4a.67.67 0 0 1 .06-.12.17.17 0 0 0 .06-.06V64a2.22 2.22 0 0 0 .11-.25c.09-.2.2-.49.32-.83.25-.67.56-1.57.88-2.51.62-1.86 1.25-3.85 1.39-4.54.1-.48.24-1.16.32-1.49 1.4-5.7 1.64-7.21 1.64-10.13a16.93 16.93 0 0 0-.54-4.8 3.53 3.53 0 0 0-.65-1.29 1.27 1.27 0 0 0-.94-.47 2.29 2.29 0 0 0-.41 0 .38.38 0 0 0-.26.18.63.63 0 0 0 0 .35c0 .14 0 .31.09.54a36.57 36.57 0 0 1 .42 4.33c0 .86.06 1.71.06 2.4a10.34 10.34 0 0 1-.07 1.51c-.11.57-.28 1.44-.37 1.94a46.87 46.87 0 0 1-1.48 6.63c-.12.35-.22.66-.28.9a1.49 1.49 0 0 0-.06.29.31.31 0 0 0 0 .09.11.11 0 0 0 0 .07 1.91 1.91 0 0 1 0 .21c-.06.17-.15.44-.27.73s-.23.56-.3.76l-.09.24a.87.87 0 0 1 0 .1v.14l-.09.38c-.09.31-.21.71-.36 1.17-.28.89-.64 1.92-.89 2.51a49.24 49.24 0 0 1-5.33 9.72c-1.11 1.38-1.9 2.44-4 5.34a46.76 46.76 0 0 1-3.74 4.66 2.61 2.61 0 0 1-.9.65.32.32 0 0 1-.24 0 .35.35 0 0 1-.18-.18v-.09c0-.09 0-.12-.07-.21s-.13-.4-.21-.68c-.16-.55-.37-1.28-.57-2-.74-2.82-1.52-5.57-2.2-7.76a37.34 37.34 0 0 0-1.56-4.48 3.81 3.81 0 0 1-.21-.78c-.08-.37-.16-.83-.22-1.28a17.91 17.91 0 0 0-.54-2.69c-.18-.57-.36-1.25-.4-1.48s-.21-1.25-.38-2.24a66.9 66.9 0 0 1-.73-8.79V46.8a9.35 9.35 0 0 1 .31-2.39 10.91 10.91 0 0 0 .49-2 10.07 10.07 0 0 1 .54-1.62c.3-.73.68-1.6 1.09-2.46s.84-1.72 1.23-2.42a9.2 9.2 0 0 1 .93-1.48 3.43 3.43 0 0 0 .38-.52.94.94 0 0 0 .17-.45.25.25 0 0 1 0-.06l.06-.14c.06-.11.14-.26.25-.43.22-.34.51-.77.84-1.2s.63-.86.85-1.19a4.93 4.93 0 0 0 .26-.43l.07-.15a.28.28 0 0 0 0-.13.37.37 0 0 1 .09-.16 1 1 0 0 1 .28-.17 1.05 1.05 0 0 0 .36-.25.59.59 0 0 0 .16-.36.48.48 0 0 1 .05-.16 2.09 2.09 0 0 1 .15-.3 7.32 7.32 0 0 1 .52-.75l1.42-1.81a31.18 31.18 0 0 1 3.16-3.6 1.78 1.78 0 0 0 .53-.67 1 1 0 0 0 0-.72 1.08 1.08 0 0 0-.34-.57.65.65 0 0 0-.54-.15zm-82.48 6.29a.66.66 0 0 1 .42 0 1.09 1.09 0 0 1 .47.23 4.29 4.29 0 0 0 1 .53c.48.2 1.06.41 1.63.59 1.15.36 2.52.85 3 1.08l.72.31.26.09a.59.59 0 0 0 .17 0 .3.3 0 0 1 .1 0l.24.09c.2.08.46.19.77.34.61.28 1.42.68 2.26 1.1 1.68.84 3.51 1.81 4.28 2.3a65.16 65.16 0 0 1 7.54 6c.43.39.85.74 1.19 1l.43.31.16.09a.33.33 0 0 0 .14 0 .62.62 0 0 1 .24.17 2.09 2.09 0 0 1 .32.45 5.06 5.06 0 0 0 1.43 1.42 5.87 5.87 0 0 1 .71.56c.09.09.17.16.22.22s.05.11.05.09a.1.1 0 0 0 0 .08v.07l.15.2c.13.16.31.37.54.61.44.5 1.06 1.14 1.74 1.83a50.24 50.24 0 0 1 6.66 7.75c.49.68 1 1.36 1.35 1.88s.66.88.78 1a5.58 5.58 0 0 1 .72 1c.11.19.39.59.76 1.09s.85 1.12 1.34 1.71.91 1.14 1.23 1.56l.37.51.1.15a.24.24 0 0 0 0 .09l.07.13c0 .09.13.22.23.37s.45.68.74 1.08a41.52 41.52 0 0 1 4.34 9.2c.47 1.62.91 3.19 1.23 4.4.16.6.3 1.11.39 1.49 0 .19.08.34.1.46a.89.89 0 0 1 0 .21.86.86 0 0 1-.22.12 3.1 3.1 0 0 1-.77.22 11.29 11.29 0 0 0-1.69.58c-.75.31-1.62.7-2.45 1.1s-1.6.77-2.19 1l-.74.31a1 1 0 0 1-.22.08h-.09a.54.54 0 0 0-.25.09l-.36.23a10.23 10.23 0 0 0-.94.75c-.33.28-.65.54-.91.72a1.71 1.71 0 0 1-.33.22.27.27 0 0 1-.1.06.76.76 0 0 0-.32.11 4.94 4.94 0 0 0-.5.26c-.37.22-.85.51-1.32.84a21.45 21.45 0 0 0-2.36 2.18c-.72.71-1.54 1.44-2.2 2-.32.28-.62.51-.84.68l-.26.19h-.14a1.78 1.78 0 0 1-.1-.2 5.49 5.49 0 0 1-.19-.9c-.11-.82-.2-2.11-.27-3.93 0-1-.1-2-.16-2.8s-.12-1.38-.17-1.61a16.17 16.17 0 0 1-.29-1.78c-.06-.58-.16-1.38-.22-1.8s-.28-1.86-.48-3.22a25.9 25.9 0 0 0-1.76-6.55 12.35 12.35 0 0 1-.61-1.61c-.09-.31-.17-.61-.23-.86a3.1 3.1 0 0 1-.1-.55 3.75 3.75 0 0 0-.37-1.22c-.27-.66-.71-1.65-1.42-3.18-.45-1-1.05-2.43-1.33-3.2a7 7 0 0 0-.46-1 1.57 1.57 0 0 0-.21-.33c-.07-.07-.13-.15-.23-.15h-.07a.13.13 0 0 1 0-.09.28.28 0 0 0 0-.24 1.81 1.81 0 0 0-.08-.34 4.74 4.74 0 0 0-.39-.89 32.61 32.61 0 0 1-1.36-3.24c-.21-.6-.43-1.17-.63-1.63-.09-.23-.18-.42-.26-.58a1.52 1.52 0 0 0-.19-.33 1.4 1.4 0 0 1-.14-.23.25.25 0 0 0 0-.07.33.33 0 0 0 0-.14 1.71 1.71 0 0 0-.13-.38 12 12 0 0 0-.6-1.24 36.39 36.39 0 0 0-1.93-3.21 28.3 28.3 0 0 1-1.67-2.69 18.17 18.17 0 0 0-1.18-1.86 11.48 11.48 0 0 0-1.24-1.59l-.15-.17-.3-.36-.87-1.1a26.37 26.37 0 0 0-5.46-5.34 8.44 8.44 0 0 0-2.2-1.26 1.74 1.74 0 0 0-1.62.12 1.12 1.12 0 0 0-.24.25.51.51 0 0 0-.06.3 2.18 2.18 0 0 0 .44.81 5.44 5.44 0 0 0 2 1.48 11.74 11.74 0 0 1 2.26 1.71c1 .87 2.07 1.95 3.12 3s2 2.19 2.77 3.1a13.81 13.81 0 0 1 .87 1.17 1.85 1.85 0 0 1 .3.66.25.25 0 0 0 0 .12l.07.15c.06.12.15.27.26.45.21.36.51.81.83 1.28a30.87 30.87 0 0 1 3.6 7c.5 1.28 1.09 2.75 1.32 3.24s.82 1.8 1.33 2.92c.25.55.48 1.07.65 1.46.08.2.15.36.2.47l.05.13a.2.2 0 0 0 0 .05 1.21 1.21 0 0 0 .05.14l.19.45c.17.38.39.88.64 1.41s.47 1 .63 1.44l.19.49c0 .06 0 .11.05.15a.45.45 0 0 1 0 .06.43.43 0 0 0 0 .11 1.42 1.42 0 0 0 .05.16l.15.47c.14.37.31.85.51 1.34a21.32 21.32 0 0 1 1.2 3.26c0 .09.08.34.19.7s.23.8.38 1.25a73.49 73.49 0 0 1 1.86 9.45c.07.69.25 2.44.42 3.88s.3 4.13.3 6a17.78 17.78 0 0 1-.12 3.08 3 3 0 0 1-.83 1.41 5.68 5.68 0 0 1-1.05 1.07.24.24 0 0 1-.11 0 .44.44 0 0 1 0-.23.51.51 0 0 0-.09-.24 2.85 2.85 0 0 0-.21-.31 10.56 10.56 0 0 0-.73-.83c-.61-.63-1.42-1.39-2.25-2.12s-1.67-1.43-2.34-1.93a7.84 7.84 0 0 0-.86-.57 1.07 1.07 0 0 0-.29-.14.28.28 0 0 0-.25 0 .51.51 0 0 1 0-.16.52.52 0 0 0 0-.4.35.35 0 0 0-.33-.2.35.35 0 0 1-.13 0 .13.13 0 0 0 0-.08 1.46 1.46 0 0 0-.09-.16c-.09-.13-.22-.3-.39-.5-.33-.4-.8-.93-1.35-1.49a29.32 29.32 0 0 1-2.83-3.42c-.24-.38-.49-.73-.69-1l-.27-.3-.11-.09a.25.25 0 0 0-.13 0s-.05 0-.08-.06a.45.45 0 0 1-.05-.22.75.75 0 0 0-.09-.28 1.93 1.93 0 0 0-.2-.36 7.67 7.67 0 0 0-.66-.92 21.14 21.14 0 0 1-1.81-2.81c-.25-.47-.52-1-.76-1.35a6.84 6.84 0 0 0-.55-.83 4.5 4.5 0 0 1-.28-.37 1.46 1.46 0 0 1-.14-.25 5.79 5.79 0 0 0-.32-1.11.74.74 0 0 0-.17-.28.33.33 0 0 0-.23-.12.14.14 0 0 1-.09 0 .08.08 0 0 1 0-.07.57.57 0 0 0 0-.29 2.84 2.84 0 0 0-.11-.37 9.69 9.69 0 0 0-.39-.92 7.15 7.15 0 0 0-.48-.82 1.45 1.45 0 0 0-.2-.25.34.34 0 0 0-.11-.07.22.22 0 0 0-.11 0 1.39 1.39 0 0 1 0-.44 1.74 1.74 0 0 0 0-.6.58.58 0 0 0-.22-.42.57.57 0 0 1-.17-.29A1.94 1.94 0 0 1 161 68a3.65 3.65 0 0 0-.19-1 9.54 9.54 0 0 0-.44-1.19c-.17-.38-.34-.77-.46-1.1a6.32 6.32 0 0 1-.25-.73c0-.15-.14-.59-.3-1.21s-.37-1.42-.59-2.22a34.5 34.5 0 0 1-.92-4.16c-.07-.69-.21-1.79-.32-2.45s-.23-1.49-.28-1.84-.15-1-.25-1.5a33.69 33.69 0 0 1-.82-6.28 2.45 2.45 0 0 0-.07-.67.67.67 0 0 0-.09-.21.24.24 0 0 0-.1-.06.14.14 0 0 0-.09 0 1.15 1.15 0 0 1 0-.44 5.43 5.43 0 0 0 0-1.1c0-.47-.11-1-.2-1.54-.37-2-.64-4.2-.79-6-.26-3.36-.39-5.34-.39-6.49a5.28 5.28 0 0 1 .08-1.17c.06-.22.13-.29.22-.32zm79.53 76.63a19.71 19.71 0 0 0-9.77 4.83 27.75 27.75 0 0 0-4.19 5.48 18 18 0 0 0-2.46 5.47c0 .34-.1.67-.15.91s-.06.23-.08.31a.46.46 0 0 1 0 .09.18.18 0 0 0 0 .12v.57c0 .34 0 .79.11 1.27a22.62 22.62 0 0 0 .47 2.77 6.37 6.37 0 0 0 1.22 2.63.78.78 0 0 0 .68.33c.24 0 .42-.23.54-.57a.4.4 0 0 1 .26-.25 1.2 1.2 0 0 1 .59 0 1.86 1.86 0 0 0 1.17-.09 17.66 17.66 0 0 0 2.3-1.2 9.27 9.27 0 0 1 .88-.45l.34-.14a.73.73 0 0 1 .18 0 .94.94 0 0 0 .38-.14l.54-.35c.42-.3.94-.7 1.47-1.15a22.58 22.58 0 0 0 2.77-2.65c2.6-3.21 3.39-5.06 4.42-10.42a15.33 15.33 0 0 0 .3-2.79 9.64 9.64 0 0 0-.46-3.3 2.57 2.57 0 0 0-.57-1 1 1 0 0 0-.82-.31zM233 106a1.74 1.74 0 0 1 .43 0 .58.58 0 0 1 .19.11 1.61 1.61 0 0 1 .1.38 6 6 0 0 1 .05.67 20.43 20.43 0 0 1-.17 2.82c-.06.47-.14.93-.22 1.3a3.5 3.5 0 0 1-.25.76 1.37 1.37 0 0 1-.19-.18 5.6 5.6 0 0 1-.61-.82 11 11 0 0 0-1.44-1.85 6.45 6.45 0 0 0-1.95-.92l-1.1-.33 1-.68A9.32 9.32 0 0 1 233 106zm-3.13 6.69a2 2 0 0 1 .84.2 2.17 2.17 0 0 1 1.17 2.12 2.61 2.61 0 0 1-1.29 2.25 1 1 0 0 1-.71.14 2.64 2.64 0 0 1-.89-.51 2.54 2.54 0 0 1-.93-2.67 1.88 1.88 0 0 1 1.81-1.53zm-49 1.32a2.33 2.33 0 0 1 .84.2 2.2 2.2 0 0 1 1.17 2.12 2.61 2.61 0 0 1-1.29 2.25 1 1 0 0 1-.72.14 2.39 2.39 0 0 1-.88-.51 2.53 2.53 0 0 1-.93-2.67 1.87 1.87 0 0 1 1.81-1.53zm4.32 3.31l.33.68a5.8 5.8 0 0 1 .31 1.32 20 20 0 0 1 .22 2 16.32 16.32 0 0 0 .2 1.86 4.51 4.51 0 0 0 .14.62 1 1 0 0 0 .08.21.32.32 0 0 0 .1.13.28.28 0 0 1 .12.15v.11c0 .05 0 0 0 0a.56.56 0 0 1-.17 0 3.19 3.19 0 0 1-.53-.16 14.72 14.72 0 0 1-1.63-.7c-.61-.31-1.16-.61-1.56-.85a5.49 5.49 0 0 1-.48-.3l-.12-.1a.67.67 0 0 0 .06-.12c.05-.11.13-.24.22-.4.19-.32.45-.74.74-1.16s.55-.84.74-1.17a3.81 3.81 0 0 0 .23-.42s0-.1.07-.14a.45.45 0 0 0 0-.11.65.65 0 0 1 0-.1 1.48 1.48 0 0 1 .11-.22c.1-.16.23-.36.37-.54zm35.66.22h.08a.66.66 0 0 1 .17.15 6.51 6.51 0 0 1 .52.81 9.49 9.49 0 0 0 1.53 2 5.46 5.46 0 0 0 1.84.92 6.05 6.05 0 0 0 1 .23 1.64 1.64 0 0 0 .75 0 .83.83 0 0 1 .26-.07v.07a2.22 2.22 0 0 1-.18.22 6 6 0 0 1-.7.64 8.4 8.4 0 0 1-2.41 1.32 2.79 2.79 0 0 1-1.83.16 1 1 0 0 0-.64-.16 1 1 0 0 0-.57.34 1.32 1.32 0 0 1-.37.26h-.17a.6.6 0 0 1-.09-.23 3.8 3.8 0 0 1-.07-.49 12.71 12.71 0 0 1 0-1.44 14.1 14.1 0 0 1 .33-3q.21-.81.36-1.23a1.06 1.06 0 0 1 .27-.45zm-13.72 25h-2.85a25.93 25.93 0 0 0-5.64.59 6.79 6.79 0 0 0-3.18 1.71 1.6 1.6 0 0 0-.57.81 2.93 2.93 0 0 0 0 1.17 15.55 15.55 0 0 0 4.59 8.47 8.19 8.19 0 0 1 1.3 1.49 2.66 2.66 0 0 1 .27 1.31c.07 3.76-.06 5.72-.5 7.16a1.82 1.82 0 0 1-.47.55 6.78 6.78 0 0 1-1 .69 4.3 4.3 0 0 1-1.24.58 2.11 2.11 0 0 1-1.06-.17 6.66 6.66 0 0 1-2.1-1.42 12.5 12.5 0 0 1-1.82-2.7 13.05 13.05 0 0 1-.66-1.5 3.37 3.37 0 0 1-.27-1.09 3.14 3.14 0 0 0-.33-1.32 1.34 1.34 0 0 0-1.06-.61 1.27 1.27 0 0 0-.59.06.58.58 0 0 0-.4.36 1.84 1.84 0 0 0-.15 1.08 12.65 12.65 0 0 0 .55 1.92 17.46 17.46 0 0 0 1.83 3.6 16.7 16.7 0 0 0 2.3 2.68 7.71 7.71 0 0 0 1.05.87 2.85 2.85 0 0 0 .41.22.46.46 0 0 0 .34 0 .7.7 0 0 1 .32 0 1.8 1.8 0 0 1 .43.14 3 3 0 0 0 1.89-.07 8.8 8.8 0 0 0 2.4-1.06 5.7 5.7 0 0 0 1.8-2.08 3.78 3.78 0 0 1 .59-1 .22.22 0 0 1 .18-.06 1 1 0 0 1 .27.13 1.9 1.9 0 0 1 .37.31.57.57 0 0 1 .13.25.68.68 0 0 0 .11.31 2.27 2.27 0 0 0 .26.36 8.7 8.7 0 0 0 .86.82 8.21 8.21 0 0 0 2.06 1.32 5 5 0 0 0 1.77.38 3 3 0 0 0 1.47-.42 4.7 4.7 0 0 1 .71-.3 2.05 2.05 0 0 1 .51-.13 1 1 0 0 0 .5-.19 2.08 2.08 0 0 0 .5-.44 2.27 2.27 0 0 1 .48-.4.85.85 0 0 1 .42-.16 1.33 1.33 0 0 0 .61-.27 8.59 8.59 0 0 0 .91-.67c.7-.56 1.53-1.31 2.35-2.1s1.6-1.61 2.21-2.32a11.25 11.25 0 0 0 .76-.94 2.19 2.19 0 0 0 .37-.67 1.92 1.92 0 0 0 .05-.62 1.36 1.36 0 0 0-.93-1.27 1 1 0 0 0-.73.11 1.48 1.48 0 0 0-.55.77 4.67 4.67 0 0 1-.47.8c-.23.34-.54.75-.87 1.16a15.49 15.49 0 0 1-1.83 2 27.53 27.53 0 0 1-3.64 2.51 8.83 8.83 0 0 1-2.8 1.12 1.62 1.62 0 0 1-1-.09 4.75 4.75 0 0 1-1.14-1 12 12 0 0 1-3-6.66 10.73 10.73 0 0 1 .07-3 1.23 1.23 0 0 1 .37-.6 4.36 4.36 0 0 1 .78-.52 17.61 17.61 0 0 0 5.76-6.22 6.57 6.57 0 0 0 .5-2.5 4.23 4.23 0 0 0-.16-1.38 2.26 2.26 0 0 0-.67-.92 3.14 3.14 0 0 0-1.32-.78 10.35 10.35 0 0 0-2.42-.24zm-.45 2.58a2.33 2.33 0 0 1 .84.2 2.2 2.2 0 0 1 1.17 2.12 2.59 2.59 0 0 1-1.29 2.25 1 1 0 0 1-.72.14 2.39 2.39 0 0 1-.88-.51 2.53 2.53 0 0 1-.93-2.67 1.88 1.88 0 0 1 1.81-1.53zM291 226.76zM63 104.66a52.75 52.75 0 0 0-9.37.77A51.23 51.23 0 0 0 47 107.8a2.78 2.78 0 0 1-1 .42 6.22 6.22 0 0 0-1.63.87 5.49 5.49 0 0 1-1.71.88 18.83 18.83 0 0 1-2.65-.73 14.94 14.94 0 0 0-3.45-.73 18.67 18.67 0 0 0-5.29 1.42c-.32.14-1.38.48-2.35.79a16.49 16.49 0 0 0-2 .72 16.21 16.21 0 0 1-2.49.73 23.59 23.59 0 0 0-2.62.74 10.5 10.5 0 0 1-3.07 1 5.49 5.49 0 0 0-1.61.5 30.33 30.33 0 0 1-4.84 2 1.46 1.46 0 0 0-.81.44 2.63 2.63 0 0 1-1.12.56 20.17 20.17 0 0 0-2.51.88 10.18 10.18 0 0 1-2.41.76 4.32 4.32 0 0 0-1.69.67 11.54 11.54 0 0 1-1.6.87c-.87.33-2.09 2.5-2.13 3.82-.07 2.75 2.82 6.12 7.61 8.89s9.42 6.55 10 8.13a23.93 23.93 0 0 1 0 7.92c-.19.45-.46 1.15-.62 1.56s-.47 1.09-.69 1.55a4.12 4.12 0 0 0-.41 1.56 5.1 5.1 0 0 1-.7 1.94 8.75 8.75 0 0 0-.88 2.31 7.89 7.89 0 0 1-.61 1.87 8.79 8.79 0 0 0-.61 2.43 4.2 4.2 0 0 1-.5 1.81 21.31 21.31 0 0 0-.3 5c0 4.37.13 5.61.89 7.56a8 8 0 0 1 .29 1.17c.07.4.24.77.39.82s.27.4.27.77a1.51 1.51 0 0 0 .44 1 1.19 1.19 0 0 1 .44.78 15.73 15.73 0 0 0 1.2 2.82c.65 1.31 1.25 2.59 1.31 2.83a41.16 41.16 0 0 0 2.14 5.63c1.85 4 2.24 7.56 1 9.39a5.15 5.15 0 0 0-.63 1.31 25.35 25.35 0 0 0-.42 5.06 3.71 3.71 0 0 1-.24 1.82c-.17.11-.11.65.14 1.38.72 2 .41 4.25-1 7.41-.36.8-1 2.18-1.38 3.07s-.95 2.06-1.24 2.62a37.1 37.1 0 0 0-2.34 6.46c0 .29-.1.56-.22.61a7 7 0 0 0-1.24 2.74 2.41 2.41 0 0 1-.27.94 21.51 21.51 0 0 0-.76 2.26 16.64 16.64 0 0 1-.77 2.26 2.78 2.78 0 0 0-.25 1 1.33 1.33 0 0 1-.29.82 36.42 36.42 0 0 0-1.61 6.58 8.26 8.26 0 0 1-.25 1.31 18.26 18.26 0 0 0-.34 1.88 18.85 18.85 0 0 1-.43 2.32c-.67 2.43-1.28 15-1 16.56.18 1 1.13 1.56 1.7 1a7.74 7.74 0 0 0 .39-2.87c0-1.4.12-9 .22-9.4s.25-1.37.33-2.16a7.66 7.66 0 0 1 .29-1.66 33.83 33.83 0 0 0 .88-4.22 135.63 135.63 0 0 1 3.9-14.53c.17-.45.24-.81.15-.81s.05-.36.3-.8a25.83 25.83 0 0 0 1.16-3c.39-1.23.85-2.48 1-2.78s.71-1.6 1.23-2.88 1.45-3.27 2.07-4.43a22.28 22.28 0 0 0 2.31-7c0-.93.41-1.05 1.51-.46a42.05 42.05 0 0 0 5.21 2.1c.56.2 1.68.64 2.48.95a41.65 41.65 0 0 0 6.14 1.86c3.26.73 4.38 1 5.85 1.45a60.5 60.5 0 0 0 10.81 1.59l8.34.61c6.62.49 22.83.23 26.6-.41l11.26-1.95a23.79 23.79 0 0 0 4.67-1.45 11.3 11.3 0 0 1 4.36-.76c.9.23 5 4.31 6.46 6.44a6.6 6.6 0 0 0 1.36 1.63c.14 0 .24.15.24.32 0 .34 1 1.56 2.75 3.48.51.56 1.64 1.91 2.49 3a12.22 12.22 0 0 0 1.75 2 10.2 10.2 0 0 1 2.08 2.91 1.33 1.33 0 0 0 .38.65c.8.82 5.76 10 5.76 10.66 0 .22.09.39.22.39s.39.54.59 1.19c.62 2 4.34 9.92 4.8 10.22a1.73 1.73 0 0 1 .38.84 3 3 0 0 0 .37 1 16 16 0 0 1 1 2.44c.58 1.78.76 2.05 1.13 1.75s.4-.25.24.17c-.24.66.49 1 1.08.52s.08-2.68-1-4.39c-.15-.25-.43-.77-.61-1.17-1.37-3-2-4.4-2.43-5.41-.27-.65-1-2.23-1.61-3.51s-1.47-3.26-1.91-4.39a27.27 27.27 0 0 0-1.31-2.91c-.29-.49-1-1.81-1.61-2.93s-1.44-2.64-1.91-3.36a21.86 21.86 0 0 1-1.14-1.95 2.11 2.11 0 0 0-.58-.81 3.65 3.65 0 0 1-.78-1.19 7.54 7.54 0 0 0-1.12-1.66c-.36-.37-1.76-2-3.1-3.59s-2.6-3.05-2.78-3.21a20.74 20.74 0 0 1-1.33-1.7c-1.13-1.59-4.49-5.63-6.07-7.32-.69-.74-.94-1.19-.71-1.27.5-.19.47-1.25 0-1.82s-.58-1.58-.92-5.63a10.25 10.25 0 0 0-1-3.57 10 10 0 0 1-.87-2.24 9.35 9.35 0 0 1 .86-2.2 49.62 49.62 0 0 0 2.67-7.72 26.78 26.78 0 0 1 .87-2.62c.58-1.47.75-2.51 1-6.15a76.45 76.45 0 0 0-1.07-14c-.8-4.51-.89-13.83-.16-17.65a18 18 0 0 1 .55-2.39c.18-.19 2.18 2.33 2.4 3a4.13 4.13 0 0 0 2.79 2.11c.73 0 1.18-.46 2-2a12.23 12.23 0 0 0 1-4.17 92.3 92.3 0 0 1 3.58-13.65c3.35-9.53 3.54-10.22 3.43-12.91-.12-3.4-.93-4.84-3.35-5.92a13.12 13.12 0 0 0-3.8-1.18c-.41-.08-1.57-.35-2.61-.6s-2.22-.49-2.63-.55a25.1 25.1 0 0 1-2.8-.71c-1.13-.34-2.38-.66-2.78-.72a4.72 4.72 0 0 1-1.32-.4 16.31 16.31 0 0 0-2.19-.83c-.89-.29-2.92-1.14-4.53-1.9l-2.92-1.39-3.8.05c-5 0-7.65.87-7.54 2.34 0 .41-.08.75-.23.75a.27.27 0 0 1-.28-.24 7.38 7.38 0 0 0-2.11-1.19c-1.17-.53-3-1.4-4-1.92a30.39 30.39 0 0 0-3.51-1.48c-.88-.28-2.13-.75-2.77-1-2.94-1.34-8-2.07-13.33-2.07zm1.83 2a26.1 26.1 0 0 1 7.84.93 6.78 6.78 0 0 0 .88.25c.42.08 3.48 1.22 5.55 2a6 6 0 0 0 1.32.43 1.76 1.76 0 0 1 .73.38 11.22 11.22 0 0 0 1.75 1 43.52 43.52 0 0 1 4.83 2.43 16.16 16.16 0 0 0 1.53.86c.36.16.66.39.66.52s.37.46.84.73a97.18 97.18 0 0 1 8.8 8.72c.56.7 1.42 1.88 1.9 2.63a54.7 54.7 0 0 0 5.44 7.2 2.31 2.31 0 0 1 .86 1.2 3.29 3.29 0 0 0 .57 1.36 3.55 3.55 0 0 1 .59 1.48 1.58 1.58 0 0 0 .24.87 8 8 0 0 1 .61 2 21.41 21.41 0 0 0 2.25 5.5c.56 1.07.57 1.86 0 3.9-.91 3.4-1.56 14.36-1 16.95.15.65.44 2.74.69 4.67s.5 3.9.57 4.38.2 2.86.27 5.26c.14 4.67-.12 6.72-1.26 10a14.73 14.73 0 0 0-.63 2.23 32.24 32.24 0 0 1-2.09 6.13 9.34 9.34 0 0 0-.59 1.29 4.69 4.69 0 0 1-.47 1c-1.15 2.09-.85 1.94-6.49 3.18-.73.15-2.18.49-3.22.73s-2.23.5-2.64.57-1.62.32-2.71.57a17.34 17.34 0 0 1-3.36.46c-1.36 0-1.37 0-.6-.43a26 26 0 0 1 2.92-1.14 32.14 32.14 0 0 0 3.38-1.32 7.36 7.36 0 0 1 1.51-.61c.41 0 1.83-1.77 1.71-2.13a1.44 1.44 0 0 0-.55-.6c-.36-.22-.74-.07-1.59.63a4.57 4.57 0 0 1-1.49.94 5.14 5.14 0 0 0-1.32.41c-1.66.72-8.51 3.28-9.73 3.63-3.94 1.16-12.32 1.48-19.87.75l-7.31-.67a32.17 32.17 0 0 1-9.16-2c-1.65-.55-3.14-1-3.3-1a13 13 0 0 1-4.37-2.4c-.57-.53-1.55-1.35-2.16-1.84s-1.64-1.29-2.28-1.81a6 6 0 0 0-1.37-.95 6.1 6.1 0 0 1-1.34-1c-.62-.56-1.26-.93-1.42-.83s-.18 0-.07-.17.1-.34-.05-.34a2.16 2.16 0 0 1-.82-.51c-.92-.82-2.36-1.53-2.61-1.31s-.15.07 0-.12-1.4-1.25-2.4-1.41a.83.83 0 0 0-.91.79 3.28 3.28 0 0 0 1.23.84 7.52 7.52 0 0 1 1.83 1.29 9.53 9.53 0 0 0 1.91 1.41 9.74 9.74 0 0 1 1.88 1.43 48.12 48.12 0 0 0 5.08 4.45 34.71 34.71 0 0 1 2.79 2.44 5.75 5.75 0 0 0 1.9 1l3.2 1.16c.88.33 2.07.73 2.63.89a18.34 18.34 0 0 1 1.9.69 12 12 0 0 0 1.9.58c1.48.29 2.11.49 2 .63a16.5 16.5 0 0 1-2.87-.46 89.83 89.83 0 0 1-12.55-3.74c-1.53-.55-3.89-1.34-5.25-1.75a17.22 17.22 0 0 1-3.51-1.43 4.1 4.1 0 0 0-1.41-.69 5.61 5.61 0 0 1-3.09-2.13 8.53 8.53 0 0 1-.18-1.71 8.46 8.46 0 0 0-.43-2.26c-.24-.66-.35-1.21-.26-1.21s.05-.16-.11-.36a1.57 1.57 0 0 1-.29-.84 8.64 8.64 0 0 0-.87-2.19 20.22 20.22 0 0 1-1.32-3.15c-.23-.76-.51-1.39-.64-1.39s-.23-.21-.23-.47a11.21 11.21 0 0 0-.93-2.4c-.52-1.07-1-2-1-2.09s-.13-.35-.23-.59a36.16 36.16 0 0 1-2.14-6.86A29.62 29.62 0 0 1 16 160.68c.16-.49.47-1.48.7-2.2s.88-2.63 1.46-4.24a29.35 29.35 0 0 0 2.05-7.74 14.59 14.59 0 0 1 .34-2.13 8.1 8.1 0 0 1 2.28 1.71c1.74 1.55 2.31 1.9 3 1.83s1.44-.94 1.68-2.1a23.69 23.69 0 0 1 .91-3.15c.37-1 .47-1.83.88-7.56.32-4.29.48-5.48.87-6.72a9.51 9.51 0 0 1 2.13-2.12 21 21 0 0 0 3.27-3.43c.73-1 2-2.64 2.79-3.63s1.93-2.37 2.49-3.09c2.92-3.8 4.74-5.36 7.91-6.84 3.65-1.7 4.72-2 9.18-2.34q3.82-.32 6.92-.3zm-24.87 4.08a1.43 1.43 0 0 1 .84.34 2 2 0 0 1 .59.73 10.56 10.56 0 0 1-1.32 1.83c-1.17 1.44-3.57 4.48-4.18 5.27-.12.16-.67 1-1.22 1.75-1.18 1.72-3.19 4-3.55 4-.54 0-.08-4.1.67-5.85 1.92-4.48 5.92-8.25 8.17-8zm-5.63.46c.21 0 .34 0 .34.07a6.32 6.32 0 0 1-.95 1.28 11.1 11.1 0 0 0-2.26 3.29.29.29 0 0 1-.25.3c-.14 0-.53.62-.88 1.38a21.38 21.38 0 0 0-1.5 6.07c-.15 1-.34 2.08-.43 2.48-.31 1.34-1.33 10.78-1.33 12.26a18.37 18.37 0 0 1-.47 3.43c-.26 1.1-.49 2.15-.53 2.35a1.1 1.1 0 0 1-.27.55 1.32 1.32 0 0 0-.2.75c0 .3-.08.53-.17.53S23 143.71 20.36 141c-5.36-5.41-7.55-7-13.15-10-2.43-1.28-5.3-4.55-5.3-6s1.47-2.86 4.17-3.87c1.32-.5 2.67-1 3-1.17s.92-.35 1.33-.47 2-.82 3.65-1.58a46.6 46.6 0 0 1 4.51-1.91 19.49 19.49 0 0 0 1.9-.7 2.71 2.71 0 0 1 .59-.24 42.69 42.69 0 0 0 4.13-1.44 5 5 0 0 1 1.32-.41 24 24 0 0 0 3.11-.88 39.43 39.43 0 0 1 3.86-1 7.84 7.84 0 0 1 .83-.08zm60.9.1a11.1 11.1 0 0 1 4.05.64c3.61 1.67 6.35 6.48 7.19 12.63.39 2.81.69 7 .5 7 0 0-.54-.68-1.14-1.53s-1.61-2.21-2.22-3a8.82 8.82 0 0 1-1.12-1.71c0-1-9.5-10.48-11.91-11.92-.52-.32-1-.68-1-.8a3.67 3.67 0 0 1 1.4-.77 12.42 12.42 0 0 1 4.21-.57zm10 2.5a11.09 11.09 0 0 1 2.09.88 8.9 8.9 0 0 0 2.19.87 8.56 8.56 0 0 1 1.79.42 43.07 43.07 0 0 0 7.08 1.73 24.53 24.53 0 0 1 5.34 1.37c.33.15 1.09.46 1.7.7a2.43 2.43 0 0 1 1.53 1.47c.77 1.83.73 4.13-.13 7a23.07 23.07 0 0 1-1.05 3.08c-.48.72-1.3 3.22-1 3s.26 0 .26.14-.19.32-.43.32-.43.26-.43.64a23.69 23.69 0 0 1-1.49 5 3.09 3.09 0 0 0-.27 1.23 1.24 1.24 0 0 1-.26.87c-.29.18-.62 1.51-.8 3.24a8 8 0 0 1-.32 1.6 4.33 4.33 0 0 0-.25.88c-.06.5-.26 1.64-.57 3.36a6.17 6.17 0 0 1-.63 1.84l-.42.68-.52-.68a5.94 5.94 0 0 1-.65-1 14.34 14.34 0 0 0-2.33-3.36c-.15 0-.27-.33-.27-.72a2.31 2.31 0 0 0-.71-1.39 13.6 13.6 0 0 1-2.5-4.6 17.92 17.92 0 0 0-1.23-3.92 25.16 25.16 0 0 1-1.3-5.89c-.07-.64-.25-2.08-.41-3.21s-.43-3.23-.6-4.67a43.41 43.41 0 0 0-.74-4.38c-.43-1.67-2.19-5.22-2.77-5.57-.39-.25-.32-1 .1-1zm-39.73 7.6c-2.2 0-6.16.62-7.28 1.34a1.4 1.4 0 0 1-1.08.25c-.55-.21-3.29 1.13-3.52 1.73s.09.84.5.52a14.37 14.37 0 0 1 4-1.06 6.29 6.29 0 0 0 1-.16 2.28 2.28 0 0 1 .55-.15 18.9 18.9 0 0 0 2-.6c1.68-.56 3.68-.74 3.68-.34 0 .16.33.2.74.1s.73-.06.73.1.18.22.41.13c.61-.23 3 1.23 4.1 2.59 1.4 1.62 1.85 3.14 1.74 5.81-.06 1.57 0 2.39.32 2.78s.42.53 1 0a6 6 0 0 0 .93-1.76 12.51 12.51 0 0 1 3.38-5.85l1.35-1.1h2.83a12 12 0 0 1 4.59.6c4.94 1.75 7.43 3.33 9.18 5.85.8 1.16 1.35 1.21 1.72.15a1.11 1.11 0 0 0-.15-1.3 1.06 1.06 0 0 0-.73-.44c-.16 0-.33-.18-.38-.47a1.61 1.61 0 0 0-.53-.88l-1.26-1a12 12 0 0 0-3.78-2.24 3.69 3.69 0 0 1-1.29-.61c-.55-.48-4.83-1.36-7.24-1.49a5.74 5.74 0 0 0-2.63.34 3.64 3.64 0 0 1-1.3.42c-.56 0-3.28 2.51-3.54 3.29-.22.62-.78.68-.78.07 0-.84-2.17-3.92-3-4.26-.44-.19-.81-.44-.81-.57 0-.36-1.93-1.16-2.83-1.16a2 2 0 0 1-1.17-.32 2.5 2.5 0 0 0-1.45-.26zm-12.65 3a.93.93 0 0 0-.24.06 13.9 13.9 0 0 1-1.54.46 28.1 28.1 0 0 0-5.55 2.46 6.85 6.85 0 0 1-1.63.74 1.84 1.84 0 0 0-.87.6c-.46.51-.48.64-.11.87.73.47 1.48.31 3.32-.69a27.47 27.47 0 0 1 2.77-1.4 21.58 21.58 0 0 0 2.55-1.28c1-.57 1.52-1.12 1.53-1.45s-.06-.43-.26-.4zm-8 12.86a6.63 6.63 0 0 0-1.47.45c-.85.33-2.39.82-3.43 1.09a19.31 19.31 0 0 0-3.6 1.36c-1.49.78-1.7 1-1.63 1.65s.21.76 1 .69a2 2 0 0 0 1.2-.52 1 1 0 0 1 .67-.42 4.14 4.14 0 0 0 1.19-.43 7.71 7.71 0 0 1 2-.62 4.11 4.11 0 0 0 1.45-.45 5.87 5.87 0 0 1 2-.46c1.57-.16 1.81-.09 4.43 1.26a21.58 21.58 0 0 1 3.89 2.51 10.68 10.68 0 0 0 2 1.55c.86.45.95.45 1.32 0s.33-.58-.1-.9l-1-.81a2 2 0 0 0-.68-.43 4.64 4.64 0 0 1-1-.87 15.91 15.91 0 0 0-2.83-2 19.13 19.13 0 0 1-2.52-1.62 5.07 5.07 0 0 0-1.66-.86 2.84 2.84 0 0 0-1.18-.16zM98 139.42a11.56 11.56 0 0 0-4.1.9 5.27 5.27 0 0 1-1.07.33c-.13 0-.31.2-.41.44a.7.7 0 0 1-.54.45 6.43 6.43 0 0 0-1.81 1.46c-1.29 1.33-1.39 1.52-1 1.92.55.55 1.07.32 3.36-1.42 3.78-2.87 7.7-2.54 11.1.92 1.18 1.21 1.64 1.5 2.11 1.35 1.11-.35.73-1.38-1.17-3.31a7.55 7.55 0 0 0-2.29-1.82 1.21 1.21 0 0 1-.76-.25 7.81 7.81 0 0 0-1.45-.68 5.57 5.57 0 0 0-2-.3zm-54.76 6.32a37.53 37.53 0 0 0-8 .88l-1.54.38c-.44.09-.81.29-.81.44s-.1.25-.22.22a3 3 0 0 0-2.12 1.23.79.79 0 0 0 .13 1.13 1.78 1.78 0 0 1 .46.88 21.78 21.78 0 0 0 3 3.37c3 3 3 3 5.35 3.62 2.66.71 3.56.76 5.25.32 1.5-.39 2.08-.67 5.26-2.59 3.42-2 4.76-3.11 4.92-3.91.07-.36.14-.79.16-1 .07-.55-.79-1.07-1.47-.89-.46.12-1-.15-2-1a14.34 14.34 0 0 0-4.66-2.69 16.09 16.09 0 0 0-3.67-.37zM95.67 147a5.18 5.18 0 0 0-2.37.32 6.29 6.29 0 0 1-1.43.61c-.6.2-1.1.48-1.1.63s-.19.26-.42.26a1.05 1.05 0 0 0-.74.57 1.73 1.73 0 0 1-.83.74 1.94 1.94 0 0 0-.91.85c-.31.58-.27.87.23 1.85 1 1.93 3.54 4.76 4.3 4.76.24 0 .42.1.42.23a9.47 9.47 0 0 0 3.36 1.44l1.65.25a9.44 9.44 0 0 0 6-1.59 16.4 16.4 0 0 0 4.42-4 2.82 2.82 0 0 0 .33-1.11c0-.71-1.09-2.24-1.62-2.24-.23 0-.42-.12-.42-.27 0-.45-2.73-2-4.4-2.45a27.13 27.13 0 0 0-6.49-.87zm-59.37 1.47a4.77 4.77 0 0 1 .25 2 14 14 0 0 0 .28 2.75c.2.61 0 .52-1.52-.67a9.12 9.12 0 0 1-2.1-2.15c-.32-.7-.3-.85.27-1.31a3.06 3.06 0 0 1 1.63-.51 6.33 6.33 0 0 0 1.19-.08zm9.06.43a1.17 1.17 0 0 1 1.12.72c.26.65-.39 1.32-1 1.38a1 1 0 0 1-1.05-.47 1.09 1.09 0 0 1 1-1.63zm2.94.23a10.09 10.09 0 0 1 1.19.59c1.94 1.07 2.85 1.87 2.75 2.4-.06.29-.22.51-.38.51a8.88 8.88 0 0 0-3.17 1.6c-.35.43-1.18.63-1.18.28a4.86 4.86 0 0 1 .42-1 5.62 5.62 0 0 0 .34-2.62 7 7 0 0 1 0-1.79zm44.34.38a.22.22 0 0 1 .13.05 1.94 1.94 0 0 1-.18 1.13 7.07 7.07 0 0 0-.35 2.07 3.72 3.72 0 0 0 .61 2c.32.46.46.84.28.84-.47 0-2.55-2.18-3.1-3.24s-.47-.94.35-1.63a4.62 4.62 0 0 1 2.26-1.18zm9 .87a1.19 1.19 0 0 1 1.13.72c.26.66-.38 1.31-1 1.39a1 1 0 0 1-1.06-.48 1.09 1.09 0 0 1 .94-1.63zm3 1a1.21 1.21 0 0 1 .33.13 4.43 4.43 0 0 1 1.09.93c.67.8.67.85-.2 1.89a9.21 9.21 0 0 1-2 1.44 4.13 4.13 0 0 0 .75-2.28 4 4 0 0 0-.37-1.62c.12-.33.23-.52.41-.49zm-34.71 2.33c-1.9 0-3.5.79-5.06 3.35-.47.42-1.78.59-7.35 1-2.66.18-7 1.7-8.51 3-2.62 2.2-7.9 8-7.9 8.72a9.37 9.37 0 0 1-2.92 2.37 5.83 5.83 0 0 1-1.9.57c-2.69.19-8.63 1.91-8.63 2.48a.25.25 0 0 1-.26.26 15.14 15.14 0 0 0-2.91 2.8 6.27 6.27 0 0 0-.56 2.48c-.16 2.28.35 3.47 2.24 5.17s3.43.93 1.59-.83c-2.16-2.09-2.58-4.33-1.14-6.17S30 176.28 36 175c3.58-.79 4.95-1.72 8-5.53 2.78-3.42 3-3.69 3.79-4.54a17.64 17.64 0 0 1 4.78-3.32 10.32 10.32 0 0 1 5.33-1.46 6.23 6.23 0 0 0 1.79-.27 19.24 19.24 0 0 1 4.38-.24c.46 0 .74.33 1 1.11s1.44 2.16 3.68 4.4l3.32 3.33v2.83c0 4.31.1 4.14-2.81 4.14a11.07 11.07 0 0 0-5.12 1 46.17 46.17 0 0 0-10.48 5.73c-5.4 3.89-10.41 5.43-13.69 4.19a10.63 10.63 0 0 1-4.73-3.52c-1.42-1.89-2.52-3-2.91-3s-1 1.42-.64 1.82a1.31 1.31 0 0 1 .34.75c0 .74 3.25 4.14 4.83 5 5.16 3 9.44 2.08 18.55-3.76a49 49 0 0 1 6.56-3.8 14.72 14.72 0 0 1 8.21-2 8.48 8.48 0 0 1 5.1 1.25 15.4 15.4 0 0 1 4.64 3.32 25.2 25.2 0 0 1 2.66 3 19.86 19.86 0 0 0 2 2.38 33.85 33.85 0 0 1 2.45 3 8.18 8.18 0 0 0 3 2.41c4.67 2.79 8.3 1.92 9.5-3.58.26-1.18-1-3.2-1.85-3.76-1.3-.87-1.81.1-.8 1.53a2.84 2.84 0 0 1 .07 3.72c-.67 1-1 1.18-2 1.26a8.13 8.13 0 0 1-5.62-2.39c-.65-.67-2.36-2.67-3.8-4.45-4.49-5.51-6.3-7.25-9.06-8.7L74 175.5l-.08-2.66c-.08-2.73.45-3.6 2.71-5.23.56-.41 1.71-1.39 2.61-2.12a17.26 17.26 0 0 0 2.93-3.28l1.29-2 1.68.15a4.41 4.41 0 0 1 2.27.7 4.06 4.06 0 0 0 1.31.74 5.78 5.78 0 0 1 3.68 4c.24 1.24.77 2.56 1 2.56s.27.19.27.41c0 1.13 3.69 6 4.55 6A4.26 4.26 0 0 1 99.6 176c.56.69 1.37 1.62 1.79 2.08a23.15 23.15 0 0 1 3.09 4.23 1 1 0 0 0 .42.61c.5.43.88 2.9.62 4.1a11.11 11.11 0 0 1-2.37 3.15c-2.12 2.23-2.47 2.79-1.89 3.15s2-.7 3.63-2.55c1.84-2.06 2.44-3.13 2.64-4.74a4 4 0 0 1 .28-1.25c.09-.09 0-.39-.12-.69a2.74 2.74 0 0 1-.29-1.12 3.79 3.79 0 0 0-1-1.74 5.65 5.65 0 0 1-1-1.36c0-.67-6.4-7.45-7-7.45-.15 0-.28-.19-.28-.43s-.12-.44-.27-.44-.57-.5-.93-1.1a7.08 7.08 0 0 0-1.27-1.45 1.93 1.93 0 0 1-.65-1 5.39 5.39 0 0 0-.35-1.28c-.16-.4-.47-1.37-.69-2.16a6.43 6.43 0 0 0-2.55-3.56 2.37 2.37 0 0 0-.94-.51.26.26 0 0 1-.29-.22c0-.19-.81-.54-2.47-1.06l-1.12-.43a3.57 3.57 0 0 0-1-.3 2.9 2.9 0 0 1-2.65-1.16 6 6 0 0 0-4.28-2 9 9 0 0 1-1.96-.32c-2.73-.5-4.91-1.25-6.81-1.23zm9 3.89h.2a2 2 0 0 1 1.91 2.49 2.81 2.81 0 0 1-1.67 1.91 2.07 2.07 0 0 1-1.82-1.57c-.12-1 .16-2.59 1.39-2.76zm-56 44.29l1.41.69c.77.38 1.89 1 2.49 1.37a4.39 4.39 0 0 0 1.61.69 3.81 3.81 0 0 1 1.44.56 13.81 13.81 0 0 0 3.76 1.31 7.34 7.34 0 0 1 1.27.67 9.94 9.94 0 0 0 2.33 1 17.22 17.22 0 0 1 2 .6 44.85 44.85 0 0 0 8.76 2.31 2 2 0 0 1 1.13.28c.3.3 2.18.73 5.24 1.2l2.33.38c2.95.55 15.05.37 18.28-.27.4-.07 1.91-.27 3.36-.43s3.75-.5 5.12-.73S86.41 211 87 211s2.82-.47 5-.89 4.08-.74 4.16-.74.15-.27.15-.6c0-.55.05-.57.46-.15.56.55.51.54 1.94.11.63-.19 1-.41.86-.51S100 208 101 208a18.94 18.94 0 0 0 3.45-.51 14.57 14.57 0 0 1 3-.46c1.16 0 1.2 0 2.06 1.74.47 1 .76 1.82.63 1.89a3.2 3.2 0 0 0-.12 1.69c.06.85.16 2 .22 2.51s0 1-.23 1.07l-2.82.86c-2.2.67-7.62 2-11.4 2.79-.72.16-2.69.48-4.38.72l-4.24.62c-2.14.34-19.82.42-24 .13-2.25-.17-5.12-.36-6.39-.44-3.15-.19-5.48-.42-8.07-.77a20.33 20.33 0 0 1-3.53-.67 11 11 0 0 0-1.61-.28 11.19 11.19 0 0 1-1.88-.38c-.56-.17-1.87-.55-2.92-.83-2.6-.71-7.51-2.31-8.83-2.89a9.22 9.22 0 0 0-1.91-.57c-2.07-.27-5.95-2.29-6.64-3.45-1-1.68-.48-6.27.89-8zm32.81 8.17c1 0 2.64.1 4.93.25 2.66.19 4.34.71 2.48.78-1.07 0-4.33-.06-5.19-.17-2.41-.28-3.72-.52-3.72-.71s.47-.16 1.5-.15zm0 0" fill="#373a35"/></g></svg>