<?xml version="1.0" encoding="utf-8"?>
<!-- Generator: Adobe Illustrator 22.1.0, SVG Export Plug-In . SVG Version: 6.00 Build 0)  -->
<svg version="1.1" id="Layer_1" xmlns="http://www.w3.org/2000/svg" xmlns:xlink="http://www.w3.org/1999/xlink" x="0px" y="0px"
	 viewBox="0 0 260 58.4" style="enable-background:new 0 0 260 58.4;" xml:space="preserve">
<style type="text/css">
	.st0{fill:#AFBE23;}
	.st1{fill:#B8BAB6;}
</style>
<g>
	<g>
		<path class="st0" d="M81.8,27.3C81.6,24,79.8,23,76.7,23c-2.7,0-4.9,0.8-5.3,3.5h-2.8c0.6-4.1,4-5.6,8.1-5.6c4.8,0,7.7,2,7.6,6.6
			v9.5c0,1.6,0.1,3.1,0.2,4.5H82l-0.1-2.9h-0.1l-0.1,0.3c-0.9,1.7-3.8,3.3-6.7,3.3c-4,0-7.2-2.3-7.2-6.2c0-2.7,1.8-4.8,4.3-5.8
			c2.9-1.2,6.6-0.8,9.8-0.9V27.3z M75.4,39.8c5.6,0,6.7-4.3,6.4-8.5c-3.7,0.1-11.3-0.5-11.3,4.5C70.5,38.5,72.8,39.8,75.4,39.8z"/>
		<path class="st0" d="M92.1,23.6h-4.3v-2.2h4.3v-4.3l2.6-1v5.3h4.9v2.2h-4.9V37c0,1.8,1,2.8,3,2.8c0.8,0,1.5,0,2.2-0.2v2.1
			c-0.8,0.2-1.8,0.4-2.6,0.4c-5.5,0-5.2-3.2-5.2-5.9V23.6z"/>
		<path class="st0" d="M119.1,12.7h6.4v25.5c0,1.2,0.1,2.5,0.2,3.3h-6.4l-0.2-2.9c-0.4,0.7-0.9,1.5-2.2,2.3c-1.6,1-3.3,1-4.2,1
			c-5.8,0-9.2-3.7-9.2-10c0-6.6,3.9-10.8,9.6-10.8c3.9,0,5.5,2,6.1,2.7V12.7z M114.3,38c1.8,0,3.4-1,4-2.3c0.9-1.7,1-3.7,1-4.7
			c0-3.9-1.8-6.1-4.7-6.1c-4.3,0-4.7,4.7-4.7,6.8C109.9,35,111.1,38,114.3,38z"/>
		<path class="st0" d="M141.3,20.8c7.9,0,11.3,4.9,11.3,10.5c0,5.6-3.5,10.7-11.4,10.7c-6.2,0-11.1-3.5-11.1-10.6
			C130.1,26.7,132.7,20.8,141.3,20.8z M141.4,38c2.8,0,4.7-1.6,4.7-6.9c0-2.7-0.6-6.4-4.8-6.4c-4.6,0-4.7,5-4.7,6.8
			C136.6,36.1,138.2,38,141.4,38z"/>
		<path class="st0" d="M160.8,21.3l4.9,13.6l5-13.6h6.1L169,41.4h-7L154,21.3H160.8z"/>
		<path class="st0" d="M184.6,32.8c0,1.3,0,5.4,4.4,5.4c1.6,0,3.2-0.6,3.8-2.8h5.8c-0.1,1-0.3,2.7-2.1,4.4c-1.6,1.6-4.4,2.3-7.6,2.3
			c-1.8,0-5.4-0.3-7.6-2.5c-2-1.9-2.8-4.6-2.8-7.8c0-3.3,0.9-7.2,4.5-9.5c1.7-1,3.7-1.7,6.1-1.7c3.1,0,6.8,1.1,8.8,4.9
			c1.5,2.7,1.4,5.7,1.3,7.4H184.6z M192.7,29.1c0-0.9-0.1-4.5-3.8-4.5c-2.8,0-4,2.1-4.1,4.5H192.7z"/>
		<path class="st0" d="M204.2,41.4v-2.9h2.9v2.9H204.2z"/>
		<path class="st0" d="M228.9,33.1c0,4.4-2.7,8.8-8.4,8.8c-5.7,0-8.4-4.4-8.4-8.8s2.7-8.8,8.4-8.8C226.3,24.3,228.9,28.7,228.9,33.1
			z M220.5,26.1c-4.3,0-6.1,3.9-6.1,7c0,3.1,1.7,7,6.1,7c4.3,0,6.1-3.9,6.1-7C226.6,30,224.9,26.1,220.5,26.1z"/>
		<path class="st0" d="M235.5,41.4h-2.1V28.5c0-1.3-0.1-2.6-0.2-3.7h2.2l0.1,2.5h0.1c0.6-1.7,2.3-2.9,4-2.9c0.7,0,1.4,0,2.1,0v1.9
			c-0.4,0-0.9-0.1-1.3-0.1c-3.2,0-4.9,2.1-4.9,5.3V41.4z"/>
		<path class="st0" d="M257.8,24.8h2.2c-0.1,1.1-0.2,2.5-0.2,3.7v10c0,3.3,0.2,6.8-3.8,8.5c-1.4,0.6-2.4,0.8-4.1,0.8
			c-3.3,0-7.1-1-7.1-4.5h2.3c0.3,2,2.8,2.7,5.1,2.7c2.8,0,5.4-1.8,5.4-4.6v-3.1h-0.1c-1,2-3.5,3.1-5.8,3.1c-5.4,0-7.7-3.8-7.7-8.4
			c0-4.5,2.2-8.7,7.7-8.7c2.6,0,4.5,1.2,5.9,3.1l0.1-0.1L257.8,24.8z M251.9,26.1c-3.9,0-5.6,3.6-5.6,6.7c0,3,1.7,6.7,5.6,6.7
			c4.1,0,5.7-3.5,5.7-6.8C257.7,29.5,255.8,26.1,251.9,26.1z"/>
	</g>
	<g>
		<path class="st1" d="M29.2,0C13.1,0,0,13.1,0,29.2c0,16.1,13.1,29.2,29.2,29.2c16.1,0,29.2-13.1,29.2-29.2
			C58.5,13.1,45.4,0,29.2,0z M29.2,50.6C17.4,50.6,7.9,41,7.9,29.2c0-11.8,9.6-21.4,21.4-21.4c11.8,0,21.4,9.6,21.4,21.4
			C50.6,41,41,50.6,29.2,50.6z"/>
		<polygon class="st1" points="42.7,23.9 34.7,23.9 34.7,15.8 23.6,15.8 23.6,23.9 15.8,23.9 15.8,34.4 23.6,34.4 23.6,42.7 
			34.7,42.7 34.7,34.4 42.7,34.4 		"/>
	</g>
</g>
</svg>
