<?xml version="1.0" encoding="utf-8"?>
<!-- Generator: Adobe Illustrator 22.1.0, SVG Export Plug-In . SVG Version: 6.00 Build 0)  -->
<svg version="1.1" id="Layer_1" xmlns="http://www.w3.org/2000/svg" xmlns:xlink="http://www.w3.org/1999/xlink" x="0px" y="0px"
	 viewBox="0 0 80 68" style="enable-background:new 0 0 80 68;" xml:space="preserve">
<style type="text/css">
	.st0{fill:#FFFFFF;}
</style>
<g>
	<polygon class="st0" points="49.5,28.7 44,28.7 44,23.2 36.4,23.2 36.4,28.7 30.9,28.7 30.9,36.4 36.4,36.4 36.4,41.9 44,41.9 
		44,36.4 49.5,36.4 	"/>
	<path class="st0" d="M0,0v68h80V0H0z M55,40.6c-0.7,1.3-1.5,2.5-2.4,3.5l2.2,11.8l-8.6-7.3c-4.3,1.7-9.2,1.6-13.7-0.6
		c-8.3-4.2-11.6-14.3-7.4-22.5c4.2-8.3,14.3-11.6,22.5-7.4C55.8,22.2,59.2,32.3,55,40.6z"/>
</g>
</svg>
