<svg id="bc63339e-2646-4254-ae41-fcaf163948cb" data-name="Layer 1" xmlns="http://www.w3.org/2000/svg" viewBox="0 0 560 380">
  <defs>
    <style>
      .ba22bffa-467d-4d9e-861f-5263549a9dcc {
        fill: #fff;
      }

      .c30a5ddb-6d45-4eac-b3d1-3cc42c9a43c1 {
        fill: none;
      }
    </style>
  </defs>
  <title>dove-lewis-graphic-email-subscribe-bulldog</title>
  <g>
    <path class="ba22bffa-467d-4d9e-861f-5263549a9dcc" d="M475.93,106.8c1.55.6,3.43,1.43,4.2,1.84a5.67,5.67,0,0,0,1.8.68c.21,0,.38.17.36.43s.5.66,1.17.9a21.67,21.67,0,0,1,4.15,2.86c3.26,2.68,3.71,2.9,3.83,1.71a.83.83,0,0,1,.91-.72c1.71.16.58-1.78-2.35-4.07a33.75,33.75,0,0,0-3.9-2.75c-.5-.23-.88-.62-.86-.88s-.42-.51-1-.57a1.8,1.8,0,0,1-1.32-.66.58.58,0,0,0-.73-.35,5.33,5.33,0,0,1-2.4-1,10.09,10.09,0,0,0-2.66-1.3c-2.54-.23-6.69-4.48-6.49-6.6.15-1.6,1.71-6.29,2.23-6.68.36-.27,4.11-6.41,6.69-10.91,1-1.68,3.58-6.15,5.83-9.92,5.51-9.22,7.13-13.32,6.85-17.4-.1-1.71-.45-3.21-.75-3.35h0a.53.53,0,0,0-.33,0c-.79.2-1.67,2.2-2.18,5a21.07,21.07,0,0,1-3.54,8.83c-.91,1.45-1.54,2.77-1.41,2.94s-.11.54-.55.81A15.52,15.52,0,0,0,481,69.43c-1,1.83-4.16,7.24-7.13,12-3.19,5.16-5.24,9-5,9.41s.13.52-.2.28c-.7-.52-1.58,2.2-1.83,5.6-.14,1.92.09,3,.9,4A22.28,22.28,0,0,0,475.93,106.8Z"/>
    <path class="ba22bffa-467d-4d9e-861f-5263549a9dcc" d="M337.27,380l.32-1.14c.32-1.16.92-3.16,1.32-4.45s1.5-5.53,2.45-9.44a128.35,128.35,0,0,1,4.74-15.92,50.49,50.49,0,0,0,1.55-5.23c1.53-6.08,4.94-17.84,6.29-21.67.36-1,1.28-4.3,2.07-7.32s1.52-5.87,1.65-6.29c.72-2.51,2.18-9.25,2.8-12.88.72-4.12,1.21-6.76,2.11-11.07,2.56-12.41,5.86-48,4.66-50.37A16.06,16.06,0,0,1,367,231c0-1.56,0-4.11,0-5.67s.18-2.8.42-2.77,1.74,1.78,3.31,3.91,3.95,5.31,5.29,7.06,3,4,3.65,4.94,1.94,2.72,2.8,3.94c5,7.1,15.12,18.38,16.57,18.53a8.67,8.67,0,0,1,2.26,1.78,18.31,18.31,0,0,0,4.53,2.89c2.13.92,2.69,1.42,2.65,2.3-.26,5.35-.15,5.87,1.74,8.12a6.52,6.52,0,0,0,4.28,2.78c2.17.48,2.72.37,5.46-1.15s3.27-1.65,5.66-1.18c3.27.67,3.92.89,5.3,1.83a9.11,9.11,0,0,0,6.32.68c1.87-.52,6.35-4.42,7.94-6.92a5.23,5.23,0,0,1,2.16-2.13c4-.87,12.71-4.33,15.14-6,4.22-2.89,8.83-8.45,14.22-17.14,2.87-4.63,5.64-9.35,6.12-10.48a121.72,121.72,0,0,1,8.35-13.9c.54-.63,1.09-.94,1.22-.66.42.84.68,9.52.36,12a55.87,55.87,0,0,0,.91,10c.68,4.2,1.28,8,1.33,8.44s.31,1.48.52,2.29a21.4,21.4,0,0,1,.55,3.78,14.93,14.93,0,0,0,.47,3.2,14.86,14.86,0,0,1,.47,3.44,25,25,0,0,0,.95,5.11,12.64,12.64,0,0,1,.68,3.81,5.88,5.88,0,0,0,.33,2.42,32,32,0,0,1,.77,6.08,76.77,76.77,0,0,0,.87,8c.31,1.64.78,4.47,1,6.26a132,132,0,0,0,4.69,20.72,13.91,13.91,0,0,1,.81,3.56,7.3,7.3,0,0,0,.8,2.72,22.47,22.47,0,0,1,1.4,5,161.68,161.68,0,0,0,5,18.57c.66,1.82,1.58,4.81,2.08,6.63a48.38,48.38,0,0,0,1.52,4.78,6.8,6.8,0,0,1,.53,2.34,5.06,5.06,0,0,0,.29,1.83,48.13,48.13,0,0,1,1.83,7.32,40.68,40.68,0,0,0,1.33,5.06,17.14,17.14,0,0,1,.85,3,9.74,9.74,0,0,0,.46,2h4.58a1.46,1.46,0,0,1-.07-.19,41.43,41.43,0,0,1-1.47-4.79,29.24,29.24,0,0,0-1.43-4.43,18.15,18.15,0,0,1-1-4.11c-.24-1.65-1.7-7.22-3.25-12.39s-2.94-10-3.1-10.76-.71-2.49-1.2-3.86a99,99,0,0,1-3.09-11.83,53.33,53.33,0,0,0-2.11-7.57,14.11,14.11,0,0,1-.8-3.52,20.28,20.28,0,0,0-1.1-4.53,59.15,59.15,0,0,1-2.94-12.94c-.41-3-.94-6.17-1.14-7.08-.39-1.85-1.65-10.92-2.42-17.4-.27-2.39-.65-5-.84-5.72-1.89-8-4.93-30.39-4.89-36.15.06-6.78-.51-13.74-1.22-15.07s-.57-1.48.69-3.27c2.05-3,3-5.56,4.31-11.58a68.25,68.25,0,0,0,1.59-16.54,35.32,35.32,0,0,1,.16-4.92,20.14,20.14,0,0,0-.06-4.37,53.55,53.55,0,0,1-.27-6.09,71.14,71.14,0,0,0-.38-7.21c-.24-1.94-.45-4.74-.45-6.21,0-2.25-.68-10.72-1.26-16-.08-.75-.22-4.86-.29-9.15-.16-8.9.84-14.49,4.67-26.3A49.14,49.14,0,0,0,506,97.63c.42-4.37.87-13.17.68-13.18s-.13-3.54.09-9.66C507,69,507,64,506.83,61.92c-.06-.61-.09-3.64-.08-6.73,0-5.87-.2-7.53-1.11-8.27-.35-.29-.28-.42.2-.39s.65-.3.49-1.16A27.44,27.44,0,0,1,506,42a29.61,29.61,0,0,0-.59-4.35,35.69,35.69,0,0,1-.48-6.26c0-6.76-1-10.5-3.05-10.89a1.89,1.89,0,0,0-.94,0c-1.31.32-4.11,2.4-4.17,3.11,0,.33-.25.45-.49.26s-.79,0-1.19.41-.52.74-.28.76-.5.57-1.66,1.21A6.59,6.59,0,0,0,491,27.85,20.43,20.43,0,0,1,487.9,31c-4,3.62-5.14,4.74-5.18,5.23A5.91,5.91,0,0,1,481,37.84c-.94.68-1.57,1.41-1.4,1.61s0,.33-.3.3c-.64,0-4.13,2.84-4.2,3.49a4.74,4.74,0,0,1-1.17,1.5c-3.58,3.44-4.17,4.09-4.22,4.47a4.24,4.24,0,0,1-1.23,1.47,6.71,6.71,0,0,0-1.62,2.26c-.23.65-.61,1.15-.85,1.12-.79-.07-5.78,8.83-6.88,12.24a6.52,6.52,0,0,1-.83,1.8,17.31,17.31,0,0,0-1.38,3.1,16.92,16.92,0,0,1-1.39,3.09,22.13,22.13,0,0,0-1.67,4.13c-.67,2-1.72,5.18-2.36,7-1.34,3.94-2,5.89-2.32,7.05-5.9-.93-27-1.78-32.29-1.27-5.07.48-5.95.15-6.57-2.52-.31-1.29-.77-2.37-1-2.4s-.47-.35-.42-.76a2.06,2.06,0,0,0-.58-1.39,7.84,7.84,0,0,1-1.18-2.85,5.18,5.18,0,0,0-.83-2.25,4.87,4.87,0,0,1-1.18-1.85c-1.27-2.78-2.88-5-3.37-4.59-.25.19-.28.09,0-.23.42-.62-5.22-11.55-6.94-13.41a3.45,3.45,0,0,1-1-1.62c0-.5-1-2.36-3.49-6-.8-1.16-2.46-4-3.7-6.27a62.92,62.92,0,0,0-3.48-5.72,44.76,44.76,0,0,1-2.57-3.79c-.76-1.24-1.48-2.4-1.64-2.56s-1.63-2.84-3.33-5.95c-4-7.31-7.17-11.6-11-14.7-2.33-1.89-3.43-2.46-4.65-2.38a5.49,5.49,0,0,0-1.84.32c-1.68,1.38-4.49,27.46-3.53,32.78a32.53,32.53,0,0,1-.12,4.55,33.91,33.91,0,0,0,0,5.63,56.5,56.5,0,0,1,.26,5.66c0,2.07.1,4.79.21,6a6.35,6.35,0,0,1-.06,2.51,52.38,52.38,0,0,0-.81,7c-.7,9-1.45,16.88-1.62,17.19a17.88,17.88,0,0,0-.44,2.13c-.28,1.71-1.77,7-3.67,13.05a44.18,44.18,0,0,0-2.21,10.57c-.4,3.89-.32,4.18,2,9.3a42,42,0,0,0,2.91,5.74c.29.24.34.41.07.4s-.2.35.12.83.44.85.25.82,0,.61.4,1.39c.83,1.57.51,7.12-1.27,22.69-.91,7.89-.91,10.09-.16,21.34.61,8.93,2.9,16.22,9.11,29a30.33,30.33,0,0,1,2.56,6.95,14.22,14.22,0,0,0,.56,3c.39,1,.67,6.68.61,12.78,0,1.6.07,4.27.2,5.91.54,7.1-.26,19.19-1.95,29.64-.36,2.33-.94,5.91-1.26,7.93-2.65,16.45-3.34,20.47-4.05,23.48-.44,1.9-1.09,4.87-1.42,6.6s-1.12,4.81-1.74,6.82-1.29,4.36-1.49,5.23-1.49,5.09-2.82,9.39-2.81,9.36-3.25,11.24-1.3,5-1.94,6.92a25.57,25.57,0,0,0-1.07,3.92,18.33,18.33,0,0,1-1.05,3.27c-.63,1.57-2.12,6.62-3.31,11.24s-2.5,9.44-2.91,10.73-1,3.53-1.36,5c-.07.31-.15.64-.23.95ZM445.21,264.94a2.74,2.74,0,0,0-.33.77c-1.36,4.25-6.88,9.55-9.66,9.29-2.53-.23-5.92-2.52-5.37-3.62a45.7,45.7,0,0,0,1.6-5,34.23,34.23,0,0,1,1.47-4.56c.52-.68,1.2-8.34,1.36-15.13.08-3.23.23-7.11.33-8.62.18-2.22,0-3-1-4-2.36-2.38-3.25-1.23-2.87,3.69.32,3.88-.7,20.85-1.39,22.95-.18.56-.63,2.23-1,3.66a18.53,18.53,0,0,1-1.43,4.43,4.7,4.7,0,0,1-3.81,3.13,17.33,17.33,0,0,0-4.14,1.52c-3.11,1.59-4.13,1.58-5.88-.09-1.07-1-1.26-1.62-1-3.34a4.8,4.8,0,0,1,1.09-2.61,1.57,1.57,0,0,0,.49-1.66c-.36-1.71.74-11.6,1.48-13.07a3.65,3.65,0,0,0-.15-3.25,25,25,0,0,1-1.11-5.2,38.26,38.26,0,0,0-2.53-8.49c-1.73-4.11-2-5.33-1.44-5.63a3.27,3.27,0,0,1,1.16-.37,42.81,42.81,0,0,0,5.5-4.22l5.08-4.27,5.68-.13c1.35,0,2.39-.05,3.23-.05a16.75,16.75,0,0,1,2.1.15,12.82,12.82,0,0,1,3.62,1.22,74,74,0,0,1,7.25,3.93c3.56,2.25,4.07,2.75,4.88,5.11a45.65,45.65,0,0,1,1.52,6.88,39,39,0,0,1,.49,4.63c-.19.67-1.68,8.22-2.35,12S445.59,265,445.21,264.94Zm-89.23-75c-.83-2.81-1.86-9.47-1.65-10.74a2.69,2.69,0,0,0-.31-1.72c-.79-1.15-.17-15.54.93-21.6.55-3.06,1.19-8.43,1.39-12l.38-6.41-2.2-5.57c-1.22-3.06-2.72-6.82-3.34-8.36-.92-2.31-1-3.54-.72-7.3.41-4.74,1.07-7.88,2.13-10,1.52-3.1,3.6-13.23,4.46-21.56,1.23-12.22,1.81-27.53,1.22-32.64-.37-3.16,0-18.87.7-27,.57-7,1.38-10.16,2.57-10,.4,0,.72.27.71.5s.26.49.62.54c1.49.19,7.64,8.67,7.48,10.32a.52.52,0,0,0,.37.59A11.3,11.3,0,0,1,372.6,30c.81,1.69,1.71,3.11,2,3.14s.46.39.42.84.16.81.43.84.58.5.7,1a34.71,34.71,0,0,0,3.55,5.56c1.82,2.54,3.28,4.9,3.25,5.27s.16.69.42.71.71.8,1,1.72c.34,1.13.79,1.63,1.32,1.47s.7,0,.45.52.16,1.46.79,2.36a7,7,0,0,1,1.12,2,2.38,2.38,0,0,0,.58,1.13,26.91,26.91,0,0,1,1.77,2.74c.62,1.08,1.4,2.37,1.76,2.85s1.75,3,3.11,5.63a65.05,65.05,0,0,0,3.39,6,21.68,21.68,0,0,1,2.06,4.11c.62,1.6,1.36,2.94,1.63,3s.46.47.42,1a9.12,9.12,0,0,0,1.55,3.43,12.75,12.75,0,0,1,2.25,7.63c-.28,2.92,1.59,5,3.24,3.65.62-.52,3.83-1.19,5.92-1.23.59,0,2.78,0,4.85-.07s4.73-.09,5.92-.12,6.07.2,10.87.53c5.5.38,12.29.47,12.8.12a2.13,2.13,0,0,0,.81-1.43c1-1.13,2.27-4.1,4.39-9.88.95-2.56,2.52-6.28,3.48-8.26s2.57-5.45,3.54-7.72a78.08,78.08,0,0,1,10.29-17c.8-1,3.42-3.65,5.8-6a46.47,46.47,0,0,0,4.35-4.61c0-.43,3.08-3.22,8.24-7.55,2.08-1.75,4.48-3.84,5.35-4.62,1.68-1.54,3.19-2.63,3.55-2.59s1.21,5.11,1,5.63a8.15,8.15,0,0,0,.15,2.43c.18,1.1.37,2.85.43,3.9s.28,4.08.51,6.76c.79,9.38.85,10.88.65,13.23a20,20,0,0,0,.1,4.28,70.31,70.31,0,0,1-.09,9.11c-.23,4-.32,9.15-.2,11.52.31,6.44-.91,18.36-2.29,22.5-2.33,7-2.8,8.77-3.47,12.39-1.19,6.46-1.53,10-1.27,12.76.24,2.54.65,10.52.82,15.91a19.28,19.28,0,0,0,.48,3.8,16.93,16.93,0,0,1,.37,3.79c0,1.32.13,4,.32,5.94s.32,4.11.32,4.85c0,2.09.16,7.66.28,9.16,0,.74.11,2.48.13,3.87a18.78,18.78,0,0,0,.36,3.73c.46,1.76-.22,3.7-1.28,3.6-.49-.05-1.4.64-2,1.55-1.83,2.59-10,9-12.92,10.11-3.79,1.51-7.24,1.63-9.38.31-1.53-.93-4.3-4.87-4.2-6a3.32,3.32,0,0,0-.93-1.51,3.23,3.23,0,0,1-.92-1.69,3.07,3.07,0,0,0-.91-1.69c-.54-.6-.86-1.18-.71-1.29.66-.56-6.81-12.73-11.44-18.63-3.72-4.77-5.66-7.82-5.57-8.82a12.05,12.05,0,0,0-1.06-3.67c-1-2.53-1.07-3.09-.41-7.23,1.15-7,1.84-10.17,2.61-11.68.38-.77,1-4.94,1.46-9.25,1-10.62.25-12.85-5.08-14.64-2.66-.9-10.65-1.68-11.49-1.12-.68.47-2.12.31-10.76-1.2-4-.69-5.11-.71-6.66-.07-2.46,1-3.73,2-4.39,3.62a43.06,43.06,0,0,1-2,3.84,38.44,38.44,0,0,0-2.27,4.79c-1.31,3.51-1.68,11.71-.83,18.47.41,3.33,1,8.12,1.34,10.65a43.27,43.27,0,0,1,.36,7.17c-.22,2.36-.42,2.66-3,4.54-7.2,5.3-9.76,7.87-12.68,12.66a119.93,119.93,0,0,0-6.39,11.61C385.8,188.72,382,191,377,192c-3.47.75-5.82.82-12.36.43L356.6,192Zm6,14.51c-1-2.09-1.87-3.93-2-4.09-.5-.54-1.91-4-1.7-4.18s3.49,0,7.5.23c7.49.41,12.54-.07,16.22-1.53,3.1-1.23,7.49-5.75,9.48-9.71a48.84,48.84,0,0,1,2.4-4.44c.38-.56,1.7-2.66,2.93-4.67,2.2-3.59,6.95-8.06,11.62-11,3-1.85,3.94-3.78,4.11-8.26a13,13,0,0,0-.38-4.51,1.21,1.21,0,0,1-.21-1.15c.42-.59.07-5-.91-11.51-1.13-7.55-.22-16.17,2.22-21,.28-.56,1-2.11,1.66-3.44.92-2,1.41-2.47,2.82-2.65a8.67,8.67,0,0,1,2.33-.07.9.9,0,0,0,.94-.28.55.55,0,0,1,.36-.1,4.37,4.37,0,0,1,.76,0,15.92,15.92,0,0,1,2.25.48c3,.86,4.07,1,14.32,1.49,6.66.33,8.12,1.16,8.79,4.85.5,2.84-.54,10.44-2.25,16.3-1.08,3.75-1.44,5.1-2.69,10.37-.75,3.2-.07,9.06,1.49,12.93,1.73,4.22,3.38,6.86,7.5,12a62.78,62.78,0,0,1,5,7.19,27.76,27.76,0,0,0,2.53,3.94,2.2,2.2,0,0,1,.74,1.27,9.69,9.69,0,0,0,1.3,2.61,35.17,35.17,0,0,1,2.39,4.62c1.45,3.49,4,8,5.2,9.13,2,2,7.67,3.23,11.9,2.59,1.9-.27,6.24-3.08,11.32-7.28a44.76,44.76,0,0,1,5.91-4.46c.29,0,.24,2.27-.1,5.23-.73,6.1-.87,6.9-2,10.7-.81,2.78-5.45,11-6.47,11.51a.54.54,0,0,0-.29.71c.13.24-.15.72-.62,1a2.38,2.38,0,0,0-.94,1.58c-.06.55-.28,1-.51,1-.47,0-1.22,1.09-5.44,8.2-1.63,2.73-2.84,5.19-2.71,5.46s-.07.6-.49.71a2.9,2.9,0,0,0-1.22,1.8,42.77,42.77,0,0,1-3,5.92c-1.42,2.39-2.58,4.47-2.59,4.63a21.33,21.33,0,0,1-2.09,2.75,37.19,37.19,0,0,0-2.93,4,3.94,3.94,0,0,1-1.69,1.75,8.56,8.56,0,0,0-2.47,2c-1.71,1.87-2.34,2.23-6.95,3.94-3.74,1.4-5.79,1.69-5.71.82,0-.37.47-2.44,1-4.61s1.2-5.61,1.57-7.63c.68-3.68.69-3.69,4.25-6.59,9.43-7.67,16.46-14.88,19.71-20.17a26.11,26.11,0,0,1,2.2-3.27,100.27,100.27,0,0,0,6.73-9.68c1.78-2.88,2-3.57,1.5-4.32a2.46,2.46,0,0,0-2-.87c-1,0-1.85.84-3.82,3.83-2.91,4.42-5.9,8.12-6.94,8.64a1.56,1.56,0,0,0-.81,1.13.75.75,0,0,1-.74.72,4.26,4.26,0,0,0-2,1.15A30.83,30.83,0,0,1,461.4,227a10.83,10.83,0,0,1-9.44-.73c-1.2-.69-3.81-2.06-5.78-3.08s-4.95-2.67-6.63-3.67a28.6,28.6,0,0,0-4.86-2.39c-1.54-.48-1.84-.84-2-2.43a48.8,48.8,0,0,1-.47-7.28,36.24,36.24,0,0,0-.46-5.14c-1-7-1.15-9.25-.64-9.5a1.87,1.87,0,0,0,.58-1.32c.06-.65,1.74-2.36,4.15-4.26,4.38-3.41,6.09-6,7.17-11a6.25,6.25,0,0,0-.45-4.83c-1.52-3.35-5.71-5.77-10.68-6.21a27.13,27.13,0,0,1-5.36-1.15c-3.36-1.16-7.35-1.44-8.67-.57-4.69,3.08-5.33,3.95-6.14,8.43-.65,3.6-.58,4.15,1.18,9,.85,2.38,5.11,7.17,9.28,10.45,3.95,3.12,4.37,3.67,4.7,5.75.2,1.28.59,3.55.87,5a73.26,73.26,0,0,1,.59,8.31c.1,4.63,0,5.63-.65,6a26.3,26.3,0,0,1-7.06.49A8.37,8.37,0,0,0,418,218.7c-10.46,9.31-11.83,9.74-20.53,6.62-2.2-.79-4.5-1.55-5.11-1.7a7,7,0,0,1-2.3-1.21,16.42,16.42,0,0,0-2.87-1.68,43.86,43.86,0,0,1-5.31-3.46c-7.4-5.49-9.72-6.76-11.72-6.44-1,.15-1.85.62-1.89,1-.06.72,3.43,3.49,4.6,3.65.82.11,8.67,6.69,8.61,7.24-.07.82,8.39,10.82,10.64,12.56a28.71,28.71,0,0,1,2.74,2.37,24,24,0,0,0,4.5,3.93,45.76,45.76,0,0,1,4.75,3.68,35.84,35.84,0,0,0,4.9,3.67c1.08.11,1.54,3.68,1.11,8.47a24.17,24.17,0,0,1-.81,5.27c-.42.35-6.69-3.27-7.65-4.41-.33-.41-1.86-1.84-3.4-3.2a50.7,50.7,0,0,1-5.12-5.52c-1.27-1.66-3.33-4.23-4.55-5.7a65.29,65.29,0,0,1-4-5.5c-1-1.58-2.52-3.78-3.37-4.9s-2.52-3.31-3.71-4.91l-2.82-3.74c-5.4-7.11-10.26-14.68-10.16-15.81,0-.39-.13-.71-.37-.74A14.88,14.88,0,0,1,362,204.43Zm93.48,27.39a14.69,14.69,0,0,0,4.48-.19,25.49,25.49,0,0,0,5.85-2.22,3.5,3.5,0,0,1,1.22-.47c.71,0-.1,1.31-2.33,3.67-2.69,2.87-9.69,8.82-10.27,8.76-.36,0-1.47-5.4-1.75-8.34C452.58,231.56,452.6,231.54,455.51,231.82Zm-22.26-58a2,2,0,0,1,2-2.12,1.94,1.94,0,0,1,1.61.85,3.8,3.8,0,0,1,2,3.91,4.82,4.82,0,0,1-2.78,3.27,3.54,3.54,0,0,1-3.25-2.59A6.09,6.09,0,0,1,433.25,173.79Zm-25.5,68.6a5.14,5.14,0,0,0-2-1.28c-.4,0-.7-.3-.68-.59a.55.55,0,0,0-.55-.59c-.68-.06-5.09-3.52-6.89-5.42a5,5,0,0,0-1.56-1.26,17.4,17.4,0,0,1-2.75-2.68c-1.31-1.44-2.13-2.6-1.84-2.57s3.11.88,6.25,1.91,6.08,1.91,6.53,2c1.17.12,3.52,3.93,4.36,7.12C410,244.24,410,244.5,407.75,242.39Z"/>
    <path class="ba22bffa-467d-4d9e-861f-5263549a9dcc" d="M378.76,97.21a29.41,29.41,0,0,0,6.3-2.82,6.71,6.71,0,0,0,1.62-1.54c.05-.31-1-5.74-2.42-12.62-.85-4.14-4.93-15.32-7.83-21.4-.57-1.23-1.49-3.28-2-4.57a40.84,40.84,0,0,0-1.94-4,6.28,6.28,0,0,1-.92-2.2c.07-.85-4-5.33-4.91-5.42h0c-1.85-.17-1.72,1.55.44,5.59,1.18,2.23,2.28,4.17,2.46,4.35a38.28,38.28,0,0,1,1.84,4.2c2.33,5.84,3.28,8,3.9,9,.32.45.44.82.25.81s.87,2.91,2.77,7c.65,1.41,2.31,7.84,3.95,15.36A3.36,3.36,0,0,1,379.71,93c-.61.15-1.13.47-1.16.75s-.57.44-1.2.39a3.49,3.49,0,0,0-2.13.62,5,5,0,0,1-2,.82c-1.77.18-5.15,1.6-4.92,2.07.11.25-.55.74-1.48,1.12s-1.71.89-1.74,1.14-.47.54-1,.63c-1.24.2-3,3.11-2.8,4.54.38,2.32,1.85,2,4.16-1C366.81,102.29,372.68,99.27,378.76,97.21Z"/>
    <path class="ba22bffa-467d-4d9e-861f-5263549a9dcc" d="M461,168.38c.28.14,1.31.86,2.26,1.56a14.22,14.22,0,0,0,2.29,1.45,22,22,0,0,1,2.13,1c1.3.67,2.39.73,6.11.33,5.19-.53,6.7-1.47,11-6.77,3.11-3.82,3.14-5.08.26-8.18a21,21,0,0,0-12.25-6.63,4.89,4.89,0,0,0-1.16,0,16.46,16.46,0,0,0-9.38,4.32c-3.11,3.19-6,7.65-5.75,8.85C456.69,165.14,459.27,167.54,461,168.38Zm19.66-10.71a2.2,2.2,0,0,1,2,1.36c.45,1.22-.77,2.39-1.91,2.49a1.84,1.84,0,0,1-1.91-.93A2,2,0,0,1,480.62,157.67Zm-12-2.15a7.76,7.76,0,0,1,2.12-.57c.67,0,.54.57-.17,1.89a13.44,13.44,0,0,0-1.39,8.17,5.76,5.76,0,0,0,1.87,2.76c1.2.88,1.32,1.15.58,1.35-1.59.45-2.84.1-5.33-1.51-3.84-2.49-5.67-4.15-5.59-5.06S466.9,156.15,468.61,155.52Z"/>
    <path class="ba22bffa-467d-4d9e-861f-5263549a9dcc" d="M381.7,148.78a1.92,1.92,0,0,0-1,.2,4.57,4.57,0,0,1-1.87.41c-2.35.08-10.1,5.11-9.55,6.21.15.29,0,.37-.46.19s-1.11.14-1.62.79c-1.16,1.46-1.87,3.46-1.28,3.52.26,0,.32.38.12.75-.36.74,2.65,4,5.41,5.9.83.56,2.19,1.56,3,2.22,5,4,8.33,4,13.64.11a20.6,20.6,0,0,1,3.51-2.28c.61.06,2.5-2.57,3.08-4.25a6.27,6.27,0,0,0,.39-2.3,8.35,8.35,0,0,1-.06-1.77c.16-1.62-5.19-7.75-7.55-8.66a18.88,18.88,0,0,0-4-.93A11.72,11.72,0,0,0,381.7,148.78Zm7.91,6.8a2.19,2.19,0,0,1,2,1.36c.45,1.22-.75,2.39-1.91,2.49a1.85,1.85,0,0,1-1.91-.92A2,2,0,0,1,389.61,155.58Zm-6.71,12.19c-1.59.75-1.73.74-3.83-.46a34.63,34.63,0,0,1-4-2.77,36.27,36.27,0,0,0-3.65-2.59c-1-.6-1.8-1.37-1.77-1.73.1-1.11,6.62-6.19,9-7a10.59,10.59,0,0,1,3.54-.59c1,0,1.52.27,1.2.72a13.45,13.45,0,0,1-1.53,1.63c-.88.81-1.22,1.79-1.41,4.09-.29,3.51.56,5.53,2.74,6.59C385,166.57,385,166.79,382.9,167.77Z"/>
  </g>
  <rect class="c30a5ddb-6d45-4eac-b3d1-3cc42c9a43c1" width="560" height="380"/>
</svg>
