<?xml version="1.0" encoding="utf-8"?>
<!-- Generator: Adobe Illustrator 24.0.3, SVG Export Plug-In . SVG Version: 6.00 Build 0)  -->
<svg version="1.1" id="Layer_8" xmlns="http://www.w3.org/2000/svg" xmlns:xlink="http://www.w3.org/1999/xlink" x="0px" y="0px"
	 viewBox="0 0 207.3 197.37" style="enable-background:new 0 0 207.3 197.37;" xml:space="preserve">
<style type="text/css">
	.st0{fill:#FFFFFF;}
</style>
<g>
	<polygon class="st0" points="23.89,39.96 21.19,39.24 19.41,40.43 19.24,43.14 26.88,49.45 31.14,56.18 34.77,55.57 38.56,54.37 
		40.25,52.23 42.35,52.7 41.52,55.03 39.71,56.52 40.15,57.93 43.34,57.56 44.79,58.56 41.71,60.96 39.81,60.83 36.17,64.23 
		29.65,67.7 22.11,69.01 18.94,72.58 13.44,72.84 12.95,71.24 14.34,70.4 18.02,70.6 20.31,66.88 18.15,64.25 13.65,65.93 
		11.69,67.96 9.96,67.66 9.63,65.94 10.75,65.59 16.07,62.21 17.18,59.79 17.16,57.74 12.74,55.8 10.02,54.14 8.49,57.48 
		6.85,58.07 6.26,56.34 7.6,54.99 8.86,51.4 12.78,52.28 10.25,49.45 8.71,46.83 6.86,45.85 4.16,48.81 2.98,48.67 2.26,46.35 
		3.99,45.92 8.07,43.1 11.91,46.25 17.09,44.53 15.38,39.88 19.43,36.7 23.66,38.14 	"/>
	<polygon class="st0" points="56.54,96.32 58.15,94.39 58.78,90.16 56.76,88.52 54.12,90.82 52.63,91.98 44.48,88.71 36.77,72.99 
		39.68,70.4 40.81,65.41 36.05,68.13 33.91,71.51 26.21,72.64 27.01,76.51 29.4,79.22 29.33,80.28 24.16,79.27 21.53,81.99 
		22.66,85.14 25.23,82.6 28.92,84.31 26.14,86.34 26.43,89.71 30.42,91.54 31.04,90.56 29.14,87.55 32.65,88.49 39.41,99.24 
		52.91,105.17 57.37,110.06 61.28,110.95 63.58,113.36 64.78,111.98 62.86,108.1 59.3,105.94 58.34,101.24 	"/>
	<polygon class="st0" points="69.63,79.31 69.07,73.58 64.9,68.86 53.29,66.26 50.2,61.98 45.3,60.97 46.27,63.63 44.17,68.07 
		43.95,72.65 47.77,72.27 49.81,73.7 44.71,77.42 46.86,81.07 48.19,81.54 48.24,77.59 52.26,77.03 52.26,84.58 49.58,86.71 
		51.23,87.85 53.93,86.62 55.01,85.16 56.4,77.53 60.73,80.69 57.32,83.55 58.86,85.12 64.5,83.04 66.52,90.47 71.13,92.97 
		76.04,94.14 75.82,91.45 70.03,89.71 68.18,84.92 	"/>
	<polygon class="st0" points="76.28,160.11 81.04,160.22 82.73,162.65 76.61,164.02 74.43,172.85 72.99,175.06 70.27,176.65 
		66.03,176.26 67.41,178.78 67.38,182.04 68.43,184.54 71.07,184.96 74.78,182.55 74.31,185.36 72.49,188.71 73.18,190.61 
		76.11,189.2 75.95,187.67 82.07,180.86 81.89,179.19 88.54,168.87 88.33,167.5 86.75,166.78 86.8,162.04 81.9,157.73 78.16,158.03 
		74.95,154.72 76.43,149.62 74.49,150.81 72.87,155.12 	"/>
	<polygon class="st0" points="61.07,60.76 55.1,53.58 58.02,53.44 63.57,50.92 62.09,49.62 63.58,46.78 61.01,46.26 60.87,42.39 
		56.01,46.84 50.27,46.06 51.18,42.77 53.55,38.89 51.3,38.7 53.42,34.79 49.37,34.85 45.87,40.08 45.72,43.97 39.83,41.37 
		32.32,39.16 30.52,40.92 28.03,40.95 28.28,41.97 35.31,42.86 41.68,45.91 48.65,57.38 55.77,60.25 57.91,63.41 58.68,62.07 
		60.95,63.66 59.59,60.64 	"/>
	<polygon class="st0" points="114.53,94.44 115.8,96.26 114.05,97 116.04,100.16 121.38,106.34 113.46,104.46 113.64,106.12 
		114.72,106.96 112.75,108.07 114.7,109.24 112.61,110.86 122.79,112.95 126.29,111.52 130.66,115.22 135.55,115.6 136.85,118.18 
		135.62,118.55 135.51,116.94 134.4,119.89 136.63,121.59 141.06,122 142.45,119.95 144.45,118.29 146.38,117.31 147.11,114.97 
		145.68,116.05 143.07,116.22 141.86,110.08 136.86,102.18 130.72,100.31 123.6,101.79 120.89,97.02 119.77,97.29 116.81,91.53 
		116.46,93.3 114.71,92.61 	"/>
	<polygon class="st0" points="62.99,166.42 60.75,161.67 63.93,160.05 67.45,161.77 67.45,157.13 70.33,155.83 73.53,162.14 
		71.1,168.87 	"/>
	<polygon class="st0" points="84.46,68.16 83.05,69.71 79.99,62.29 75.63,57.46 79.57,60.02 82.62,60.91 84.82,60.68 82.01,57.24 
		79.69,55.72 72.73,51.87 68.11,51 67.1,53.72 69.28,58.93 65.01,56.58 62.25,55.27 61.84,56.88 65.03,59.48 70.79,64.28 
		71.43,65.08 72.07,65.89 73.98,68.28 73.22,73.17 74.77,75.17 72.98,80.82 74.35,81.59 76.15,78.31 75.01,83.55 77.13,84.16 
		78.88,80.19 80.4,77.38 80.23,73.87 81.92,73.29 84.28,72.49 85.88,69.33 	"/>
	<polygon class="st0" points="28.27,45.44 31.12,50.39 33.27,52.23 35.28,51.68 35.28,50.39 33.97,48.7 36.73,49.28 38.4,49.07 
		37.87,47.64 33.69,44.88 	"/>
	<polygon class="st0" points="199.23,60.53 196.3,60.13 195.78,63.32 198.76,66.47 194.69,65.7 194.15,69.7 207.3,74.48 
		202.88,66.43 	"/>
	<polygon class="st0" points="17.34,27.1 16.4,31.43 17.34,33.04 19.63,33.46 20.81,32.16 23.18,33.8 24.85,33.8 25.42,32 
		23.53,26.68 18.72,21.89 	"/>
	<polygon class="st0" points="13.37,36.37 15.16,21.58 17.79,17.02 19.43,14.17 20.2,12.83 16.4,5.97 13.88,6.99 14.57,12.37 
		12.16,13.8 11.25,11.57 7.38,9.71 4.76,10.66 5.89,12.25 8.09,12.63 8.9,14.98 6.08,18.16 5.12,21.03 3.34,21.37 3.35,19.57 
		1.54,19.2 0,24.18 5.52,23.99 5.4,28.34 7.6,33.07 5.68,33.7 4.73,32.21 3.29,32.48 4.3,36.4 6.13,37.34 2.56,39.03 1.62,36.74 
		0.49,38.77 0.78,41.73 5.9,40.73 10.28,38.25 11.08,40.2 12.89,40.26 14.47,37.6 	"/>
	<polygon class="st0" points="19.43,0 21.19,7.03 22.46,12.28 26.54,12.59 26.77,8.39 29.55,10.62 30.77,7.8 29.95,5.22 26.17,2.95 
			"/>
	<polygon class="st0" points="134.49,96.89 127.35,96.3 124.34,95.9 123.29,92.67 126.97,92.07 125.24,90.1 127.51,89.32 
		130.64,91.46 	"/>
	<polygon class="st0" points="102.14,125.21 100.06,127.11 94.61,129.39 90.65,131.57 87.6,135.64 86.54,141.61 82.51,146.48 
		79.14,148.82 81.02,149.8 80.41,151.6 81.33,153.16 81.29,155.78 83.19,156.35 86.51,152.18 88.02,153.48 86.95,157.15 
		87.51,159.4 88.77,159.04 89.42,159.89 90.41,159.14 90.56,157.85 92.13,155.81 92.99,151.29 93.3,148.06 96.8,141.16 97.91,146 
		99.5,145.02 99.42,142.82 100.93,143.65 101.76,143.05 100.18,139.27 101.49,137.02 102.06,132.1 98.51,130.28 101.55,129.59 
		104.88,126.14 105.14,124.08 	"/>
	<polygon class="st0" points="149.49,124.5 149.26,122.83 147.66,124.12 144.6,127.37 135.64,124.48 131.47,126.32 129.64,131.53 
		124.69,135.81 120.87,137.74 116.25,138.39 116.34,139.93 119.8,139.49 125.59,137.75 132.34,133.85 133.67,135.45 137.03,137.04 
		139.13,138.17 140.6,140.56 143.19,140.79 146.32,139.77 146.59,138.82 142.39,138.92 141.31,136.39 140.81,134.4 147.09,134.78 
		153.24,133.97 155.76,131.88 158.3,130.03 159.75,127.58 158.63,126.51 154.26,130.34 150.94,130.77 150.43,129.72 151.36,128.98 
		153.45,127.31 153.26,125.95 	"/>
	<polygon class="st0" points="114.36,137.35 116.66,134.56 116.66,130.1 114.49,129.29 111.78,132.13 111.51,127.31 109.28,126.11 
		106.37,128.34 106.37,134.98 108.89,141.99 	"/>
	<polygon class="st0" points="67.1,189.48 66.87,193.53 63.25,194.45 65.53,189.82 64.39,188.34 62.68,188.51 61.82,183.71 
		60.44,179.34 62.18,177.9 63.36,175.94 67.18,173.9 69.03,170.87 65.72,169.99 62.45,171.18 60.55,170.25 58.23,169.89 
		56.88,167.26 54.45,165.52 53.27,168.05 52.91,171.36 54.71,173.18 54.35,175.46 54.88,177.91 52.05,180.8 50.42,185.12 
		50.02,188.34 49.23,192.65 48.26,192.89 46.91,193.27 47.52,194.75 50.42,194.98 51.1,193.01 52.51,189.99 53.14,193.21 
		51.68,193.64 51.55,194.99 54.64,194.81 53.65,195.76 54.81,196.95 57.41,196.4 58.48,195.04 58.29,197.05 59.26,197.37 
		61.16,195.62 64.1,196.42 68.36,194.99 69.33,192.49 68.47,190.74 	"/>
	<polygon class="st0" points="101.19,148.73 101.26,147.03 102.7,145.52 104.37,142.92 105.52,144.05 105.5,144.76 107.61,145.13 
		111.66,145.4 114.98,145.5 120.75,144.05 125.51,140.62 127.61,139.44 129.47,139.14 129.11,140.48 127.49,141.34 129.97,142.27 
		130.84,143.17 132.02,140.23 136.6,140.15 138.11,141.35 137.24,141.97 135.54,141.62 133.37,141.29 132.66,143.13 132.39,144.9 
		133.44,143.78 135.47,142.95 137.41,143.3 137.23,144.79 135.19,144.21 134.1,145.19 131.51,147.13 128.85,147.3 126.2,146.96 
		122.5,150.18 119.36,151.42 114.85,151.98 114,153.08 116.6,152.11 115.54,154.35 112.82,154.49 113.05,152.17 111.67,151.73 
		111.66,152.27 113.05,153.74 111.4,153.93 109.58,152.08 110.09,151.22 107.49,149.57 105.4,149.35 101.62,151.22 99.49,150.35 	
		"/>
	<polygon class="st0" points="111.29,88.74 109.04,85.01 106.99,84.28 106.77,83.53 102.67,83.55 101.9,88.03 101.01,94.2 
		97.35,95.71 96.85,98.25 92.84,98.62 90.44,102.18 92.54,101.75 95.3,102.18 91.92,103.37 90.3,107.99 93.36,106.33 95.25,105.92 
		98.55,112.42 97.67,115.14 99.38,120.44 98.52,122.17 94.08,123.57 93.59,124.48 96.19,125.97 99.65,124.49 102.92,122.91 
		102.97,120.58 107.73,117.53 109.87,112.2 108.17,98.72 110.07,93.29 111.15,92.19 112.05,92.91 113.13,89.54 	"/>
	<polygon class="st0" points="128.15,119.6 127.13,118.52 124.52,117.64 122.91,115.4 121.97,116.33 121.5,118.19 119.74,116.85 
		117.37,116.61 114.91,117.5 112.67,119.6 111.51,122.21 111.51,124.14 112.26,124.14 112.63,122.98 113.84,120.93 114.5,122.51 
		117.17,124.14 118.44,126.28 120.85,128.42 121.41,130.37 122.39,130.71 123.32,129.9 123.27,128.6 124.43,129.21 125.22,130.71 
		126.1,131.48 126.85,130.09 125.78,128.23 127.13,126.51 127.59,124.79 129.08,122.93 130.75,120.52 131.08,119.08 129.4,119.26 	
		"/>
	<polygon class="st0" points="111.47,75.17 108.62,72.31 99.04,67.7 98.05,66.08 95.47,65.44 93.8,66.55 92,65.69 91.17,64.02 
		88.67,63.81 87.68,64.69 88.17,66.2 89.52,66.66 89.31,70.11 88.3,74.09 88.87,77.05 89.22,78.63 89.26,81.1 89.9,83.97 
		91.22,84.73 91.52,86.84 92.82,88.85 94.28,85.68 94.58,84.94 96.68,83.81 97.45,84.95 99.84,85.81 99.5,83.18 98.33,81.67 
		98.9,79.31 101.42,79.47 105.06,80.54 110.58,79.96 113.99,80.77 115.85,81.9 115.71,84.2 113.84,84.49 113.14,85.71 114.72,86.55 
		117.55,85.71 118.65,82.94 118.03,79.5 114.8,77.14 112.15,76.5 	"/>
	<polygon class="st0" points="169.65,98.63 167.09,98.21 165.28,98.55 164.75,100.18 165.32,101.9 163.13,104 162.33,104.39 
		160.66,103.4 159.44,103.02 158.07,104.13 158.8,104.72 160.31,105.43 160.33,106.42 156.38,106.51 155.58,109.07 156.58,109.67 
		157.54,108.2 158.82,109.62 157.03,114.76 154.73,115.79 152.74,120.19 149.95,119.12 149.45,120.26 151.33,122.14 155.56,125.07 
		157.31,123.56 159.97,124.51 166.49,117.87 169.32,106.43 170.45,104.53 171.8,103.14 172.78,99.53 170.88,100.13 170.4,99.71 
		171.01,97.39 	"/>
	<polygon class="st0" points="152.53,97.98 151.46,94.69 150.96,89.66 150.5,88.92 151.19,85.9 150.71,82.05 148.89,80.16 
		147.87,80.53 147.47,81.68 149.11,83.24 148.21,84.61 147.9,84.74 145.96,81.62 144.97,77.16 146.14,75.08 142.43,75.69 
		141.73,82.16 136.82,81.04 139.37,79.83 138.62,78 133.4,80.25 132.61,79.58 134.48,78.14 132.38,76.61 127.31,80.69 128.56,82.2 
		126.14,81.9 121.53,84.04 121.46,85.73 124.85,84.51 128.79,84.66 133.25,89.36 145.62,96.72 146.43,100.13 145.39,101.28 
		143.29,100.49 144.16,102.36 146.72,103.7 150.02,104.73 152.9,104.84 153.84,102.98 155.08,103.39 155.76,102.04 156.21,99.93 	
		"/>
	<polygon class="st0" points="154.26,80.87 151.87,77.1 148.63,74.03 150.46,71.5 152.57,71.06 154.13,73.05 154.82,69.31 
		158.02,68.17 159.89,70.17 156.98,75.08 	"/>
	<polygon class="st0" points="175.22,96.49 171.22,94.38 168.52,91.07 169.58,87.74 173.7,89.54 173.34,85.01 176.99,84.39 
		178.93,88.35 	"/>
	<polygon class="st0" points="189.51,64.2 193.52,60.26 195.78,56.77 195.09,55.28 194.37,55.26 194.16,54.39 191.16,53.12 
		189.81,51.63 188.74,52.81 190.13,55.01 188.18,54.25 187.53,55.38 189.23,56.8 188.62,57.84 185.28,58.97 183.79,60.65 
		181.81,60.05 180.01,59.65 178.66,60.43 177.98,62.64 179.38,62.94 179.96,61.59 182.16,62.76 181.43,68.35 182.24,72.49 
		180.48,74.73 179.77,78.08 177.87,78.95 176.5,79.28 177.88,80.17 180.84,79.47 180.93,79.94 179.26,80.82 177.57,81.47 
		179.22,82.61 182.6,80.78 183.23,78.22 185.06,76.88 186.92,75.08 187.83,72.64 190.85,70.58 191.46,67.89 189.65,65.84 
		189.14,66.85 189.78,69.03 187.96,70.71 188.1,67.25 	"/>
	<polygon class="st0" points="175.63,65.9 174.24,61.82 171.8,58.59 169.06,59.15 169.16,61.26 172.6,63.3 173.51,65.52 
		172.03,65.25 170.1,63.64 168.83,65.18 170.31,66.6 168.35,69.95 168.13,65.58 167.91,63.03 167.05,62.15 165.14,63.24 
		166.09,64.53 165.24,69.48 164.55,65.82 163.13,65.18 161.37,65.39 162.73,67.33 163.09,68.79 161.59,74.21 159.49,76.14 
		157.9,79.13 158.6,83.04 157.95,87.46 157.74,88.72 155.37,88.6 154.26,91 157.14,92.46 158.51,95.41 160.68,95.96 163.8,95.25 
		166.25,92.97 166.03,90.6 165.23,90.61 166.16,86.94 172.28,80.57 176.38,73.27 176.57,68.32 	"/>
	<polygon class="st0" points="176.27,57.69 174.48,55.95 176.27,52.53 179.57,52.34 180.12,49.21 184.57,49.48 184.95,51.63 
		183.73,56.94 	"/>
	<polygon class="st0" points="153.39,110.06 152.03,107.82 149.95,107.19 149.34,109.23 146.96,108.03 145.51,110.24 148.59,113 
		152.28,114.6 	"/>
	<polygon class="st0" points="47.08,32.61 44.79,32.96 44.79,28.74 40.74,24.23 38.84,19.94 33.4,14.43 32.68,12.65 30.99,10.89 
		30.47,14.43 28.27,15.85 25.82,15.5 24.55,16.35 26.38,18.38 28.03,19.16 30.11,23.53 31.99,25.99 31.99,32.94 30.23,31.06 
		28.8,25.43 23.81,20.18 23.53,21.89 27.24,26.63 29.15,34.79 35.49,39.34 39.12,38.8 40.74,37.57 41.52,38.24 43.91,35.84 
		47.71,33.8 	"/>
	<polygon class="st0" points="91.9,109.23 92.22,111.07 90.55,115.1 88.81,115.55 88.75,113.41 87.06,110.57 86.6,107.16 
		86.06,102.14 86.95,98.22 87.06,93.27 89.69,91.13 90.32,87.48 87.6,88.48 85.26,89.28 82,88.52 81.12,86.06 78.09,84.49 
		78.7,88.25 78.09,90.17 77.88,93.54 76.13,99.53 73.97,106.83 68.92,113.78 65.85,114.97 67.23,116.27 69.57,116.27 75.06,110.73 
		74.21,113.49 75.78,116.25 72.68,116.64 72.12,117.64 78.39,118.44 79.43,119.05 78.93,120.39 80.08,121.35 82.31,121.35 
		82,119.97 84.49,119.97 86.68,121.32 88.99,121.51 88.4,119.78 88.91,118.62 92.28,119.13 94.9,116.21 94.29,110.64 	"/>
	<polygon class="st0" points="69.09,106.45 62.47,103.21 60.4,100.81 61.01,97.25 65.33,99.08 65.28,94.95 67.96,94.14 71.43,98.37 
			"/>
	<path class="st0" d="M83.23,190.13v0.6h-1.7v4.44h-0.69v-4.44h-1.7v-0.6H83.23z"/>
	<path class="st0" d="M83.84,190.13h0.98l1.45,4.26l1.44-4.26h0.97v5.04h-0.65v-2.98c0-0.1,0-0.27,0.01-0.51
		c0-0.24,0.01-0.49,0.01-0.77l-1.44,4.25h-0.68l-1.45-4.25v0.15c0,0.12,0,0.31,0.01,0.56c0.01,0.25,0.01,0.44,0.01,0.56v2.98h-0.65
		V190.13z"/>
</g>
</svg>
