<?xml version="1.0" encoding="utf-8"?>
<!-- Generator: Adobe Illustrator 22.1.0, SVG Export Plug-In . SVG Version: 6.00 Build 0)  -->
<svg version="1.1" id="Layer_1" xmlns="http://www.w3.org/2000/svg" xmlns:xlink="http://www.w3.org/1999/xlink" x="0px" y="0px"
	 viewBox="0 0 440 330" style="enable-background:new 0 0 440 330;" xml:space="preserve">
<style type="text/css">
	.st0{fill:#AFBE23;}
	.st1{fill:#F6F7D9;}
	.st2{fill:#FFFFFF;}
	.st3{fill:#CDD755;}
	.st4{fill:none;stroke:#373E1E;stroke-width:4.5;stroke-linecap:round;stroke-miterlimit:10;}
	.st5{fill:#373E1E;}
	.st6{fill:#E43D30;}
</style>
<g>
	<rect class="st0" width="440" height="330"/>
	<circle class="st1" cx="220" cy="165" r="140"/>
</g>
<path class="st2" d="M190.7,99.1V116c0,4.9,4.2,8.9,9.4,8.9c5.2,0,9.4-4,9.4-8.9V99.1H190.7z"/>
<g>
	<circle class="st3" cx="183.1" cy="228.8" r="9.5"/>
	<circle class="st3" cx="265.6" cy="228.8" r="9.5"/>
	<g>
		<path class="st3" d="M185.1,172c-3.3-5.9-10-10-17.8-10c-7.8,0-14.5,4.1-17.8,10H185.1z"/>
		<path class="st4" d="M185.1,169.5c-3.3-4.4-10-7.5-17.8-7.5c-7.8,0-14.5,3.1-17.8,7.5"/>
		<g>
			<g>
				<path class="st5" d="M281.2,250c-2.7,0-2.8-4.2,0-4.2C283.9,245.8,283.9,250,281.2,250z"/>
			</g>
		</g>
		<g>
			<g>
				<path class="st5" d="M272,250H165.1c-2.7,0-2.8-4.2,0-4.2H272c1.1,0,2.1,0.9,2.1,2.1C274.1,249.1,273.1,250,272,250z"/>
			</g>
		</g>
		<g>
			<g>
				<rect x="258.9" y="105.8" class="st0" width="32.3" height="27.1"/>
			</g>
		</g>
		<g>
			<g>
				<path class="st6" d="M191.2,108.7c8.7,4.4,11-1.7,18.4-1.7c0,0,2.7,17.1-9.7,17.1C187.5,124.1,191.2,108.7,191.2,108.7z"/>
			</g>
		</g>
		<g>
			<g>
				<path class="st5" d="M291.2,162c-2.7,0-2.8-4.2,0-4.2C294,157.8,294,162,291.2,162z"/>
			</g>
		</g>
		<g>
			<g>
				<rect x="135" y="173.1" class="st0" width="170" height="11.3"/>
			</g>
		</g>
		<path class="st5" d="M305,171H135c-1.1,0-2.1,0.9-2.1,2.1v11.3c0,1.1,0.9,2.1,2.1,2.1c51.2,0,118.8,0,170,0c1.1,0,2.1-0.9,2.1-2.1
			v-11.3C307.1,171.9,306.1,171,305,171z M302.9,182.3H137.1v-7.1c51.4,0,114.4,0,165.8,0V182.3z"/>
		<g>
			<g>
				<path class="st5" d="M279.2,210.4H170.3c-1.1,0-2.1-0.9-2.1-2.1v-14.1c0-2.7,4.2-2.8,4.2,0v12h104.7v-11.6c0-2.7,4.2-2.8,4.2,0
					v13.7C281.3,209.5,280.4,210.4,279.2,210.4z"/>
			</g>
		</g>
		<g>
			<g>
				<path class="st5" d="M181,228.8v-20.4c0-2.7,4.2-2.8,4.2,0v20.4C185.2,231.5,181,231.5,181,228.8z"/>
			</g>
		</g>
		<g>
			<g>
				<path class="st5" d="M263.6,228.8v-20.4c0-2.7,4.2-2.8,4.2,0v20.4C267.7,231.5,263.6,231.5,263.6,228.8z"/>
			</g>
		</g>
		<g>
			<g>
				<path class="st5" d="M183.1,241.1c-6.8,0-12.4-5.5-12.4-12.4c0-6.8,5.5-12.4,12.4-12.4c6.8,0,12.4,5.5,12.4,12.4
					C195.5,235.6,189.9,241.1,183.1,241.1z M183.1,220.5c-4.5,0-8.2,3.7-8.2,8.2c0,4.5,3.7,8.2,8.2,8.2c4.5,0,8.2-3.7,8.2-8.2
					C191.3,224.2,187.6,220.5,183.1,220.5z"/>
			</g>
		</g>
		<g>
			<g>
				<path class="st5" d="M265.6,241.1c-6.8,0-12.4-5.5-12.4-12.4c0-6.8,5.5-12.4,12.4-12.4c6.8,0,12.4,5.5,12.4,12.4
					C278,235.6,272.5,241.1,265.6,241.1z M265.6,220.5c-4.5,0-8.2,3.7-8.2,8.2c0,4.5,3.7,8.2,8.2,8.2c4.5,0,8.2-3.7,8.2-8.2
					C273.9,224.2,270.2,220.5,265.6,220.5z"/>
			</g>
		</g>
		<g>
			<g>
				<path class="st5" d="M179.7,195.4h-17.6c-2.7,0-2.8-4.2,0-4.2h17.6c1.1,0,2.1,0.9,2.1,2.1C181.8,194.5,180.9,195.4,179.7,195.4z
					"/>
			</g>
		</g>
		<g>
			<g>
				<path class="st5" d="M287.9,195.4h-17.6c-2.7,0-2.8-4.2,0-4.2h17.6c1.1,0,2.1,0.9,2.1,2.1C290,194.5,289,195.4,287.9,195.4z"/>
			</g>
		</g>
		<g>
			<g>
				<path class="st5" d="M224.8,166.9V82.1c0-2.7,4.2-2.8,4.2,0v84.8C229,169.7,224.8,169.7,224.8,166.9z"/>
			</g>
		</g>
		<g>
			<g>
				<path class="st5" d="M199.9,126.2c-6.3,0-11.5-5.1-11.5-11.5v-16c0-1.1,0.9-2.1,2.1-2.1h18.8c1.1,0,2.1,0.9,2.1,2.1v16
					C211.4,121,206.2,126.2,199.9,126.2z M192.6,100.8v13.9c0,4,3.3,7.3,7.3,7.3c4,0,7.3-3.3,7.3-7.3v-13.9H192.6z"/>
			</g>
		</g>
		<g>
			<g>
				<path class="st5" d="M197.8,98.3V91c0-1.1,0.9-2.1,2.1-2.1h19.3c2.7,0,2.8,4.2,0,4.2H202v5.2C202,101,197.8,101,197.8,98.3z"/>
			</g>
		</g>
		<g>
			<g>
				<path class="st5" d="M217.1,165.7v-15.4c0-3.4-2.7-6.1-6.1-6.1h-3c-5.6,0-10.2-4.6-10.2-10.2c0-2.7,4.2-2.8,4.2,0
					c0,3.4,2.7,6.1,6.1,6.1h3c5.6,0,10.2,4.6,10.2,10.2v15.4C221.3,168.5,217.1,168.5,217.1,165.7z"/>
			</g>
		</g>
		<g>
			<g>
				<path class="st5" d="M224.9,237.8v-22.2c0-2.7,4.2-2.8,4.2,0v22.2C229,240.5,224.9,240.6,224.9,237.8z"/>
			</g>
		</g>
		<g>
			<g>
				<path class="st5" d="M302.4,241.1H139.2c-2.7,0-2.8-4.2,0-4.2h163.2c1.1,0,2.1,0.9,2.1,2.1S303.6,241.1,302.4,241.1z"/>
			</g>
		</g>
		<g>
			<g>
				<path class="st5" d="M262.3,195.4c-2.8,0-2.8-4.2,0-4.2h0.7C265.5,191.2,266.3,195.4,262.3,195.4z M251.8,195.4h-3.1
					c-2.8,0-2.8-4.2,0-4.2h3.1c1.2,0,2.1,0.9,2.1,2.1S252.9,195.4,251.8,195.4z M238.1,195.4H235c-2.8,0-2.8-4.2,0-4.2h3.1
					c1.2,0,2.1,0.9,2.1,2.1S239.3,195.4,238.1,195.4z M224.5,195.4h-3.1c-2.8,0-2.8-4.2,0-4.2h3.1c1.2,0,2.1,0.9,2.1,2.1
					S225.7,195.4,224.5,195.4z M210.9,195.4h-3.1c-2.8,0-2.8-4.2,0-4.2h3.1c1.2,0,2.1,0.9,2.1,2.1S212,195.4,210.9,195.4z
					 M197.3,195.4h-3.1c-2.8,0-2.8-4.2,0-4.2h3.1c1.2,0,2.1,0.9,2.1,2.1S198.4,195.4,197.3,195.4z"/>
			</g>
		</g>
		<g>
			<g>
				<path class="st5" d="M197.8,91v-3.1c0-2.8,4.2-2.8,4.2,0V91C202,93.8,197.8,93.8,197.8,91z"/>
			</g>
		</g>
		<g>
			<g>
				<path class="st5" d="M282.2,162h-10.3c-1.1,0-2.1-0.9-2.1-2.1v-14.8c0-2.7,4.2-2.8,4.2,0v12.7h8.3c1.1,0,2.1,0.9,2.1,2.1
					C284.3,161.1,283.4,162,282.2,162z"/>
			</g>
		</g>
		<g>
			<g>
				<path class="st5" d="M295.3,144.5h-46.6c-1.1,0-2.1-0.9-2.1-2.1v-7.9c0-1.1,0.9-2.1,2.1-2.1h46.6c1.1,0,2.1,0.9,2.1,2.1v7.9
					C297.4,143.6,296.4,144.5,295.3,144.5z M250.8,140.4h42.4v-3.7h-42.4V140.4z"/>
			</g>
		</g>
		<g>
			<g>
				<path class="st5" d="M289.1,134.6V106h-34.4v28.6c0,2.7-4.2,2.8-4.2,0v-30.7c0-1.1,0.9-2.1,2.1-2.1h38.6c1.1,0,2.1,0.9,2.1,2.1
					v30.7C293.3,137.3,289.1,137.3,289.1,134.6z"/>
			</g>
		</g>
		<g>
			<g>
				<path class="st5" d="M283.9,115.6h-11.5c-2.7,0-2.8-4.2,0-4.2h11.5C286.7,111.4,286.7,115.6,283.9,115.6z"/>
			</g>
		</g>
		<g>
			<g>
				<path class="st5" d="M265.5,115.6h-4.7c-2.7,0-2.8-4.2,0-4.2h4.7C268.2,111.4,268.2,115.6,265.5,115.6z"/>
			</g>
		</g>
		<g>
			<g>
				<path class="st5" d="M277.6,124.8h-16.9c-2.7,0-2.8-4.2,0-4.2h16.9C280.4,120.7,280.4,124.8,277.6,124.8z"/>
			</g>
		</g>
	</g>
</g>
</svg>
