<?xml version="1.0" encoding="utf-8"?>
<!-- Generator: Adobe Illustrator 22.1.0, SVG Export Plug-In . SVG Version: 6.00 Build 0)  -->
<svg version="1.1" id="Layer_1" xmlns="http://www.w3.org/2000/svg" xmlns:xlink="http://www.w3.org/1999/xlink" x="0px" y="0px"
	 viewBox="0 0 440 330" style="enable-background:new 0 0 440 330;" xml:space="preserve">
<style type="text/css">
	.st0{fill:#AFBE23;}
	.st1{fill:#F6F7D9;}
	.st2{fill:#FFFFFF;}
	.st3{fill:#CDD755;}
	.st4{fill:#E43D30;}
	.st5{fill:#373E1E;}
</style>
<g>
	<rect class="st0" width="440" height="330"/>
	<circle class="st1" cx="220" cy="165" r="140"/>
</g>
<rect x="148" y="107.8" class="st2" width="144" height="102.1"/>
<g>
	<g>
		<g>
			<g>
				<path class="st3" d="M273.3,243.6H166.6v-4.8c0-3.5,2.8-6.3,6.3-6.3H267c3.5,0,6.3,2.8,6.3,6.3V243.6z"/>
			</g>
		</g>
	</g>
	<g>
		<g>
			<g>
				<polygon class="st3" points="251.7,104 251.7,95.2 187.4,95.2 187.4,104.1 178.2,104 178.2,86.4 261,86.4 261,104 				"/>
			</g>
		</g>
	</g>
	<g>
		<g>
			<g>
				<path class="st0" d="M291.4,105.3c-5.8,0-137.1,0-142.9,0c-1.5,0-2.6,1.1-2.6,2.5v101.7c0,1.4,1.2,2.5,2.6,2.5h142.5
					c1.6,0,3-1.2,3-2.8V107.8C294.1,106.4,292.9,105.3,291.4,105.3z M275.3,200.8c0-4.9,7.4-4.9,7.4,0
					C282.7,205.7,275.3,205.7,275.3,200.8z M284.8,196.1H155.2v-80.2l129.6,0.1V196.1z"/>
			</g>
		</g>
	</g>
	<g>
		<g>
			<g>
				<g>
					<g>
						<path class="st4" d="M183.8,157.2c-2.7-1.5-5.4-1.2-8,1.9c-5.2-6.4-13.3-0.2-11.2,6.3c1,4.3,10.5,11.8,11.8,11
							c4.4-2.8,11.1-7.9,11.1-13.1C187.4,160.8,186,158.4,183.8,157.2L183.8,157.2z"/>
					</g>
				</g>
			</g>
		</g>
	</g>
	<g>
		<g>
			<g>
				<path class="st5" d="M273.3,245.6H166.6c-1.2,0-2.1-0.9-2.1-2.1V239c0-4.8,3.9-8.7,8.7-8.7h93.5c4.8,0,8.7,3.9,8.7,8.7v4.5
					C275.4,244.7,274.5,245.6,273.3,245.6z M168.7,241.5h102.5V239c0-2.5-2-4.5-4.5-4.5h-93.5c-2.5,0-4.5,2-4.5,4.5V241.5z"/>
			</g>
		</g>
	</g>
	<g>
		<g>
			<g>
				<path class="st5" d="M219.9,227.8c-4.2,0-7.6-4.3-7.6-9.5v-4.8c0-2.8,4.2-2.8,4.2,0v4.8c0,2.8,1.6,5.3,3.4,5.3
					c1.8,0,3.4-2.5,3.4-5.3v-4.8c0-2.8,4.2-2.8,4.2,0v4.8C227.4,223.5,224.1,227.8,219.9,227.8z"/>
			</g>
		</g>
	</g>
	<g>
		<g>
			<g>
				<path class="st5" d="M291.1,214H148.6c-2.6,0-4.7-2-4.7-4.5V107.8c0-2.5,2.1-4.5,4.7-4.5h142.9c2.6,0,4.7,2,4.7,4.5v101.4
					C296.2,211.8,293.9,214,291.1,214z M148,107.8c0,108.7-0.3,102,0.5,102c150.7,0,143.4,0.4,143.4-0.7
					c0-108.4,0.3-101.7-0.5-101.7C290.9,107.4,148,107.2,148,107.8z"/>
			</g>
		</g>
	</g>
	<g>
		<g>
			<g>
				<path class="st5" d="M284.8,192.9H155.2c-1.1,0-2-0.9-2-2c0-78.1-0.9-77.1,2-77.1l129.6,0.1c1.1,0,2,0.9,2,2v74.9
					C286.9,192,286,192.9,284.8,192.9z M157.2,188.8h125.6V118l-125.6-0.1V188.8z"/>
			</g>
		</g>
	</g>
	<g>
		<g>
			<g>
				<path class="st5" d="M230.8,202.7c-3.1,0-3.1-4.6,0-4.6C233.9,198,233.9,202.7,230.8,202.7z"/>
			</g>
		</g>
	</g>
	<g>
		<g>
			<g>
				<path class="st5" d="M221.6,202.7c-3.1,0-3.1-4.6,0-4.6C224.6,198,224.6,202.7,221.6,202.7z"/>
			</g>
		</g>
	</g>
	<g>
		<g>
			<g>
				<path class="st5" d="M214.6,200.3c0,3.1-4.6,3.1-4.6,0c0-1.3,1-2.3,2.3-2.3C213.6,198,214.6,199.1,214.6,200.3z"/>
			</g>
		</g>
	</g>
	<g>
		<g>
			<g>
				<path class="st5" d="M294.2,243.6c0,2.7-4.2,2.8-4.2,0C290,240.8,294.2,240.8,294.2,243.6z"/>
			</g>
		</g>
	</g>
	<g>
		<g>
			<g>
				<path class="st5" d="M279,206.5c-3.2,0-5.7-2.6-5.7-5.7c0-3.2,2.6-5.7,5.7-5.7c3.2,0,5.7,2.6,5.7,5.7
					C284.7,203.9,282.2,206.5,279,206.5z M277.4,200.8c0,2.2,3.3,2.2,3.3,0C280.6,198.6,277.4,198.6,277.4,200.8z"/>
			</g>
		</g>
	</g>
	<g>
		<g>
			<g>
				<path class="st5" d="M260.6,202.4h-3.1c-2.8,0-2.8-4.2,0-4.2h3.1C263.4,198.3,263.4,202.4,260.6,202.4z M246.9,202.4h-3.1
					c-2.8,0-2.8-4.2,0-4.2h3.1C249.7,198.3,249.7,202.4,246.9,202.4z"/>
			</g>
		</g>
	</g>
	<g>
		<g>
			<g>
				<path class="st5" d="M201.5,202.4h-15.7c-2.7,0-2.7-4.1,0-4.1h15.7C204.2,198.3,204.2,202.4,201.5,202.4z"/>
			</g>
		</g>
	</g>
	<g>
		<g>
			<g>
				<path class="st5" d="M174.6,202.4h-3.1c-2.8,0-2.8-4.2,0-4.2h3.1c1.2,0,2.1,0.9,2.1,2.1C176.7,201.5,175.8,202.4,174.6,202.4z
					 M161,202.4h-3.1c-2.8,0-2.8-4.2,0-4.2h3.1C163.7,198.3,163.7,202.4,161,202.4z"/>
			</g>
		</g>
	</g>
	<g>
		<g>
			<g>
				<path class="st5" d="M258.9,104V88.5h-78.6V104c0,2.8-4.2,2.8-4.2,0V86.4c0-1.2,0.9-2.1,2.1-2.1H261c1.2,0,2.1,0.9,2.1,2.1V104
					C263.1,106.7,258.9,106.7,258.9,104z"/>
			</g>
		</g>
	</g>
	<g>
		<g>
			<g>
				<path class="st5" d="M249.6,104v-6.7h-60.1v6.4c0,2.8-4.2,2.8-4.2,0v-8.5c0-1.2,0.9-2.1,2.1-2.1h64.3c1.2,0,2.1,0.9,2.1,2.1v8.8
					C253.8,106.7,249.6,106.7,249.6,104z"/>
			</g>
		</g>
	</g>
	<g>
		<g>
			<g>
				<path class="st4" d="M242.4,155.8c-1.9-0.2-1.3,0.1-7.9-23.3l-4.9,14.5c-0.5,1.6-2.7,1.9-3.7,0.5l-3.3-4.7
					c-10.4,0-8.9,0.9-11.1-3.6c-6.7,16.2-6.4,16.6-8.3,16.6c-2-0.1-1.3,0.2-10-24.8l-5.9,12.2c-0.6,1.3-2.3,1.6-3.3,0.6l-4.9-4.9
					c-5.3,6.1-5.2,6.4-6.5,6.4h-9.1c-2.7,0-2.8-4.2,0-4.2h8.2c8.2-9.5,6.2-9.3,13.2-2.4c7.2-15,6.9-15.4,8.8-15.3
					c0.8,0,1.6,0.6,1.8,1.4l8,23c6.4-15.3,6-15.7,7.9-15.7c1.7,0,1.9,1.1,4.6,6.5c10.1,0,8.4-0.8,11.1,3.1l5.8-16.9
					c0.7-2,3.4-1.8,4,0.1l6.7,23.5c4.8-8,4.7-8.6,6.3-8.6l7.4,0c3.6-7.1,3.6-7.8,5.2-7.9c0.8,0,1.5,0.4,1.9,1.1l5.1,9.1h6.8
					c1.1,0,2.1,0.9,2.1,2.1c0,1.1-0.9,2.1-2.1,2.1h-8.1c-1.6,0-1.6-0.7-5.6-7.8c-2.2,4.4-2.4,5.5-4.1,5.5l-7.5,0l-6.4,10.7
					C244.1,155.6,243.2,155.9,242.4,155.8z"/>
			</g>
		</g>
	</g>
	<g>
		<g>
			<g>
				<path class="st5" d="M273.3,245.6H166.6c-1.2,0-2.1-0.9-2.1-2.1V239c0-4.8,3.9-8.7,8.7-8.7h93.5c4.8,0,8.7,3.9,8.7,8.7v4.5
					C275.4,244.7,274.5,245.6,273.3,245.6z M168.7,241.5h102.5V239c0-2.5-2-4.5-4.5-4.5h-93.5c-2.5,0-4.5,2-4.5,4.5V241.5z"/>
			</g>
		</g>
	</g>
	<g>
		<g>
			<g>
				<path class="st5" d="M271.4,168.6h-16.1c-2.8,0-2.8-4.2,0-4.2h16.1c1.2,0,2.1,0.9,2.1,2.1S272.6,168.6,271.4,168.6z"/>
			</g>
		</g>
	</g>
	<g>
		<g>
			<g>
				<path class="st5" d="M243.1,168.6h-27.6c-2.8,0-2.8-4.2,0-4.2h27.6c1.2,0,2.1,0.9,2.1,2.1S244.3,168.6,243.1,168.6z"/>
			</g>
		</g>
	</g>
	<g>
		<g>
			<g>
				<path class="st5" d="M271.4,178.5h-55.9c-2.8,0-2.8-4.2,0-4.2h55.9c1.2,0,2.1,0.9,2.1,2.1S272.6,178.5,271.4,178.5z"/>
			</g>
		</g>
	</g>
	<g>
		<g>
			<g>
				<path class="st5" d="M282.3,245.6h-9c-2.8,0-2.8-4.2,0-4.2h9c1.2,0,2.1,0.9,2.1,2.1S283.5,245.6,282.3,245.6z"/>
			</g>
		</g>
	</g>
	<g>
		<g>
			<g>
				<path class="st5" d="M170.1,245.6h-16.8c-2.8,0-2.8-4.2,0-4.2h16.8C172.9,241.5,172.9,245.6,170.1,245.6z"/>
			</g>
		</g>
	</g>
	<g>
		<g>
			<g>
				<path class="st5" d="M243,212.8c1-2.6,4.9-1.1,3.9,1.5l0,0c0,0.1-3,8.1,0,15.5c0.4,1.1-0.1,2.3-1.2,2.7
					C241,234.4,240.3,220,243,212.8z"/>
			</g>
		</g>
	</g>
	<g>
		<g>
			<g>
				<path class="st5" d="M193.9,229.8c2.9-7.4,0-15.4,0-15.5c-1-2.6,3-4.1,3.9-1.5c0.1,0.4,3.5,9.6,0,18.5
					C196.7,233.9,192.8,232.4,193.9,229.8z"/>
			</g>
		</g>
	</g>
</g>
</svg>
