<?xml version="1.0" encoding="utf-8"?>
<!-- Generator: Adobe Illustrator 22.1.0, SVG Export Plug-In . SVG Version: 6.00 Build 0)  -->
<svg version="1.1" id="Layer_1" xmlns="http://www.w3.org/2000/svg" xmlns:xlink="http://www.w3.org/1999/xlink" x="0px" y="0px"
	 viewBox="0 0 440 330" style="enable-background:new 0 0 440 330;" xml:space="preserve">
<style type="text/css">
	.st0{fill:#AFBE23;}
	.st1{fill:#F6F7D9;}
	.st2{fill:#FFFFFF;}
	.st3{fill:#E43D30;}
	.st4{fill:#373E1E;}
	.st5{fill:#CDD755;}
</style>
<g>
	<rect class="st0" width="440" height="330"/>
	<circle class="st1" cx="220" cy="165" r="140"/>
</g>
<g>
	<path class="st2" d="M170.2,186.1c-16.7,0-30.4-13.6-30.4-30.4v-49.1h60.7v49.1C200.6,172.5,186.9,186.1,170.2,186.1z"/>
	<g>
		<g>
			<path class="st0" d="M212.6,184.7v8.3h-4.3c-2.3,0-4.2,1.9-4.2,4.2c0,2.3,1.9,4.2,4.2,4.2h4.3v8h13.5v-24.7H212.6z"/>
		</g>
	</g>
	<g>
		<g>
			<path class="st3" d="M157.8,126.4c-4.4,0-7.6-0.3-10.2-0.8v30.1c0,12.5,10.2,22.6,22.6,22.6c12.5,0,22.6-10.2,22.6-22.6v-33.8
				C174.5,121.5,174.9,126.4,157.8,126.4z"/>
		</g>
	</g>
	<g>
		<g>
			<path class="st4" d="M273.4,140.1c-2.7,0-2.8-4.2,0-4.2C276.1,135.9,276.1,140.1,273.4,140.1z"/>
		</g>
	</g>
	<g>
		<g>
			<path class="st4" d="M182.7,204c0,2.7-4.2,2.8-4.2,0c0-1.1,0.9-2.1,2.1-2.1C181.8,201.9,182.7,202.8,182.7,204z"/>
		</g>
	</g>
	<g>
		<g>
			<path class="st4" d="M170.2,188.3c-17.9,0-32.5-14.6-32.5-32.5v-49.2c0-1.1,0.9-2.1,2.1-2.1h60.9c1.1,0,2.1,0.9,2.1,2.1v49.2
				C202.7,173.7,188.1,188.3,170.2,188.3z M141.8,108.6v47.1c0,15.6,12.7,28.4,28.4,28.4s28.4-12.7,28.4-28.4v-47.1H141.8z"/>
		</g>
	</g>
	<g>
		<g>
			<path class="st4" d="M176.3,106.1v-3.7c0-3.3-2.7-5.9-5.9-5.9c-3.3,0-5.9,2.7-5.9,5.9v3.7c0,2.7-4.2,2.8-4.2,0v-3.7
				c0-5.6,4.5-10.1,10.1-10.1c5.6,0,10.1,4.5,10.1,10.1v3.7C180.5,108.8,176.3,108.8,176.3,106.1z"/>
		</g>
	</g>
	<g>
		<g>
			<path class="st4" d="M170.6,198.7c-4.7,0-8.6-3.8-8.6-8.6v-4.5c0-2.7,4.2-2.8,4.2,0v4.5c0,2.4,2,4.4,4.4,4.4c2.4,0,4.4-2,4.4-4.4
				v-3.5c0-2.7,4.2-2.8,4.2,0v3.5C179.1,194.8,175.3,198.7,170.6,198.7z"/>
		</g>
	</g>
	<g>
		<g>
			<path class="st4" d="M267.8,132.7c-6-5.8-14-9-22.3-9c-8.9,0-16.6,1.8-23.8,8.5c-2,1.9-4.8-1.2-2.8-3.1
				c14.7-13.5,38.3-12.4,51.9,0.6C272.7,131.6,269.8,134.6,267.8,132.7z"/>
		</g>
	</g>
	<g>
		<g>
			<path class="st4" d="M217,177.5v-21.6c0-14.5,11.8-26.4,26.4-26.4h2.1c14.5,0,26.4,11.8,26.4,26.4v4.6c0,2.7-4.2,2.8-4.2,0v-4.6
				c0-12.2-10-22.2-22.2-22.2h-2.1c-12.2,0-22.2,10-22.2,22.2v21.6C221.2,180.2,217,180.2,217,177.5z"/>
		</g>
	</g>
	<g>
		<g>
			<path class="st4" d="M194.8,227.7c-14.8,0-19.7-18.4-14.2-18.4c1.1,0,2.1,0.9,2.1,2.1c0,6.7,5.5,12.2,12.2,12.2
				c7.8,0,8.8-6.3,11.5-3.6c0.8,0.8,0.8,2.1,0,2.9C203.3,226,199.2,227.7,194.8,227.7z"/>
		</g>
	</g>
	<g>
		<g>
			<path class="st4" d="M194.8,237.7c-14.5,0-26.4-11.8-26.4-26.4v-14.8c0-2.7,4.2-2.8,4.2,0v14.8c0,12.2,10,22.2,22.2,22.2
				c12.2,0,22.2-10,22.2-22.2c0-2.7,4.2-2.8,4.2,0C221.2,225.9,209.4,237.7,194.8,237.7z"/>
		</g>
	</g>
	<path class="st5" d="M259.3,171.1c-10.8,0-18.7,10.6-15.4,21c3.6,10.9,18.1,22,27.2,27.7c0.1,0.1,0.3,0.1,0.5,0
		c8.4-5.3,24.9-17.8,27.1-27.5c0.3-1,0.8-2.4,0.8-5c0-8.9-7.2-16.1-16.1-16.1c-4.2,0-9,4.7-10.5,6.5c-0.9,1.1-2.4,1-3.2,0
		C268.3,175.8,263.5,171.1,259.3,171.1z"/>
	<path class="st4" d="M267.5,220.3c-12.4-7.8-29.9-21.5-29.9-36.1c0-7.4,4-14.2,10.5-17.8c3-1.7,6.4-2.5,9.8-2.5
		c5,0,9.7,3.9,12.1,6.3c6.4-6.3,13.2-8.5,21.9-3.7c0,0,0,0,0,0c8.5,4.7,12.5,14.7,9.6,23.9c-3.2,13.5-26.3,28.4-29,30
		C270.9,221.3,269,221.3,267.5,220.3z M257.9,168.1c-10.8,0-18.7,10.6-15.4,21c3.6,10.9,18.1,22,27.2,27.7c0.1,0.1,0.3,0.1,0.5,0
		c8.4-5.3,24.9-17.8,27.1-27.5c0.3-1,0.8-2.4,0.8-5c0-8.9-7.2-16.1-16.1-16.1c-4.2,0-9,4.7-10.5,6.5c-0.9,1.1-2.4,1-3.2,0
		C266.8,172.8,262.1,168.1,257.9,168.1z"/>
	<g>
		<g>
			<path class="st4" d="M153.2,122.6h-13.4c-2.7,0-2.8-4.2,0-4.2h13.4C155.9,118.5,155.9,122.6,153.2,122.6z"/>
		</g>
	</g>
	<g>
		<g>
			<path class="st4" d="M153.2,134.6h-13.4c-2.7,0-2.8-4.2,0-4.2h13.4c1.1,0,2.1,0.9,2.1,2.1C155.3,133.6,154.3,134.6,153.2,134.6z"
				/>
		</g>
	</g>
	<g>
		<g>
			<path class="st4" d="M153.2,146.5h-13.4c-2.7,0-2.8-4.2,0-4.2h13.4C155.9,142.3,155.9,146.5,153.2,146.5z"/>
		</g>
	</g>
	<g>
		<g>
			<path class="st4" d="M153.2,158.4h-13.4c-2.7,0-2.8-4.2,0-4.2h13.4C155.9,154.3,155.9,158.4,153.2,158.4z"/>
		</g>
	</g>
	<g>
		<g>
			<path class="st4" d="M226.1,211.5h-13.5c-1.1,0-2.1-0.9-2.1-2.1v-5.9h-2.2c-3.5,0-6.3-2.8-6.3-6.3c0-3.5,2.8-6.3,6.3-6.3h2.2
				v-6.2c0-1.1,0.9-2.1,2.1-2.1h13.5c1.1,0,2.1,0.9,2.1,2.1v24.7C228.2,210.6,227.3,211.5,226.1,211.5z M214.7,207.3h9.4v-20.6h-9.4
				v6.2c0,1.1-0.9,2.1-2.1,2.1h-4.3c-2.9,0-2.9,4.3,0,4.3C215.6,199.4,214.7,198.6,214.7,207.3z"/>
		</g>
	</g>
</g>
</svg>
