<?xml version="1.0" encoding="utf-8"?>
<!-- Generator: Adobe Illustrator 22.1.0, SVG Export Plug-In . SVG Version: 6.00 Build 0)  -->
<svg version="1.1" id="Layer_8" xmlns="http://www.w3.org/2000/svg" xmlns:xlink="http://www.w3.org/1999/xlink" x="0px" y="0px"
	 viewBox="0 0 404.8 125.6" style="enable-background:new 0 0 404.8 125.6;" xml:space="preserve">
<style type="text/css">
	.st0{fill:#20241E;}
	.st1{fill:#AFBE23;}
</style>
<path class="st0" d="M121.7,97.9h5.6l7-27.9h-5.6l1-4.1h14.9c14.7,0,20.1,9.3,17.3,19.8C159.2,96,151.4,102,137.4,102h-16.8
	L121.7,97.9z M138.2,98c8.4,0,13-3.8,15.4-14c1.8-7.3,0.6-14-8.9-14h-3.4l-7,28H138.2z"/>
<path class="st0" d="M268.8,65.9v4.1h-5.8v28h7c4.4,0,5.2-1,7.9-10h3.3V102h-30.9v-4.1h5.6V70h-5.6v-4.1L268.8,65.9L268.8,65.9z"/>
<path class="st0" d="M291.5,90c0.2,6.2,2.8,8.7,7.4,8.7c3,0,5.2-1.3,6.6-4.6h3.3c-1.3,5.4-5.1,8.5-11.3,8.5c-8,0-12.8-5.5-12.8-13
	c0-7.7,5.4-13.5,12.9-13.5c8,0,11.6,6.4,11.4,13.8L291.5,90L291.5,90z M291.5,87h11c-0.3-4.9-1.9-7.6-5.3-7.6
	C294,79.4,292,81.4,291.5,87z"/>
<path class="st0" d="M336.4,80.6l5.2,16.3h0.2l4.8-16.3h-3.3v-4h10.8v4.1h-3.2l-7.2,21.7h-6.4l-4.6-13.8l-5.3,13.8H321l-7.1-21.7
	h-3.5v-4.1h13.8v4h-3.7l5,16.3h0.2l5.2-13.6l-0.9-2.7h-3.2v-4h13.7v4L336.4,80.6L336.4,80.6z"/>
<path class="st0" d="M356.2,98h4.4V80.7h-4.4v-4.1H367V98h4.4v4.1h-15.2L356.2,98L356.2,98z M359.3,68c0-2.4,1.7-4.2,4.2-4.2
	s4.1,1.6,4.1,4s-1.6,4.2-4.1,4.2S359.3,70.4,359.3,68z"/>
<path class="st0" d="M374.5,93h3.7c1.7,3.8,4.9,6.4,8.2,6.4c2.7,0,3.9-1.3,3.9-3.1c0-2.1-1.5-3.1-6.6-4.4c-6.1-1.7-8.8-3.7-8.8-8
	c0-4.3,3.6-7.8,9-7.8c2.9,0,5.3,1,6.6,3l0.7-3h3.7v8.7h-3.7c-1.9-3.5-3.9-5.7-7-5.7c-2,0-3.6,1-3.6,2.9c0,2,1.8,3,6.4,4.2
	c5.8,1.5,9,3.4,9,8c0,4.1-3.4,8.2-9.4,8.2c-3.5,0-6.1-1.5-7.8-3.5l-0.7,3.4h-3.6L374.5,93L374.5,93z"/>
<path class="st0" d="M176.4,102c-6.4,0-10.9-4.2-10.9-10.3c0-8.3,7-15.6,14.9-15.6c6.4,0,10.9,4.3,10.9,10.4
	C191.4,94.8,184.4,102,176.4,102z M180.6,79c-2.8,0-4.6,3.3-5.7,6.2c-1.3,3.4-1.9,7.3-1.9,9.5c0,3,1.1,4.6,3.3,4.6
	c5.1,0,7.7-10.9,7.7-15.6C183.9,80.5,182.8,79,180.6,79z"/>
<path class="st0" d="M205.5,102c-4.7,0-8.2-3.1-8.2-7.3c0-2.8,1.4-5.9,2.5-8.4c0.8-1.8,1.5-3.4,1.5-4.4c0-1.2-0.7-1.3-1.1-1.3
	c-1.4,0-2.5,1.6-4.1,5.1l-2.3-0.9c2.7-5.9,5.7-8.7,9.5-8.7c3,0,4.8,1.7,4.8,4.5c0,2.4-1.1,5.1-2,7.5c-0.8,2.1-1.6,4.1-1.6,5.6
	c0,2.1,1.6,3.5,3.8,3.5c1.6,0,3.1-0.8,4.5-2.2c3-3,4.7-8.2,4.7-11.3l0-0.6l-0.4,0.3c-0.3,0.2-1,0.4-1.8,0.4c-2,0-3.4-1.5-3.4-3.6
	c0-2.4,1.9-4.4,4.2-4.4c3.2,0,4.9,2.3,4.9,6.5C220.8,90.2,214.2,102,205.5,102z"/>
<path class="st0" d="M233.8,102c-6.3,0-10.3-3.9-10.3-9.8c0-8.7,7.4-16.1,16.1-16.1c5,0,8,2.3,8,6c0,2.6-1.6,8.6-16.4,9.1l-0.3,0
	v0.7c0,5.6,3.5,6.5,5.5,6.5c2.5,0,4.9-1.4,7.3-4.2l1.9,1.6C243.4,98.7,239.9,102,233.8,102z M238.5,78.9c-3.4,0-6.2,4.9-7.2,9.7
	l-0.1,0.4l0.4,0c2.8-0.2,9.4-1.3,9.4-6.9C241,80.1,240.1,78.9,238.5,78.9z"/>
<polygon class="st1" points="15.2,25.4 13.5,25 12.4,25.7 12.2,27.5 17.1,31.5 19.8,35.8 22.1,35.4 24.5,34.6 25.6,33.2 27,33.5 
	26.4,35 25.3,36 25.6,36.9 27.6,36.6 28.5,37.3 26.5,38.8 25.3,38.7 23,40.9 18.9,43.1 14.1,43.9 12.1,46.2 8.6,46.4 8.2,45.3 
	9.1,44.8 11.5,44.9 12.9,42.6 11.5,40.9 8.7,42 7.4,43.2 6.3,43.1 6.1,42 6.8,41.7 10.2,39.6 10.9,38.1 10.9,36.8 8.1,35.5 
	6.4,34.5 5.4,36.6 4.4,37 4,35.9 4.8,35 5.6,32.7 8.1,33.3 6.5,31.5 5.5,29.8 4.4,29.2 2.6,31.1 1.9,31 1.4,29.5 2.5,29.2 5.1,27.4 
	7.6,29.4 10.9,28.3 9.8,25.4 12.4,23.4 15.1,24.3 "/>
<polygon class="st1" points="36,61.3 37,60.1 37.4,57.4 36.1,56.3 34.5,57.8 33.5,58.6 28.3,56.5 23.4,46.5 25.3,44.8 26,41.6 
	22.9,43.4 21.6,45.5 16.7,46.2 17.2,48.7 18.7,50.4 18.7,51.1 15.4,50.5 13.7,52.2 14.4,54.2 16.1,52.6 18.4,53.7 16.6,55 
	16.8,57.1 19.4,58.3 19.8,57.6 18.5,55.7 20.8,56.3 25.1,63.2 33.7,66.9 36.5,70.1 39,70.6 40.5,72.2 41.2,71.3 40,68.8 37.7,67.4 
	37.1,64.4 "/>
<polygon class="st1" points="44.3,50.5 44,46.8 41.3,43.8 33.9,42.2 32,39.5 28.8,38.8 29.5,40.5 28.1,43.3 28,46.2 30.4,46 
	31.7,46.9 28.5,49.3 29.8,51.6 30.7,51.9 30.7,49.4 33.3,49 33.3,53.8 31.6,55.2 32.6,55.9 34.3,55.1 35,54.2 35.9,49.3 38.7,51.4 
	36.5,53.2 37.5,54.2 41.1,52.8 42.3,57.6 45.3,59.2 48.4,59.9 48.3,58.2 44.6,57.1 43.4,54.1 "/>
<polygon class="st1" points="48.5,101.9 51.6,102 52.6,103.5 48.8,104.4 47.4,110 46.5,111.4 44.7,112.4 42,112.2 42.9,113.8 
	42.9,115.9 43.5,117.5 45.2,117.7 47.6,116.2 47.3,118 46.1,120.1 46.6,121.3 48.4,120.4 48.3,119.5 52.2,115.1 52.1,114 
	56.4,107.5 56.2,106.6 55.2,106.2 55.2,103.1 52.1,100.4 49.7,100.6 47.7,98.5 48.6,95.2 47.4,96 46.4,98.7 "/>
<polygon class="st1" points="38.9,38.7 35.1,34.1 36.9,34 40.5,32.4 39.5,31.6 40.5,29.8 38.8,29.4 38.7,27 35.6,29.8 32,29.3 
	32.6,27.2 34.1,24.8 32.6,24.6 34,22.1 31.4,22.2 29.2,25.5 29.1,28 25.3,26.3 20.6,24.9 19.4,26 17.8,26.1 18,26.7 22.5,27.3 
	26.5,29.2 31,36.5 35.5,38.3 36.9,40.4 37.4,39.5 38.8,40.5 37.9,38.6 "/>
<polygon class="st1" points="72.9,60.1 73.7,61.3 72.6,61.7 73.9,63.8 77.3,67.7 72.2,66.5 72.3,67.5 73,68.1 71.8,68.8 73,69.5 
	71.7,70.6 78.1,71.9 80.4,71 83.2,73.3 86.3,73.6 87.1,75.2 86.3,75.5 86.2,74.4 85.5,76.3 87,77.4 89.8,77.7 90.7,76.3 91.9,75.3 
	93.2,74.7 93.6,73.2 92.7,73.9 91.1,74 90.3,70.1 87.1,65 83.2,63.8 78.7,64.8 76.9,61.8 76.2,61.9 74.4,58.2 74.1,59.4 73,58.9 "/>
<polygon class="st1" points="40.1,105.9 38.7,102.9 40.7,101.9 42.9,103 42.9,100 44.8,99.2 46.8,103.2 45.3,107.5 "/>
<polygon class="st1" points="53.8,43.4 52.9,44.4 50.9,39.6 48.1,36.6 50.6,38.2 52.6,38.8 54,38.6 52.2,36.4 50.7,35.5 46.3,33 
	43.4,32.5 42.7,34.2 44.1,37.5 41.4,36 39.6,35.2 39.4,36.2 41.4,37.8 45.1,40.9 45.5,41.4 45.9,41.9 47.1,43.5 46.6,46.6 
	47.6,47.8 46.5,51.4 47.3,51.9 48.5,49.8 47.7,53.2 49.1,53.6 50.2,51 51.2,49.2 51.1,47 52.1,46.7 53.6,46.1 54.7,44.1 "/>
<polygon class="st1" points="18,28.9 19.8,32.1 21.2,33.2 22.5,32.9 22.5,32.1 21.6,31 23.4,31.4 24.4,31.2 24.1,30.3 21.4,28.6 "/>
<polygon class="st1" points="126.8,38.5 124.9,38.3 124.6,40.3 126.5,42.3 123.9,41.8 123.6,44.4 131.9,47.4 129.1,42.3 "/>
<polygon class="st1" points="11,17.3 10.4,20 11,21 12.5,21.3 13.2,20.5 14.8,21.5 15.8,21.5 16.2,20.4 15,17 11.9,13.9 "/>
<polygon class="st1" points="8.5,23.1 9.6,13.7 11.3,10.8 12.4,9 12.9,8.2 10.4,3.8 8.8,4.4 9.3,7.9 7.7,8.8 7.2,7.4 4.7,6.2 3,6.8 
	3.8,7.8 5.1,8 5.7,9.5 3.9,11.6 3.3,13.4 2.1,13.6 2.1,12.5 1,12.2 0,15.4 3.5,15.3 3.4,18 4.8,21.1 3.6,21.4 3,20.5 2.1,20.7 
	2.7,23.2 3.9,23.8 1.6,24.8 1,23.4 0.3,24.7 0.5,26.6 3.8,25.9 6.5,24.3 7,25.6 8.2,25.6 9.2,23.9 "/>
<polygon class="st1" points="12.4,0 13.5,4.5 14.3,7.8 16.9,8 17,5.3 18.8,6.8 19.6,5 19.1,3.3 16.7,1.9 "/>
<polygon class="st1" points="85.6,61.7 81.1,61.3 79.1,61 78.5,59 80.8,58.6 79.7,57.3 81.1,56.8 83.1,58.2 "/>
<polygon class="st1" points="65,79.7 63.7,80.9 60.2,82.4 57.7,83.7 55.8,86.3 55.1,90.1 52.5,93.2 50.4,94.7 51.6,95.3 51.2,96.5 
	51.8,97.5 51.7,99.2 53,99.5 55.1,96.9 56,97.7 55.3,100 55.7,101.5 56.5,101.2 56.9,101.8 57.5,101.3 57.6,100.5 58.6,99.2 
	59.2,96.3 59.4,94.2 61.6,89.8 62.3,92.9 63.3,92.3 63.3,90.9 64.2,91.4 64.8,91.1 63.8,88.6 64.6,87.2 65,84.1 62.7,82.9 
	64.6,82.5 66.8,80.3 66.9,79 "/>
<polygon class="st1" points="95.2,79.2 95,78.2 94,79 92,81.1 86.3,79.2 83.7,80.4 82.5,83.7 79.4,86.4 76.9,87.7 74,88.1 74,89.1 
	76.2,88.8 79.9,87.7 84.2,85.2 85.1,86.2 87.2,87.2 88.6,87.9 89.5,89.5 91.1,89.6 93.1,89 93.3,88.4 90.6,88.4 89.9,86.8 
	89.6,85.5 93.6,85.8 97.5,85.3 99.1,83.9 100.8,82.8 101.7,81.2 101,80.5 98.2,83 96.1,83.2 95.7,82.6 96.3,82.1 97.7,81 97.6,80.2 
	"/>
<polygon class="st1" points="72.8,87.4 74.2,85.7 74.2,82.8 72.9,82.3 71.1,84.1 71,81 69.6,80.3 67.7,81.7 67.7,85.9 69.3,90.4 "/>
<polygon class="st1" points="42.7,120.6 42.6,123.2 40.3,123.8 41.7,120.8 41,119.9 39.9,120 39.4,116.9 38.5,114.2 39.6,113.2 
	40.3,112 42.8,110.7 43.9,108.8 41.8,108.2 39.7,109 38.5,108.4 37.1,108.1 36.2,106.5 34.7,105.3 33.9,107 33.7,109.1 34.8,110.2 
	34.6,111.7 34.9,113.2 33.1,115.1 32.1,117.8 31.8,119.9 31.3,122.6 30.7,122.8 29.9,123 30.2,124 32.1,124.1 32.5,122.8 
	33.4,120.9 33.8,123 32.9,123.3 32.8,124.1 34.8,124 34.1,124.6 34.9,125.4 36.5,125 37.2,124.1 37.1,125.4 37.7,125.6 38.9,124.5 
	40.8,125 43.5,124.1 44.1,122.5 43.6,121.4 "/>
<polygon class="st1" points="64.4,94.7 64.4,93.6 65.4,92.6 66.4,91 67.2,91.7 67.1,92.1 68.5,92.4 71.1,92.6 73.2,92.6 76.9,91.7 
	79.9,89.5 81.2,88.8 82.4,88.6 82.2,89.4 81.1,90 82.7,90.6 83.3,91.1 84,89.2 86.9,89.2 87.9,90 87.4,90.4 86.3,90.1 84.9,89.9 
	84.4,91.1 84.3,92.2 84.9,91.5 86.2,91 87.4,91.2 87.3,92.2 86,91.8 85.4,92.4 83.7,93.7 82,93.8 80.3,93.5 78,95.6 76,96.4 
	73.1,96.7 72.6,97.4 74.2,96.8 73.5,98.2 71.8,98.3 72,96.9 71.1,96.6 71.1,96.9 72,97.8 70.9,98 69.8,96.8 70.1,96.2 68.4,95.2 
	67.1,95.1 64.7,96.2 63.3,95.7 "/>
<polygon class="st1" points="70.8,56.5 69.4,54.1 68.1,53.6 68,53.2 65.4,53.2 64.9,56 64.3,60 62,60.9 61.6,62.5 59.1,62.8 
	57.6,65 58.9,64.8 60.7,65 58.5,65.8 57.5,68.7 59.4,67.7 60.6,67.4 62.7,71.6 62.2,73.3 63.2,76.7 62.7,77.8 59.9,78.7 59.6,79.2 
	61.2,80.2 63.4,79.2 65.5,78.2 65.5,76.8 68.6,74.8 69.9,71.4 68.8,62.8 70.1,59.4 70.7,58.7 71.3,59.1 72,57 "/>
<polygon class="st1" points="81.6,76.1 80.9,75.4 79.3,74.9 78.2,73.5 77.6,74 77.3,75.2 76.2,74.4 74.7,74.2 73.1,74.8 71.7,76.1 
	71,77.8 71,79 71.4,79 71.7,78.3 72.4,77 72.9,78 74.6,79 75.4,80.4 76.9,81.7 77.3,83 77.9,83.2 78.5,82.7 78.5,81.8 79.2,82.2 
	79.7,83.2 80.3,83.7 80.7,82.8 80.1,81.6 80.9,80.5 81.2,79.4 82.1,78.2 83.2,76.7 83.4,75.8 82.4,75.9 "/>
<polygon class="st1" points="70.9,47.8 69.1,46 63,43.1 62.4,42.1 60.8,41.7 59.7,42.4 58.6,41.8 58,40.8 56.4,40.6 55.8,41.2 
	56.1,42.1 57,42.4 56.8,44.6 56.2,47.2 56.6,49 56.8,50 56.8,51.6 57.2,53.5 58.1,53.9 58.2,55.3 59.1,56.6 60,54.5 60.2,54.1 
	61.5,53.3 62,54.1 63.5,54.6 63.3,52.9 62.6,52 63,50.5 64.6,50.6 66.9,51.3 70.4,50.9 72.6,51.4 73.7,52.1 73.6,53.6 72.4,53.8 
	72,54.6 73,55.1 74.8,54.6 75.5,52.8 75.1,50.6 73.1,49.1 71.4,48.7 "/>
<polygon class="st1" points="108,62.8 106.4,62.5 105.2,62.7 104.9,63.8 105.2,64.9 103.8,66.2 103.3,66.4 102.2,65.8 101.5,65.6 
	100.6,66.3 101.1,66.7 102,67.1 102.1,67.7 99.5,67.8 99,69.4 99.7,69.8 100.3,68.9 101.1,69.8 99.9,73 98.5,73.7 97.2,76.5 
	95.4,75.8 95.1,76.5 96.3,77.7 99,79.6 100.1,78.6 101.8,79.2 106,75 107.8,67.7 108.5,66.5 109.4,65.6 110,63.3 108.8,63.7 
	108.4,63.5 108.8,62 "/>
<polygon class="st1" points="97.1,62.4 96.4,60.3 96.1,57.1 95.8,56.6 96.2,54.7 95.9,52.2 94.8,51 94.1,51.2 93.9,52 94.9,53 
	94.3,53.8 94.1,53.9 92.9,52 92.3,49.1 93,47.8 90.6,48.2 90.2,52.3 87.1,51.6 88.7,50.8 88.2,49.6 84.9,51.1 84.4,50.7 85.6,49.7 
	84.3,48.8 81,51.3 81.8,52.3 80.3,52.1 77.4,53.5 77.3,54.6 79.5,53.8 82,53.9 84.8,56.9 92.7,61.6 93.2,63.7 92.5,64.5 91.2,64 
	91.8,65.2 93.4,66 95.5,66.7 97.3,66.7 97.9,65.6 98.7,65.8 99.1,65 99.4,63.6 "/>
<polygon class="st1" points="98.2,51.5 96.7,49.1 94.6,47.1 95.8,45.5 97.1,45.2 98.1,46.5 98.5,44.1 100.6,43.4 101.8,44.7 
	99.9,47.8 "/>
<polygon class="st1" points="111.5,61.4 109,60.1 107.2,58 107.9,55.8 110.6,57 110.3,54.1 112.6,53.7 113.9,56.2 "/>
<polygon class="st1" points="120.6,40.9 123.2,38.3 124.6,36.1 124.2,35.2 123.7,35.2 123.6,34.6 121.7,33.8 120.8,32.9 120.1,33.6 
	121,35 119.8,34.5 119.4,35.2 120.4,36.2 120.1,36.8 117.9,37.5 117,38.6 115.7,38.2 114.6,38 113.7,38.5 113.3,39.9 114.2,40.1 
	114.5,39.2 115.9,39.9 115.5,43.5 116,46.1 114.9,47.6 114.4,49.7 113.2,50.2 112.3,50.5 113.2,51 115.1,50.6 115.2,50.9 
	114.1,51.4 113,51.8 114.1,52.6 116.2,51.4 116.6,49.8 117.8,48.9 119,47.8 119.5,46.2 121.5,44.9 121.9,43.2 120.7,41.9 
	120.4,42.6 120.8,43.9 119.6,45 119.7,42.8 "/>
<polygon class="st1" points="111.8,41.9 110.9,39.3 109.3,37.3 107.6,37.7 107.7,39 109.9,40.3 110.4,41.7 109.5,41.5 108.3,40.5 
	107.4,41.5 108.4,42.4 107.1,44.5 107,41.7 106.9,40.1 106.3,39.6 105.1,40.2 105.7,41.1 105.2,44.2 104.7,41.9 103.8,41.5 
	102.7,41.6 103.6,42.8 103.8,43.8 102.9,47.2 101.5,48.5 100.5,50.4 100.9,52.8 100.5,55.7 100.4,56.5 98.9,56.4 98.2,57.9 
	100,58.8 100.9,60.7 102.3,61.1 104.2,60.6 105.8,59.2 105.7,57.7 105.2,57.7 105.8,55.3 109.7,51.3 112.3,46.6 112.4,43.5 "/>
<polygon class="st1" points="112.2,36.7 111.1,35.6 112.2,33.4 114.3,33.3 114.6,31.3 117.5,31.5 117.7,32.9 116.9,36.2 "/>
<polygon class="st1" points="97.6,70.1 96.8,68.6 95.4,68.2 95.1,69.5 93.5,68.8 92.6,70.2 94.6,71.9 96.9,72.9 "/>
<polygon class="st1" points="30,20.8 28.5,21 28.5,18.3 25.9,15.4 24.7,12.7 21.3,9.2 20.8,8.1 19.7,6.9 19.4,9.2 18,10.1 16.4,9.9 
	15.6,10.4 16.8,11.7 17.8,12.2 19.2,15 20.4,16.5 20.4,21 19.2,19.8 18.3,16.2 15.2,12.8 15,13.9 17.3,16.9 18.6,22.1 22.6,25 
	24.9,24.7 25.9,23.9 26.4,24.3 28,22.8 30.4,21.5 "/>
<polygon class="st1" points="58.5,69.5 58.7,70.7 57.6,73.3 56.5,73.6 56.5,72.2 55.4,70.4 55.1,68.2 54.8,65 55.3,62.5 55.4,59.4 
	57.1,58 57.5,55.7 55.8,56.3 54.3,56.8 52.2,56.3 51.6,54.8 49.7,53.8 50.1,56.2 49.7,57.4 49.6,59.5 48.5,63.3 47.1,68 43.9,72.4 
	41.9,73.2 42.8,74 44.3,74 47.8,70.5 47.2,72.2 48.2,74 46.3,74.2 45.9,74.9 49.9,75.4 50.5,75.8 50.2,76.6 51,77.2 52.4,77.2 
	52.2,76.4 53.8,76.4 55.2,77.2 56.6,77.3 56.3,76.2 56.6,75.5 58.7,75.8 60.4,74 60,70.4 "/>
<polygon class="st1" points="44,67.8 39.8,65.7 38.5,64.2 38.8,61.9 41.6,63.1 41.5,60.4 43.3,59.9 45.5,62.6 "/>
<path class="st0" d="M401.6,82.4c-1.8,0-3.1-1.4-3.1-3.1c0-1.8,1.4-3.2,3.1-3.2c1.8,0,3.1,1.4,3.1,3.2
	C404.8,81,403.4,82.4,401.6,82.4z M401.6,76.6c-1.5,0-2.6,1.2-2.6,2.7c0,1.5,1.1,2.7,2.6,2.7c1.5,0,2.7-1.2,2.7-2.7
	C404.3,77.8,403.1,76.6,401.6,76.6z M401.5,77.7c0.9,0,1.3,0.4,1.3,0.9c0,0.4-0.2,0.7-0.7,0.9l0.6,0.8l0.4,0.5l-0.6,0l-0.9-1.2h-0.4
	v0.6c0,0.2,0,0.4,0,0.6h-0.6c0-0.2,0-0.8,0-1v-1c0-0.3,0-0.8,0-1C400.8,77.7,401.3,77.7,401.5,77.7z M401.6,79.2
	c0.5,0,0.7-0.2,0.7-0.6c0-0.3-0.2-0.5-0.7-0.5c-0.1,0-0.3,0-0.4,0v1.1L401.6,79.2L401.6,79.2z"/>
<path class="st1" d="M53,121v0.4h-1.1v2.8h-0.4v-2.8h-1.1V121H53z"/>
<path class="st1" d="M53.4,121H54l0.9,2.7l0.9-2.7h0.6v3.2H56v-1.9c0-0.1,0-0.2,0-0.3c0-0.1,0-0.3,0-0.5l-0.9,2.7h-0.4l-0.9-2.7v0.1
	c0,0.1,0,0.2,0,0.4c0,0.2,0,0.3,0,0.4v1.9h-0.4C53.4,124.2,53.4,121,53.4,121z"/>
</svg>
