<svg version="1.1" id="Layer_8" xmlns="http://www.w3.org/2000/svg" x="0" y="0" viewBox="0 0 404.8 125.6" xml:space="preserve"><style>.st0{fill:#fff}</style><path class="st0" d="M121.7 97.9h5.6l7-27.9h-5.6l1-4.1h14.9c14.7 0 20.1 9.3 17.3 19.8-2.7 10.3-10.5 16.3-24.5 16.3h-16.8l1.1-4.1zm16.5.1c8.4 0 13-3.8 15.4-14 1.8-7.3.6-14-8.9-14h-3.4l-7 28h3.9zM268.8 65.9V70H263v28h7c4.4 0 5.2-1 7.9-10h3.3v14h-30.9v-4.1h5.6V70h-5.6v-4.1h18.5zM291.5 90c.2 6.2 2.8 8.7 7.4 8.7 3 0 5.2-1.3 6.6-4.6h3.3c-1.3 5.4-5.1 8.5-11.3 8.5-8 0-12.8-5.5-12.8-13 0-7.7 5.4-13.5 12.9-13.5 8 0 11.6 6.4 11.4 13.8l-17.5.1zm0-3h11c-.3-4.9-1.9-7.6-5.3-7.6-3.2 0-5.2 2-5.7 7.6zM336.4 80.6l5.2 16.3h.2l4.8-16.3h-3.3v-4h10.8v4.1h-3.2l-7.2 21.7h-6.4l-4.6-13.8-5.3 13.8H321l-7.1-21.7h-3.5v-4.1h13.8v4h-3.7l5 16.3h.2l5.2-13.6-.9-2.7h-3.2v-4h13.7v4h-4.1zM356.2 98h4.4V80.7h-4.4v-4.1H367V98h4.4v4.1h-15.2V98zm3.1-30c0-2.4 1.7-4.2 4.2-4.2s4.1 1.6 4.1 4-1.6 4.2-4.1 4.2-4.2-1.6-4.2-4zM374.5 93h3.7c1.7 3.8 4.9 6.4 8.2 6.4 2.7 0 3.9-1.3 3.9-3.1 0-2.1-1.5-3.1-6.6-4.4-6.1-1.7-8.8-3.7-8.8-8s3.6-7.8 9-7.8c2.9 0 5.3 1 6.6 3l.7-3h3.7v8.7h-3.7c-1.9-3.5-3.9-5.7-7-5.7-2 0-3.6 1-3.6 2.9 0 2 1.8 3 6.4 4.2 5.8 1.5 9 3.4 9 8 0 4.1-3.4 8.2-9.4 8.2-3.5 0-6.1-1.5-7.8-3.5l-.7 3.4h-3.6V93zM176.4 102c-6.4 0-10.9-4.2-10.9-10.3 0-8.3 7-15.6 14.9-15.6 6.4 0 10.9 4.3 10.9 10.4.1 8.3-6.9 15.5-14.9 15.5zm4.2-23c-2.8 0-4.6 3.3-5.7 6.2-1.3 3.4-1.9 7.3-1.9 9.5 0 3 1.1 4.6 3.3 4.6 5.1 0 7.7-10.9 7.7-15.6-.1-3.2-1.2-4.7-3.4-4.7zM205.5 102c-4.7 0-8.2-3.1-8.2-7.3 0-2.8 1.4-5.9 2.5-8.4.8-1.8 1.5-3.4 1.5-4.4 0-1.2-.7-1.3-1.1-1.3-1.4 0-2.5 1.6-4.1 5.1l-2.3-.9c2.7-5.9 5.7-8.7 9.5-8.7 3 0 4.8 1.7 4.8 4.5 0 2.4-1.1 5.1-2 7.5-.8 2.1-1.6 4.1-1.6 5.6 0 2.1 1.6 3.5 3.8 3.5 1.6 0 3.1-.8 4.5-2.2 3-3 4.7-8.2 4.7-11.3v-.6l-.4.3c-.3.2-1 .4-1.8.4-2 0-3.4-1.5-3.4-3.6 0-2.4 1.9-4.4 4.2-4.4 3.2 0 4.9 2.3 4.9 6.5-.2 7.9-6.8 19.7-15.5 19.7zM233.8 102c-6.3 0-10.3-3.9-10.3-9.8 0-8.7 7.4-16.1 16.1-16.1 5 0 8 2.3 8 6 0 2.6-1.6 8.6-16.4 9.1h-.3v.7c0 5.6 3.5 6.5 5.5 6.5 2.5 0 4.9-1.4 7.3-4.2l1.9 1.6c-2.2 2.9-5.7 6.2-11.8 6.2zm4.7-23.1c-3.4 0-6.2 4.9-7.2 9.7l-.1.4h.4c2.8-.2 9.4-1.3 9.4-6.9 0-2-.9-3.2-2.5-3.2zM15.2 25.4l-1.7-.4-1.1.7-.2 1.8 4.9 4 2.7 4.3 2.3-.4 2.4-.8 1.1-1.4 1.4.3-.6 1.5-1.1 1 .3.9 2-.3.9.7-2 1.5-1.2-.1-2.3 2.2-4.1 2.2-4.8.8-2 2.3-3.5.2-.4-1.1.9-.5 2.4.1 1.4-2.3-1.4-1.7L8.7 42l-1.3 1.2-1.1-.1-.2-1.1.7-.3 3.4-2.1.7-1.5v-1.3l-2.8-1.3-1.7-1-1 2.1-1 .4-.4-1.1.8-.9.8-2.3 2.5.6-1.6-1.8-1-1.7-1.1-.6-1.8 1.9-.7-.1-.5-1.5 1.1-.3 2.6-1.8 2.5 2 3.3-1.1-1.1-2.9 2.6-2 2.7.9zM36 61.3l1-1.2.4-2.7-1.3-1.1-1.6 1.5-1 .8-5.2-2.1-4.9-10 1.9-1.7.7-3.2-3.1 1.8-1.3 2.1-4.9.7.5 2.5 1.5 1.7v.7l-3.3-.6-1.7 1.7.7 2 1.7-1.6 2.3 1.1-1.8 1.3.2 2.1 2.6 1.2.4-.7-1.3-1.9 2.3.6 4.3 6.9 8.6 3.7 2.8 3.2 2.5.5 1.5 1.6.7-.9-1.2-2.5-2.3-1.4-.6-3z"/><path class="st0" d="M44.3 50.5l-.3-3.7-2.7-3-7.4-1.6-1.9-2.7-3.2-.7.7 1.7-1.4 2.8-.1 2.9 2.4-.2 1.3.9-3.2 2.4 1.3 2.3.9.3v-2.5l2.6-.4v4.8l-1.7 1.4 1 .7 1.7-.8.7-.9.9-4.9 2.8 2.1-2.2 1.8 1 1 3.6-1.4 1.2 4.8 3 1.6 3.1.7-.1-1.7-3.7-1.1-1.2-3zM48.5 101.9l3.1.1 1 1.5-3.8.9-1.4 5.6-.9 1.4-1.8 1-2.7-.2.9 1.6v2.1l.6 1.6 1.7.2 2.4-1.5-.3 1.8-1.2 2.1.5 1.2 1.8-.9-.1-.9 3.9-4.4-.1-1.1 4.3-6.5-.2-.9-1-.4v-3.1l-3.1-2.7-2.4.2-2-2.1.9-3.3-1.2.8-1 2.7zM38.9 38.7l-3.8-4.6 1.8-.1 3.6-1.6-1-.8 1-1.8-1.7-.4-.1-2.4-3.1 2.8-3.6-.5.6-2.1 1.5-2.4-1.5-.2 1.4-2.5-2.6.1-2.2 3.3-.1 2.5-3.8-1.7-4.7-1.4-1.2 1.1-1.6.1.2.6 4.5.6 4 1.9 4.5 7.3 4.5 1.8 1.4 2.1.5-.9 1.4 1-.9-1.9zM72.9 60.1l.8 1.2-1.1.4 1.3 2.1 3.4 3.9-5.1-1.2.1 1 .7.6-1.2.7 1.2.7-1.3 1.1 6.4 1.3 2.3-.9 2.8 2.3 3.1.3.8 1.6-.8.3-.1-1.1-.7 1.9 1.5 1.1 2.8.3.9-1.4 1.2-1 1.3-.6.4-1.5-.9.7-1.6.1-.8-3.9-3.2-5.1-3.9-1.2-4.5 1-1.8-3-.7.1-1.8-3.7-.3 1.2-1.1-.5z"/><path class="st0" d="M40.1 105.9l-1.4-3 2-1 2.2 1.1v-3l1.9-.8 2 4-1.5 4.3zM53.8 43.4l-.9 1-2-4.8-2.8-3 2.5 1.6 2 .6 1.4-.2-1.8-2.2-1.5-.9-4.4-2.5-2.9-.5-.7 1.7 1.4 3.3-2.7-1.5-1.8-.8-.2 1 2 1.6 3.7 3.1.4.5.4.5 1.2 1.6-.5 3.1 1 1.2-1.1 3.6.8.5 1.2-2.1-.8 3.4 1.4.4 1.1-2.6 1-1.8-.1-2.2 1-.3 1.5-.6 1.1-2zM18 28.9l1.8 3.2 1.4 1.1 1.3-.3v-.8l-.9-1.1 1.8.4 1-.2-.3-.9-2.7-1.7zM126.8 38.5l-1.9-.2-.3 2 1.9 2-2.6-.5-.3 2.6 8.3 3-2.8-5.1zM11 17.3l-.6 2.7.6 1 1.5.3.7-.8 1.6 1h1l.4-1.1L15 17l-3.1-3.1zM8.5 23.1l1.1-9.4 1.7-2.9L12.4 9l.5-.8-2.5-4.4-1.6.6.5 3.5-1.6.9-.5-1.4-2.5-1.2-1.7.6.8 1 1.3.2.6 1.5-1.8 2.1-.6 1.8-1.2.2v-1.1L1 12.2l-1 3.2 3.5-.1-.1 2.7 1.4 3.1-1.2.3-.6-.9-.9.2.6 2.5 1.2.6-2.3 1-.6-1.4-.7 1.3.2 1.9 3.3-.7 2.7-1.6.5 1.3h1.2l1-1.7zM12.4 0l1.1 4.5.8 3.3 2.6.2.1-2.7 1.8 1.5.8-1.8-.5-1.7-2.4-1.4zM85.6 61.7l-4.5-.4-2-.3-.6-2 2.3-.4-1.1-1.3 1.4-.5 2 1.4zM65 79.7l-1.3 1.2-3.5 1.5-2.5 1.3-1.9 2.6-.7 3.8-2.6 3.1-2.1 1.5 1.2.6-.4 1.2.6 1-.1 1.7 1.3.3 2.1-2.6.9.8-.7 2.3.4 1.5.8-.3.4.6.6-.5.1-.8 1-1.3.6-2.9.2-2.1 2.2-4.4.7 3.1 1-.6v-1.4l.9.5.6-.3-1-2.5.8-1.4.4-3.1-2.3-1.2 1.9-.4 2.2-2.2.1-1.3zM95.2 79.2l-.2-1-1 .8-2 2.1-5.7-1.9-2.6 1.2-1.2 3.3-3.1 2.7-2.5 1.3-2.9.4v1l2.2-.3 3.7-1.1 4.3-2.5.9 1 2.1 1 1.4.7.9 1.6 1.6.1 2-.6.2-.6h-2.7l-.7-1.6-.3-1.3 4 .3 3.9-.5 1.6-1.4 1.7-1.1.9-1.6-.7-.7-2.8 2.5-2.1.2-.4-.6.6-.5 1.4-1.1-.1-.8zM72.8 87.4l1.4-1.7v-2.9l-1.3-.5-1.8 1.8L71 81l-1.4-.7-1.9 1.4v4.2l1.6 4.5zM42.7 120.6l-.1 2.6-2.3.6 1.4-3-.7-.9-1.1.1-.5-3.1-.9-2.7 1.1-1 .7-1.2 2.5-1.3 1.1-1.9-2.1-.6-2.1.8-1.2-.6-1.4-.3-.9-1.6-1.5-1.2-.8 1.7-.2 2.1 1.1 1.1-.2 1.5.3 1.5-1.8 1.9-1 2.7-.3 2.1-.5 2.7-.6.2-.8.2.3 1 1.9.1.4-1.3.9-1.9.4 2.1-.9.3-.1.8 2-.1-.7.6.8.8 1.6-.4.7-.9-.1 1.3.6.2 1.2-1.1 1.9.5 2.7-.9.6-1.6-.5-1.1z"/><path class="st0" d="M64.4 94.7v-1.1l1-1 1-1.6.8.7-.1.4 1.4.3 2.6.2h2.1l3.7-.9 3-2.2 1.3-.7 1.2-.2-.2.8-1.1.6 1.6.6.6.5.7-1.9h2.9l1 .8-.5.4-1.1-.3-1.4-.2-.5 1.2-.1 1.1.6-.7 1.3-.5 1.2.2-.1 1-1.3-.4-.6.6-1.7 1.3-1.7.1-1.7-.3-2.3 2.1-2 .8-2.9.3-.5.7 1.6-.6-.7 1.4-1.7.1.2-1.4-.9-.3v.3l.9.9-1.1.2-1.1-1.2.3-.6-1.7-1-1.3-.1-2.4 1.1-1.4-.5zM70.8 56.5l-1.4-2.4-1.3-.5-.1-.4h-2.6l-.5 2.8-.6 4-2.3.9-.4 1.6-2.5.3-1.5 2.2 1.3-.2 1.8.2-2.2.8-1 2.9 1.9-1 1.2-.3 2.1 4.2-.5 1.7 1 3.4-.5 1.1-2.8.9-.3.5 1.6 1 2.2-1 2.1-1v-1.4l3.1-2 1.3-3.4-1.1-8.6 1.3-3.4.6-.7.6.4.7-2.1zM81.6 76.1l-.7-.7-1.6-.5-1.1-1.4-.6.5-.3 1.2-1.1-.8-1.5-.2-1.6.6-1.4 1.3-.7 1.7V79h.4l.3-.7.7-1.3.5 1 1.7 1 .8 1.4 1.5 1.3.4 1.3.6.2.6-.5v-.9l.7.4.5 1 .6.5.4-.9-.6-1.2.8-1.1.3-1.1.9-1.2 1.1-1.5.2-.9-1 .1z"/><path class="st0" d="M70.9 47.8L69.1 46 63 43.1l-.6-1-1.6-.4-1.1.7-1.1-.6-.6-1-1.6-.2-.6.6.3.9.9.3-.2 2.2-.6 2.6.4 1.8.2 1v1.6l.4 1.9.9.4.1 1.4.9 1.3.9-2.1.2-.4 1.3-.8.5.8 1.5.5-.2-1.7-.7-.9.4-1.5 1.6.1 2.3.7 3.5-.4 2.2.5 1.1.7-.1 1.5-1.2.2-.4.8 1 .5 1.8-.5.7-1.8-.4-2.2-2-1.5-1.7-.4zM108 62.8l-1.6-.3-1.2.2-.3 1.1.3 1.1-1.4 1.3-.5.2-1.1-.6-.7-.2-.9.7.5.4.9.4.1.6-2.6.1-.5 1.6.7.4.6-.9.8.9-1.2 3.2-1.4.7-1.3 2.8-1.8-.7-.3.7 1.2 1.2 2.7 1.9 1.1-1 1.7.6L106 75l1.8-7.3.7-1.2.9-.9.6-2.3-1.2.4-.4-.2.4-1.5zM97.1 62.4l-.7-2.1-.3-3.2-.3-.5.4-1.9-.3-2.5-1.1-1.2-.7.2-.2.8 1 1-.6.8-.2.1-1.2-1.9-.6-2.9.7-1.3-2.4.4-.4 4.1-3.1-.7 1.6-.8-.5-1.2-3.3 1.5-.5-.4 1.2-1-1.3-.9-3.3 2.5.8 1-1.5-.2-2.9 1.4-.1 1.1 2.2-.8 2.5.1 2.8 3 7.9 4.7.5 2.1-.7.8-1.3-.5.6 1.2 1.6.8 2.1.7h1.8l.6-1.1.8.2.4-.8.3-1.4zM98.2 51.5l-1.5-2.4-2.1-2 1.2-1.6 1.3-.3 1 1.3.4-2.4 2.1-.7 1.2 1.3-1.9 3.1zM111.5 61.4l-2.5-1.3-1.8-2.1.7-2.2 2.7 1.2-.3-2.9 2.3-.4 1.3 2.5zM120.6 40.9l2.6-2.6 1.4-2.2-.4-.9h-.5l-.1-.6-1.9-.8-.9-.9-.7.7.9 1.4-1.2-.5-.4.7 1 1-.3.6-2.2.7-.9 1.1-1.3-.4-1.1-.2-.9.5-.4 1.4.9.2.3-.9 1.4.7-.4 3.6.5 2.6-1.1 1.5-.5 2.1-1.2.5-.9.3.9.5 1.9-.4.1.3-1.1.5-1.1.4 1.1.8 2.1-1.2.4-1.6 1.2-.9 1.2-1.1.5-1.6 2-1.3.4-1.7-1.2-1.3-.3.7.4 1.3-1.2 1.1.1-2.2zM111.8 41.9l-.9-2.6-1.6-2-1.7.4.1 1.3 2.2 1.3.5 1.4-.9-.2-1.2-1-.9 1 1 .9-1.3 2.1-.1-2.8-.1-1.6-.6-.5-1.2.6.6.9-.5 3.1-.5-2.3-.9-.4-1.1.1.9 1.2.2 1-.9 3.4-1.4 1.3-1 1.9.4 2.4-.4 2.9-.1.8-1.5-.1-.7 1.5 1.8.9.9 1.9 1.4.4 1.9-.5 1.6-1.4-.1-1.5h-.5l.6-2.4 3.9-4 2.6-4.7.1-3.1z"/><path class="st0" d="M112.2 36.7l-1.1-1.1 1.1-2.2 2.1-.1.3-2 2.9.2.2 1.4-.8 3.3zM97.6 70.1l-.8-1.5-1.4-.4-.3 1.3-1.6-.7-.9 1.4 2 1.7 2.3 1zM30 20.8l-1.5.2v-2.7l-2.6-2.9-1.2-2.7-3.4-3.5-.5-1.1-1.1-1.2-.3 2.3-1.4.9-1.6-.2-.8.5 1.2 1.3 1 .5 1.4 2.8 1.2 1.5V21l-1.2-1.2-.9-3.6-3.1-3.4-.2 1.1 2.3 3 1.3 5.2 4 2.9 2.3-.3 1-.8.5.4 1.6-1.5 2.4-1.3zM58.5 69.5l.2 1.2-1.1 2.6-1.1.3v-1.4l-1.1-1.8-.3-2.2-.3-3.2.5-2.5.1-3.1 1.7-1.4.4-2.3-1.7.6-1.5.5-2.1-.5-.6-1.5-1.9-1 .4 2.4-.4 1.2-.1 2.1-1.1 3.8-1.4 4.7-3.2 4.4-2 .8.9.8h1.5l3.5-3.5-.6 1.7 1 1.8-1.9.2-.4.7 4 .5.6.4-.3.8.8.6h1.4l-.2-.8h1.6l1.4.8 1.4.1-.3-1.1.3-.7 2.1.3 1.7-1.8-.4-3.6zM44 67.8l-4.2-2.1-1.3-1.5.3-2.3 2.8 1.2-.1-2.7 1.8-.5 2.2 2.7zM401.6 82.4c-1.8 0-3.1-1.4-3.1-3.1 0-1.8 1.4-3.2 3.1-3.2 1.8 0 3.1 1.4 3.1 3.2.1 1.7-1.3 3.1-3.1 3.1zm0-5.8c-1.5 0-2.6 1.2-2.6 2.7s1.1 2.7 2.6 2.7 2.7-1.2 2.7-2.7c0-1.5-1.2-2.7-2.7-2.7zm-.1 1.1c.9 0 1.3.4 1.3.9 0 .4-.2.7-.7.9l.6.8.4.5h-.6l-.9-1.2h-.4v1.2h-.6v-2-1c.2-.1.7-.1.9-.1zm.1 1.5c.5 0 .7-.2.7-.6 0-.3-.2-.5-.7-.5h-.4v1.1h.4zM53 121v.4h-1.1v2.8h-.4v-2.8h-1.1v-.4H53zM53.4 121h.6l.9 2.7.9-2.7h.6v3.2H56v-1.9-.3-.5l-.9 2.7h-.4l-.9-2.7v2.8h-.4V121z"/></svg>