<svg version="1.1" id="Layer_1" xmlns="http://www.w3.org/2000/svg" x="0" y="0" viewBox="0 0 241.7 241.7" xml:space="preserve"><style>.st1{fill:#afbe23}.st4{fill:#373e1e}</style><circle cx="120.8" cy="120.8" r="118.8" fill="#ebefc8" stroke="#4e524a" stroke-width="4" stroke-miterlimit="10"/><path class="st1" d="M83.6 139.8s-2.2 10.3-8.7 16.2c-6.4 5.9-6.4 19.5-1.9 21.1 4.5 1.6 12.3.8 12.3.8l1.1 4.8H61.3l3.5-9.9 1.8-17 17-16zm38.3-57.7l3.6 6.6s-.5 21 13.9 12.8l-6.6-1.4-2.3-10.7-1.8-9.6-3.6-2.1-3.2 4.4zm39.5 72.6s-7-.8-11.5 3.7c0 0-.5 7.2 1.3 9.6s10.2-13.3 10.2-13.3z"/><path class="st1" d="M141.1 108.1s9.6 14.6 17.8 26c8.2 11.4 16.1 36.7 13.2 40.3-2.9 3.6-4.6 6.8-17.1 7.5h35.3s-10-5-11.8-17.1c-1.8-12.1-6.4-26.4-17.1-42.1-10.7-15.7-15.3-19.6-15.3-19.6l-2.4 2.4-2.6 2.6z"/><path d="M86.4 58.9c-2.3-1.3-5-2-7.6-2-3.9 0-7.6 1.4-10.5 4-2.9-2.5-6.6-4-10.5-4-2.7 0-5.3.7-7.6 2-5 2.8-8.2 8.1-8.2 13.9 0 1.6.3 3.2.7 4.8 2.6 11.2 23.5 24.5 24.4 25 .4.2.8.3 1.2.3.4 0 .8-.1 1.2-.3.9-.6 21.7-13.8 24.4-25 .5-1.6.7-3.2.7-4.8 0-5.8-3.1-11.1-8.2-13.9h0z" fill="#afbe23" stroke="#373e1e" stroke-width="3.5" stroke-miterlimit="10"/><path d="M95.4 144.7c-.2 0-.5 0-.7-.1L84.2 141c-1.1-.4-1.7-1.6-1.3-2.7.4-1.1 1.6-1.7 2.7-1.3l10.4 3.7c1.1.4 1.7 1.6 1.3 2.7-.2.8-1 1.3-1.9 1.3zm32.7-32.1c-1.1 0-2-.9-2.1-2-.1-1.2.8-2.2 2-2.3.1 0 9.4-.8 14.8-7.3.8-.9 2.1-1 3-.3.9.8 1 2.1.3 3-6.6 7.9-17.3 8.8-17.7 8.9h-.3z" fill="#e87200"/><path class="st4" d="M160.7 104.9c0-1.1-.9-2-2-2s-2 .9-2 2 .9 2 2 2 2-.9 2-2zm27.2 56.8c-1 0-1.9-.7-2.1-1.7-1.4-7.3-2.9-15.5-5.4-21.3-1.9-4.3-7.7-12.9-16.8-24.8-.7-.9-.5-2.3.4-3 .9-.7 2.3-.5 3 .4 9.5 12.3 15.4 21 17.4 25.7 2.7 6.2 4.3 14.7 5.7 22.2.2 1.2-.5 2.3-1.7 2.5h-.5z"/><path class="st4" d="M192.4 183.4c-5.2 0-9.7-2.6-12.3-6.9-1.5-2.6-2.5-8-3.8-14.8-1.3-6.8-2.7-14.5-4.8-19.3-2.9-6.8-19.6-27.9-25.2-34.8-1.9-2.3-2.4-3.8-3.4-6.6-.2-.6-.5-1.3-.8-2.1-.4-1.1.2-2.3 1.3-2.7 1.1-.4 2.3.2 2.7 1.3.3.8.6 1.5.8 2.2.9 2.6 1.3 3.6 2.7 5.3.2.3 22.1 27 25.8 35.8 2.3 5.2 3.7 13.2 5.1 20.2 1.1 5.6 2.2 11.5 3.3 13.4 2.6 4.5 7.1 4.9 8.9 4.8 3-.1 5.7-1.4 6.6-3.1.1-.2 2.1-4.3-.8-6.4-.9-.7-1.1-2.1-.4-3 .7-.9 2-1.1 3-.4 4.6 3.4 3.4 9 2.1 11.8-1.6 3.1-5.7 5.3-10.3 5.4-.1-.1-.3-.1-.5-.1z"/><path class="st4" d="M133.9 184.2h-11.7c-1.2 0-2.1-1-2.1-2.1 0-4.8 3.2-9 7.9-10.2l.7-.2c.3-9.5.3-19.6-.1-21.4-2.6-4.6-5.8-10.9-6.1-15-.2-2.3.4-5.2 1.1-8.6 1.2-5.7 2.7-12.9.2-17.5-1.3-2.5-6.4-4.2-13.6-4.4a7.5 7.5 0 0 1-6.2-3.7c-3.1-5.2-3.2-7.3-2.9-8.5.4-1.8 2.4-2.5 8.4-4.4 1.6-.5 3.3-1.1 4.3-1.5.3-.3 1.3-1.2 4.3-4.7 1.2-1.3 2.8-2.9 4.2-4 2.5-1.9 7-3.5 10.5-2.9 3.2.6 5.4 1.7 7.5 3.8 10.8 11 5.4 21 5.2 21.4-.1.2-.3.4-.5.6-2.2 1.9-7.9 4.3-13.5.1-3.5-2.6-3.7-11.5-3.7-14.9l-2.3-4.9s0-.1-.1-.1c-.2.1-.4.2-.5.4-1.2.9-2.6 2.3-3.6 3.4-4.2 4.9-5 5.4-5.7 5.7-1.1.5-2.9 1.1-4.8 1.7-1.6.5-4.2 1.3-5.4 1.9.2.7.7 2.2 2.3 4.8.6.9 1.6 1.5 2.7 1.6 6.3.2 14.5 1.5 17.2 6.7 3.2 6 1.6 14 .2 20.4-.6 2.9-1.2 5.7-1.1 7.4.2 2.5 2.3 7.5 5.6 13.3.3.6 1.3 2.2.5 25.1 0 .9-.7 1.8-1.6 2l-2.3.6c-2 .5-3.6 2-4.3 3.9h9.2c1.2 0 2.1 1 2.1 2.1.1 1.1-.8 2.1-2 2.1zm-5.4-34.1zm.9-70.7l2.5 5.3c.1.3.2.6.2 1-.1 4.8.7 10.9 2 11.9 3.6 2.7 6.8 1 7.9.3.7-1.6 2.9-8.3-4.7-15.9-1.5-1.5-2.9-2.2-5.2-2.6-.8-.2-1.7-.2-2.7 0zm-24.6 15zm72.4 89.7h-25.6c-1.2 0-2.1-1-2.1-2.1 0-1.2 1-2.1 2.1-2.1h25.6c1.2 0 2.1 1 2.1 2.1 0 1.2-.9 2.1-2.1 2.1zm-24.2-6.4c-1 0-1.9-.7-2.1-1.7-2.4-11.3 4.1-20.8 11.7-22.7 1.2-.3 2.3.4 2.6 1.6.3 1.1-.4 2.3-1.6 2.6-5.6 1.4-10.4 8.8-8.5 17.6.2 1.2-.5 2.3-1.6 2.5-.2.1-.4.1-.5.1z"/><path class="st4" d="M153.1 184.1h-11.7c-1.2 0-2.1-1-2.1-2.1 0-4.8 3.2-9 7.9-10.2l2.3-.6c1.1-.3 2.3.4 2.6 1.5.3 1.1-.4 2.3-1.5 2.6l-2.3.6c-2 .5-3.6 2-4.3 3.9h9.2c1.2 0 2.1 1 2.1 2.1s-1 2.2-2.2 2.2z"/><path class="st4" d="M151.5 172.7c-.7 0-1.4-.3-1.8-1-3.2-4.9-3.2-9.2-3.3-12.9 0-2.1-.1-4.1-.6-6.1-1.5-5.2-5.7-8.3-5.8-8.4-1-.7-1.2-2-.5-3s2-1.2 3-.5c.2.2 5.6 4 7.4 10.7.7 2.5.7 4.9.8 7.2 0 3.5.1 6.9 2.6 10.7.6 1 .4 2.3-.6 3-.4.1-.8.3-1.2.3zM99.1 184.4c-1 0-2-.8-2.1-1.8-.1-.6-1.6-1.6-2.8-2.1-.8-.3-1.4-1-1.4-1.9-.8-17.3-.3-18.2.1-18.8.2-.3.5-.7.8-1.2.7-1 2.5-3.5 2.3-4.6-.1-.5-.3-1.1-.5-1.9-.8-2.9-2.1-7.2-.7-11.7 1-3 3.2-5.1 6.3-5.7.8-.2 1.4-.7 1.8-1.4l.3-.6-7.3-4.6c-.3-.2-.6-.5-.7-.8l-1.4-2.6c-.6 1.1-1.4 2.3-2.4 3.3-2.5 2.3-2.8 4.4-3.2 6.7-.3 2.1-.7 4.5-2.8 6.7-1.3 1.3-3.3 2.9-5.6 4.9-3.9 3.3-9.9 8.2-11 10.6-1.5 3.6-2.2 13.5-2.5 18.8-.2 3-.3 4-.4 4.6-.8 2.7-3.1 4.4-6 4.3-2.9-.1-5.2-2-5.7-4.4-.1-.3-.1-.8-.2-2.1-1.7-23.7-6.7-27.1-9.6-27.1-1.2 0-2.1-.9-2.1-2.1 0-1.2.9-2.1 2.1-2.2h.1c10.4 0 12.9 17.8 13.8 31.1 0 .7.1 1.4.1 1.6 0 .3.7.8 1.7.9 1.3 0 1.5-.9 1.6-1.2.1-.3.2-2 .3-3.7.4-5.9 1-15.9 2.9-20.2 1.3-3.1 5.9-7 12.2-12.2 2.2-1.8 4.2-3.5 5.3-4.6 1.2-1.2 1.4-2.5 1.6-4.3.4-2.6.9-5.9 4.5-9.2 2.2-2.1 2.8-5.7 2.8-5.7.1-.9.8-1.6 1.7-1.8.9-.2 1.8.3 2.3 1.1l3.4 6.3 8.5 5.4c.9.6 1.2 1.7.8 2.7l-1.1 2.3c-.9 1.9-2.7 3.3-4.7 3.8-1.6.3-2.6 1.3-3.1 2.9-1.1 3.3 0 6.7.7 9.2.3.9.5 1.6.6 2.3.5 2.8-1.6 5.8-3 7.8-.2.3-.3.5-.5.7-.2 1.6 0 8.7.3 15.4 1.6.8 3.9 2.4 4.3 4.9.2 1.2-.7 2.3-1.8 2.4-.4-.2-.5-.2-.6-.2z"/><path class="st4" d="M88 184.7H69.6c-1.2 0-2.1-1-2.1-2.1 0-1.2 1-2.1 2.1-2.1H88c1.2 0 2.1 1 2.1 2.1 0 1.2-1 2.1-2.1 2.1z"/><path class="st4" d="M88 184.2c-1.1 0-2-.8-2.1-2-.3-3-3-3.2-3.9-3.1-1.2 0-2.2-.9-2.2-2.1-.2-5.4-2.2-8.3-6.4-9.4-1.1-.3-1.8-1.5-1.5-2.6.3-1.1 1.5-1.8 2.6-1.5 5.5 1.5 8.6 5.3 9.4 11.5 2.8.6 5.9 2.6 6.2 6.9.1 1.2-.8 2.2-2 2.3H88z"/><g><path d="M63.4 84.3c0 2.4 2.2 4.3 4.9 4.3s4.9-1.9 4.9-4.3-1.2-4.1-4.9-4.3c-3.7-.3-4.9-1.9-4.9-4.3s2.2-4.4 4.9-4.4 4.9 2 4.9 4.4m-4.9 12.9v2.9m0-23.2v2.9" fill="none" stroke="#fff" stroke-width="3.5" stroke-linecap="round" stroke-linejoin="round" stroke-miterlimit="10"/></g></svg>